{
.appVersion = "3134";
.formatVersion = 3;
classes = (
{
code = "A Aacute Abreve Acircumflex Adieresis Agrave Amacron Aogonek Aring Atilde AE B C Cacute Ccaron Ccedilla Cdotaccent D Eth Dcaron Dcroat E Eacute Ecaron Ecircumflex Edieresis Edotaccent Egrave Emacron Eogonek F G Gbreve Gdotaccent H Hbar I Iacute Icircumflex Idieresis Idotaccent Igrave Imacron Iogonek J K L Lacute Lcaron Ldot Lslash M N Nacute Ncaron Ntilde Eng O Oacute Ocircumflex Odieresis Ograve Ohungarumlaut Omacron Oslash Otilde OE P Thorn Q R Racute Rcaron S Sacute Scaron Scedilla T Tbar Tcaron U Uacute Ucircumflex Udieresis Ugrave Uhungarumlaut Umacron Uogonek Uring V W Wacute Wcircumflex Wdieresis Wgrave X Y Yacute Ycircumflex Ydieresis Ygrave Z Zacute Zcaron Zdotaccent A_E A_O C_H C_Q D_E E_A Eacute_E E_S E_U E_T_E F_F_E F_V I_E I_L L_E L_L_E L_U M_P N_A N_E N_N_E O_F O_T_E O_Idieresis P_M R_E R_I_C_E R_S S_E S_L S_S_E S_T_E_S T_E T_T_E U_E U_L_L_E X_C_E X_L X_S_E X_S_S 
";
name = Uppercase;
}
);
customParameters = (
{
name = panose;
value = (
0,
0,
7,
0,
0,
0,
0,
0,
0,
0
);
},
{
name = unicodeRanges;
value = (
0,
1,
2
);
},
{
name = codePageRanges;
value = (
"1252",
"1250",
"1254",
"1257",
"bit 29"
);
},
{
name = blueScale;
value = 0.037;
},
{
name = glyphOrder;
value = (
.notdef,
A,
Aacute,
Abreve,
Acircumflex,
Adieresis,
Agrave,
Amacron,
Aogonek,
Aring,
Atilde,
AE,
B,
C,
Cacute,
Ccaron,
Ccedilla,
Cdotaccent,
D,
Eth,
Dcaron,
Dcroat,
E,
Eacute,
Ecaron,
Ecircumflex,
Edieresis,
Edotaccent,
Egrave,
Emacron,
Eogonek,
F,
G,
Gbreve,
Gcommaaccent,
Gdotaccent,
H,
Hbar,
I,
IJ,
Iacute,
Icircumflex,
Idieresis,
Idotaccent,
Igrave,
Imacron,
Iogonek,
J,
K,
Kcommaaccent,
L,
Lacute,
Lcaron,
Lcommaaccent,
Ldot,
Lslash,
M,
N,
Nacute,
Ncaron,
Ncommaaccent,
Eng,
Ntilde,
O,
Oacute,
Ocircumflex,
Odieresis,
Ograve,
Ohungarumlaut,
Omacron,
Oslash,
Otilde,
OE,
P,
Thorn,
Q,
R,
Racute,
Rcaron,
Rcommaaccent,
S,
Sacute,
Scaron,
Scedilla,
Scommaaccent,
T,
Tbar,
Tcaron,
Tcedilla,
uni021A,
U,
Uacute,
Ucircumflex,
Udieresis,

glyphs = (
{
glyphname = .notdef;
lastChange = "2022-11-29 13:28:25 +0000";
layers = (
{
hints = (
{
horizontal = 1;
place = (-56, -6);
place = (-56, -6);
type = Stem;
},
{
horizontal = 1;
place = (594, -6);
place = (594, -6);
type = Stem;
},
{
place = (-56, -6);
place = (-56, -6);
type = Stem;
},
{
place = (394, -6);
place = (394, -6);
type = Stem;
}
);
layerId = m01;
shapes = (
{
closed = 1;
nodes = (
(-56,0,l),
(444,0,l),
(592,700,l),
(92,700,l)
);
},
{
closed = 1;
nodes = (
(278,395,l),
(162,650,l),
(502,650,l)
);
},
{
closed = 1;
nodes = (
(298,350,l),
(522,605,l),
(414,95,l)
);
},
{
closed = 1;
nodes = (
(34,50,l),
(259,305,l),
(374,50,l)
);
},
{
closed = 1;
nodes = (
(122,605,l),
(238,350,l),
(14,95,l)
);
}
);
width = 500;
}
);
note = ".notdef";
},
{
glyphname = A;
kernLeft = A;
kernRight = A;
lastChange = "2022-11-29 13:28:25 +0000";
layers = (
{
hints = (
{
horizontal = 1;
place = (-56, 21);
target = up;
type = BottomGhost;
},
{
horizontal = 1;
place = (172, 31);
place = (172, 31);
type = Stem;
},
{
horizontal = 1;
place = (634, -20);
target = down;
type = TopGhost;
},
{
place = (-33, 575);
place = (-33, 575);
type = Stem;
},
{
horizontal = 1;
place = (543, 35);
place = (543, 35);
type = Stem;
}
);
layerId = m01;
shapes = (
{
closed = 1;
nodes = (
(452,228,l),
(479,0,l),
(598,0,l),
(503,690,l),
(361,690,l),
(-33,0,l),
(84,0,l),
(207,228,l)
);
},
{
closed = 1;
nodes = (
(255,315,l),
(411,599,l),
(442,315,l)
);
}
);
width = 656;
}
);
note = A;
unicode = 65;
},
{
glyphname = Aacute;
kernLeft = A;
kernRight = A;
lastChange = "2022-11-29 13:28:25 +0000";
layers = (
{
hints = (
{
horizontal = 1;
place = (-56, 21);
target = up;
type = BottomGhost;
},
{
horizontal = 1;
place = (172, 31);
place = (172, 31);
type = Stem;
},
{
horizontal = 1;
place = (634, -20);
target = down;
type = TopGhost;
},
{
horizontal = 1;
place = (680, 46);
place = (680, 46);
type = Stem;
},
{
place = (-33, 575);
place = (-33, 575);
type = Stem;
},
{
horizontal = 1;
place = (543, 35);
place = (543, 35);
type = Stem;
}
);
layerId = m01;
shapes = (
{
closed = 1;
nodes = (
(470,736,l),
(589,838,l),
(489,838,l),
(404,736,l)
);
},
{
closed = 1;
nodes = (
(452,228,l),
(479,0,l),
(598,0,l),
(503,690,l),
(361,690,l),
(-33,0,l),
(84,0,l),
(207,228,l)
);
},
{
closed = 1;
nodes = (
(255,315,l),
(411,599,l),
(442,315,l)
);
}
);
width = 656;
}
);
note = Aacute;
unicode = 193;
},
{
glyphname = Abreve;
kernLeft = A;
kernRight = A;
lastChange = "2022-11-29 13:28:25 +0000";
layers = (
{
hints = (
{
horizontal = 1;
place = (-56, 21);
target = up;
type = BottomGhost;
},
{
horizontal = 1;
place = (172, 31);
place = (172, 31);
type = Stem;
},
{
horizontal = 1;
place = (634, -20);
target = down;
type = TopGhost;
},
{
horizontal = 1;
place = (668, 6);
place = (668, 6);
type = Stem;
},
{
place = (176, 6);
place = (176, 6);
type = Stem;
},
{
place = (334, 6);
place = (334, 6);
type = Stem;
},
{
horizontal = 1;
place = (543, 35);
place = (543, 35);
type = Stem;
}
);
layerId = m01;
shapes = (
{
closed = 1;
nodes = (
(511,724,o),
(557,761,o),
(574,838,c),
(512,838,l),
(503,803,o),
(482,786,o),
(453,786,cs),
(424,786,o),
(409,803,o),
(416,838,c),
(354,838,l),
(337,761,o),
(368,724,o),
(440,724,cs)
);
},
{
closed = 1;
nodes = (
(452,228,l),
(479,0,l),
(598,0,l),
(503,690,l),
(361,690,l),
(-33,0,l),
(84,0,l),
(207,228,l)
);
},
{
closed = 1;
nodes = (
(255,315,l),
(411,599,l),
(442,315,l)
);
}
);
width = 656;
}
);
note = Abreve;
unicode = 258;
},
{
glyphname = Acircumflex;
kernLeft = A;
kernRight = A;
lastChange = "2022-11-29 13:28:25 +0000";
layers = (
{
hints = (
{
horizontal = 1;
place = (-56, 21);
target = up;
type = BottomGhost;
},
{
horizontal = 1;
place = (172, 31);
place = (172, 31);
type = Stem;
},
{
horizontal = 1;
place = (634, -20);
target = down;
type = TopGhost;
},
{
horizontal = 1;
place = (680, 46);
place = (680, 46);
type = Stem;
},
{
place = (-33, 575);
place = (-33, 575);
type = Stem;
},
{
horizontal = 1;
place = (543, 35);
place = (543, 35);
type = Stem;
}
);
layerId = m01;
shapes = (
{
closed = 1;
nodes = (
(411,736,l),
(455,796,l),
(473,736,l),
(549,736,l),
(505,838,l),
(424,838,l),
(336,736,l)
);
},
{
closed = 1;
nodes = (
(452,228,l),
(479,0,l),
(598,0,l),
(503,690,l),
(361,690,l),
(-33,0,l),
(84,0,l),
(207,228,l)
);
},
{
closed = 1;
nodes = (
(255,315,l),
(411,599,l),
(442,315,l)
);
}
);
width = 656;
}
);
note = Acircumflex;
unicode = 194;
},
{
glyphname = Adieresis;
kernLeft = A;
kernRight = A;
lastChange = "2022-11-29 13:28:25 +0000";
layers = (
{
hints = (
{
horizontal = 1;
place = (-56, 21);
target = up;
type = BottomGhost;
},
{
horizontal = 1;
place = (172, 31);
place = (172, 31);
type = Stem;
},
{
horizontal = 1;
place = (634, -20);
target = down;
type = TopGhost;
},
{
horizontal = 1;
place = (677, 50);
place = (677, 50);
type = Stem;
},
{
place = (155, 51);
place = (155, 51);
type = Stem;
},
{
place = (310, 51);
place = (310, 51);
type = Stem;
},
{
horizontal = 1;
place = (543, 35);
place = (543, 35);
type = Stem;
}
);
layerId = m01;
shapes = (
{
closed = 1;
nodes = (
(452,228,l),
(479,0,l),
(598,0,l),
(503,690,l),
(361,690,l),
(-33,0,l),
(84,0,l),
(207,228,l)
);
},
{
closed = 1;
nodes = (
(255,315,l),
(411,599,l),
(442,315,l)
);
},
{
closed = 1;
nodes = (
(310,733,l),
(418,733,l),
(441,839,l),
(333,839,l)
);
},
{
closed = 1;
nodes = (
(465,733,l),
(573,733,l),
(596,839,l),
(488,839,l)
);
}
);
width = 656;
}
);
note = Adieresis;
unicode = 196;
},
{
glyphname = Agrave;
kernLeft = A;
kernRight = A;
lastChange = "2022-11-29 13:28:25 +0000";
layers = (
{
hints = (
{
horizontal = 1;
place = (-56, 21);
target = up;
type = BottomGhost;
},
{
horizontal = 1;
place = (172, 31);
place = (172, 31);
type = Stem;
},
{
horizontal = 1;
place = (634, -20);
target = down;
type = TopGhost;
},
{
horizontal = 1;
place = (680, 46);
place = (680, 46);
type = Stem;
},
{
place = (-33, 575);
place = (-33, 575);
type = Stem;
},
{
horizontal = 1;
place = (543, 35);
place = (543, 35);
type = Stem;
}
);
layerId = m01;
shapes = (
{
closed = 1;
nodes = (
(415,736,l),
(481,736,l),
(440,838,l),
(340,838,l)
);
},
{
closed = 1;
nodes = (
(452,228,l),
(479,0,l),
(598,0,l),
(503,690,l),
(361,690,l),
(-33,0,l),
(84,0,l),
(207,228,l)
);
},
{
closed = 1;
nodes = (
(255,315,l),
(411,599,l),
(442,315,l)
);
}
);
width = 656;
}
);
note = Agrave;
unicode = 192;
},
{
glyphname = Amacron;
kernLeft = A;
kernRight = A;
lastChange = "2022-11-29 13:28:25 +0000";
layers = (
{
hints = (
{
horizontal = 1;
place = (-56, 21);
target = up;
type = BottomGhost;
},
{
horizontal = 1;
place = (172, 31);
place = (172, 31);
type = Stem;
},
{
horizontal = 1;
place = (634, -20);
target = down;
type = TopGhost;
},
{
horizontal = 1;
place = (702, 7);
place = (702, 7);
type = Stem;
},
{
place = (159, 199);
place = (159, 199);
type = Stem;
},
{
horizontal = 1;
place = (543, 35);
place = (543, 35);
type = Stem;
}
);
layerId = m01;
shapes = (
{
closed = 1;
nodes = (
(575,758,l),
(588,821,l),
(333,821,l),
(320,758,l)
);
},
{
closed = 1;
nodes = (
(452,228,l),
(479,0,l),
(598,0,l),
(503,690,l),
(361,690,l),
(-33,0,l),
(84,0,l),
(207,228,l)
);
},
{
closed = 1;
nodes = (
(255,315,l),
(411,599,l),
(442,315,l)
);
}
);
width = 656;
}
);
note = Amacron;
unicode = 256;
},
{
glyphname = Aogonek;
kernLeft = A;
kernRight = A;
lastChange = "2022-11-29 13:28:25 +0000";
layers = (
{
hints = (
{
horizontal = 1;
place = (-279, 10);
place = (-279, 10);
type = Stem;
},
{
horizontal = 1;
place = (-56, 21);
target = up;
type = BottomGhost;
},
{
horizontal = 1;
place = (172, 31);
place = (172, 31);
type = Stem;
},
{
horizontal = 1;
place = (634, -20);
target = down;
type = TopGhost;
},
{
place = (371, 46);
place = (371, 46);
type = Stem;
},
{
horizontal = 1;
place = (543, 35);
place = (543, 35);
type = Stem;
}
);
layerId = m01;
shapes = (
{
closed = 1;
nodes = (
(462,-50,o),
(509,-7,o),
(555,0,c),
(598,0,l),
(503,690,l),
(361,690,l),
(-33,0,l),
(84,0,l),
(207,228,l),
(452,228,l),
(478,10,l),
(418,-14,o),
(356,-67,o),
(341,-138,cs),
(328,-201,o),
(363,-223,o),
(421,-223,cs),
(462,-223,o),
(499,-212,o),
(529,-192,c),
(541,-137,l),
(520,-151,o),
(501,-157,o),
(483,-157,cs),
(456,-157,o),
(442,-144,o),
(450,-107,cs)
);
},
{
closed = 1;
nodes = (
(255,315,l),
(411,599,l),
(442,315,l)
);
}
);
width = 656;
}
);
note = Aogonek;
unicode = 260;
},
{
glyphname = Aring;
kernLeft = A;
kernRight = A;
lastChange = "2022-11-29 13:28:25 +0000";
layers = (
{
hints = (
{
horizontal = 1;
place = (-56, 21);
target = up;
type = BottomGhost;
},
{
horizontal = 1;
place = (172, 31);
place = (172, 31);
type = Stem;
},
{
horizontal = 1;
place = (634, -20);
target = down;
type = TopGhost;
},
{
horizontal = 1;
place = (662, -13);
place = (662, -13);
type = Stem;
},
{
horizontal = 1;
place = (789, -12);
place = (789, -12);
type = Stem;
},
{
place = (188, 2);
place = (188, 2);
type = Stem;
},
{
place = (326, 2);
place = (326, 2);
type = Stem;
},
{
horizontal = 1;
place = (543, 35);
place = (543, 35);
type = Stem;
}
);
layerId = m01;
shapes = (
{
closed = 1;
nodes = (
(495,718,o),
(544,753,o),
(554,803,cs),
(565,853,o),
(532,889,o),
(475,889,cs),
(418,889,o),
(369,853,o),
(358,803,cs),
(348,753,o),
(381,718,o),
(438,718,cs)
);
},
{
closed = 1;
nodes = (
(488,845,o),
(502,828,o),
(496,803,cs),
(491,779,o),
(470,761,o),
(447,761,cs),
(424,761,o),
(411,779,o),
(416,803,cs),
(422,828,o),
(442,845,o),
(465,845,cs)
);
},
{
closed = 1;
nodes = (
(452,228,l),
(479,0,l),
(598,0,l),
(503,690,l),
(361,690,l),
(-33,0,l),
(84,0,l),
(207,228,l)
);
},
{
closed = 1;
nodes = (
(255,315,l),
(411,599,l),
(442,315,l)
);
}
);
width = 656;
}
);
note = Aring;
unicode = 197;
},
{
glyphname = Atilde;
kernLeft = A;
kernRight = A;
lastChange = "2022-11-29 13:28:25 +0000";
layers = (
{
hints = (
{
horizontal = 1;
place = (-56, 21);
target = up;
type = BottomGhost;
},
{
horizontal = 1;
place = (172, 31);
place = (172, 31);
type = Stem;
},
{
horizontal = 1;
place = (634, -20);
target = down;
type = TopGhost;
},
{
horizontal = 1;
place = (692, 31);
place = (692, 31);
type = Stem;
},
{
place = (166, -4);
place = (166, -4);
type = Stem;
},
{
place = (354, -3);
place = (354, -3);
type = Stem;
},
{
horizontal = 1;
place = (688, 31);
place = (688, 31);
type = Stem;
},
{
horizontal = 1;
place = (543, 35);
place = (543, 35);
type = Stem;
}
);
layerId = m01;
shapes = (
{
closed = 1;
nodes = (
(407,771,o),
(417,767,o),
(439,759,cs),
(467,748,o),
(482,744,o),
(503,744,cs),
(543,744,o),
(569,766,o),
(583,831,c),
(530,831,l),
(527,814,o),
(520,808,o),
(509,808,cs),
(501,808,o),
(490,812,o),
(468,820,cs),
(441,831,o),
(426,835,o),
(404,835,cs),
(365,835,o),
(338,813,o),
(325,748,c),
(377,748,l),
(380,765,o),
(388,771,o),
(398,771,cs)
);
},
{
closed = 1;
nodes = (
(452,228,l),
(479,0,l),
(598,0,l),
(503,690,l),
(361,690,l),
(-33,0,l),
(84,0,l),
(207,228,l)
);
},
{
closed = 1;
nodes = (
(255,315,l),
(411,599,l),
(442,315,l)
);
}
);
width = 656;
}
);
note = Atilde;
unicode = 195;
},
{
glyphname = AE;
lastChange = "2022-11-29 13:28:25 +0000";
layers = (
{
hints = (
{
horizontal = 1;
place = (-56, 32);
place = (-56, 32);
type = Stem;
},
{
horizontal = 1;
place = (246, 31);
place = (246, 31);
type = Stem;
},
{
horizontal = 1;
place = (547, 31);
place = (547, 31);
type = Stem;
},
{
place = (386, 48);
place = (386, 48);
type = Stem;
},
{
horizontal = 1;
place = (179, 32);
place = (179, 32);
type = Stem;
}
);
layerId = m01;
shapes = (
{
closed = 1;
nodes = (
(864,88,l),
(517,88,l),
(547,302,l),
(872,302,l),
(890,389,l),
(559,389,l),
(589,603,l),
(964,603,l),
(982,690,l),
(442,690,l),
(-93,0,l),
(25,0,l),
(202,235,l),
(428,235,l),
(395,0,l),
(846,0,l)
);
},
{
closed = 1;
nodes = (
(440,323,l),
(268,323,l),
(479,602,l)
);
}
);
width = 930;
}
);
note = AE;
unicode = 198;
},
{
glyphname = B;
lastChange = "2022-11-29 13:28:25 +0000";
layers = (
{
hints = (
{
horizontal = 1;
place = (-56, 32);
place = (-56, 32);
type = Stem;
},
{
horizontal = 1;
place = (258, 29);
place = (258, 29);
type = Stem;
},
{
horizontal = 1;
place = (547, 31);
place = (547, 31);
type = Stem;
},
{
place = (39, 54);
place = (39, 54);
type = Stem;
},
{
place = (433, 60);
place = (433, 60);
type = Stem;
},
{
place = (408, 60);
place = (408, 60);
type = Stem;
}
);
layerId = m01;
shapes = (
{
closed = 1;
nodes = (
(565,393,o),
(617,438,o),
(633,516,cs),
(654,612,o),
(604,671,o),
(497,686,cs),
(464,690,o),
(442,690,o),
(408,690,cs),
(185,690,l),
(39,0,l),
(274,0,ls),
(309,0,o),
(332,0,o),
(367,5,cs),
(460,18,o),
(565,78,o),
(592,204,cs),
(612,296,o),
(574,347,o),
(489,369,c)
);
},
{
closed = 1;
nodes = (
(277,603,l),
(390,603,ls),
(406,603,o),
(426,602,o),
(441,600,cs),
(495,594,o),
(528,565,o),
(515,504,cs),
(503,448,o),
(469,413,o),
(406,403,cs),
(388,400,o),
(370,399,o),
(353,399,cs),
(233,399,l)
);
},
{
closed = 1;
nodes = (
(337,88,o),
(319,88,o),
(303,88,cs),
(167,88,l),
(215,314,l),
(345,314,ls),
(361,314,o),
(377,314,o),
(397,311,cs),
(454,304,o),
(491,274,o),
(475,199,cs),
(461,132,o),
(409,94,o),
(351,89,cs)
);
}
);
width = 641;
}
);
note = B;
unicode = 66;
},
{
glyphname = C;
kernLeft = C;
kernRight = C;
lastChange = "2022-11-29 13:28:25 +0000";
layers = (
{
hints = (
{
horizontal = 1;
place = (-70, 28);
place = (-70, 28);
type = Stem;
},
{
horizontal = 1;
place = (564, 28);
place = (564, 28);
type = Stem;
},
{
place = (-7, 63);
place = (-7, 63);
type = Stem;
}
);
layerId = m01;
shapes = (
{
closed = 1;
nodes = (
(278,704,o),
(111,559,o),
(65,342,cs),
(21,132,o),
(111,-14,o),
(308,-14,cs),
(488,-14,o),
(611,89,o),
(653,224,cs),
(656,234,l),
(547,234,l),
(543,224,ls),
(505,131,o),
(435,70,o),
(331,70,cs),
(209,70,o),
(149,176,o),
(185,347,cs),
(220,510,o),
(324,620,o),
(452,620,cs),
(556,620,o),
(601,561,o),
(600,468,cs),
(600,458,l),
(709,458,l),
(710,468,ls),
(725,604,o),
(652,704,o),
(472,704,cs)
);
}
);
width = 708;
}
);
note = C;
unicode = 67;
},
{
glyphname = Cacute;
kernLeft = C;
kernRight = C;
lastChange = "2022-11-29 13:28:25 +0000";
layers = (
{
hints = (
{
horizontal = 1;
place = (-70, 28);
place = (-70, 28);
type = Stem;
},
{
horizontal = 1;
place = (564, 28);
place = (564, 28);
type = Stem;
},
{
horizontal = 1;
place = (680, 46);
place = (680, 46);
type = Stem;
},
{
place = (-7, 63);
place = (-7, 63);
type = Stem;
}
);
layerId = m01;
shapes = (
{
closed = 1;
nodes = (
(499,736,l),
(618,838,l),
(518,838,l),
(433,736,l)
);
},
{
closed = 1;
nodes = (
(278,704,o),
(111,559,o),
(65,342,cs),
(21,132,o),
(111,-14,o),
(308,-14,cs),
(488,-14,o),
(611,89,o),
(653,224,cs),
(656,234,l),
(547,234,l),
(543,224,ls),
(505,131,o),
(435,70,o),
(331,70,cs),
(209,70,o),
(149,176,o),
(185,347,cs),
(220,510,o),
(324,620,o),
(452,620,cs),
(556,620,o),
(601,561,o),
(600,468,cs),
(600,458,l),
(709,458,l),
(710,468,ls),
(725,604,o),
(652,704,o),
(472,704,cs)
);
}
);
width = 708;
}
);
note = Cacute;
unicode = 262;
},
{
glyphname = Ccaron;
kernLeft = C;
kernRight = C;
lastChange = "2022-11-29 13:28:25 +0000";
layers = (
{
hints = (
{
horizontal = 1;
place = (-70, 28);
place = (-70, 28);
type = Stem;
},
{
horizontal = 1;
place = (564, 28);
place = (564, 28);
type = Stem;
},
{
horizontal = 1;
place = (680, 46);
place = (680, 46);
type = Stem;
},
{
place = (-7, 63);
place = (-7, 63);
type = Stem;
}
);
layerId = m01;
shapes = (
{
closed = 1;
nodes = (
(431,736,l),
(512,736,l),
(600,838,l),
(525,838,l),
(481,777,l),
(463,838,l),
(387,838,l)
);
},
{
closed = 1;
nodes = (
(547,234,l),
(543,224,ls),
(505,131,o),
(435,70,o),
(331,70,cs),
(209,70,o),
(149,176,o),
(185,347,cs),
(220,510,o),
(324,620,o),
(452,620,cs),
(556,620,o),
(601,561,o),
(600,468,cs),
(600,458,l),
(709,458,l),
(710,468,ls),
(725,604,o),
(652,704,o),
(472,704,cs),
(278,704,o),
(111,559,o),
(65,342,cs),
(21,132,o),
(111,-14,o),
(308,-14,cs),
(488,-14,o),
(611,89,o),
(653,224,cs),
(656,234,l)
);
}
);
width = 708;
}
);
note = Ccaron;
unicode = 268;
},
{
glyphname = Ccedilla;
kernLeft = C;
kernRight = C;
lastChange = "2022-11-29 13:28:25 +0000";
layers = (
{
hints = (
{
horizontal = 1;
place = (-266, -7);
place = (-266, -7);
type = Stem;
},
{
horizontal = 1;
place = (-67, 21);
target = up;
type = BottomGhost;
},
{
horizontal = 1;
place = (564, 28);
place = (564, 28);
type = Stem;
},
{
place = (-7, 63);
place = (-7, 63);
type = Stem;
},
{
place = (323, 14);
place = (323, 14);
type = Stem;
},
{
horizontal = 1;
place = (-137, 95);
place = (-137, 95);
type = Stem;
}
);
layerId = m01;
shapes = (
{
closed = 1;
nodes = (
(547,234,l),
(543,224,ls),
(505,131,o),
(435,70,o),
(331,70,cs),
(209,70,o),
(149,176,o),
(185,347,cs),
(220,510,o),
(324,620,o),
(452,620,cs),
(556,620,o),
(601,561,o),
(600,468,cs),
(600,458,l),
(709,458,l),
(710,468,ls),
(725,604,o),
(652,704,o),
(472,704,cs),
(278,704,o),
(111,559,o),
(65,342,cs),
(24,149,o),
(97,11,o),
(261,-11,c),
(209,-81,l),
(281,-76,o),
(303,-91,o),
(297,-122,cs),
(292,-146,o),
(268,-161,o),
(226,-161,cs),
(207,-161,o),
(191,-159,o),
(175,-151,c),
(164,-202,l),
(177,-208,o),
(195,-210,o),
(214,-210,cs),
(292,-210,o),
(354,-181,o),
(367,-122,cs),
(377,-76,o),
(353,-48,o),
(300,-41,c),
(320,-14,l),
(493,-9,o),
(611,92,o),
(653,224,cs),
(656,234,l)
);
}
);
width = 708;
}
);
note = Ccedilla;
unicode = 199;
},
{
glyphname = Cdotaccent;
kernLeft = C;
kernRight = C;
lastChange = "2022-11-29 13:28:25 +0000";
layers = (
{
hints = (
{
horizontal = 1;
place = (-70, 28);
place = (-70, 28);
type = Stem;
},
{
horizontal = 1;
place = (564, 28);
place = (564, 28);
type = Stem;
},
{
horizontal = 1;
place = (678, 57);
place = (678, 57);
type = Stem;
},
{
place = (-7, 63);
place = (-7, 63);
type = Stem;
},
{
place = (257, 60);
place = (257, 60);
type = Stem;
}
);
layerId = m01;
shapes = (
{
closed = 1;
nodes = (
(462,847,o),
(432,823,o),
(425,791,cs),
(418,758,o),
(438,734,o),
(471,734,cs),
(504,734,o),
(534,758,o),
(541,791,cs),
(548,823,o),
(528,847,o),
(495,847,cs)
);
},
{
closed = 1;
nodes = (
(278,704,o),
(111,559,o),
(65,342,cs),
(21,132,o),
(111,-14,o),
(308,-14,cs),
(488,-14,o),
(611,89,o),
(653,224,cs),
(656,234,l),
(547,234,l),
(543,224,ls),
(505,131,o),
(435,70,o),
(331,70,cs),
(209,70,o),
(149,176,o),
(185,347,cs),
(220,510,o),
(324,620,o),
(452,620,cs),
(556,620,o),
(601,561,o),
(600,468,cs),
(600,458,l),
(709,458,l),
(710,468,ls),
(725,604,o),
(652,704,o),
(472,704,cs)
);
}
);
width = 708;
}
);
note = Cdotaccent;
unicode = 266;
},
{
glyphname = D;
kernRight = D;
lastChange = "2022-11-29 13:28:25 +0000";
layers = (
{
hints = (
{
horizontal = 1;
place = (-56, 32);
place = (-56, 32);
type = Stem;
},
{
horizontal = 1;
place = (547, 31);
place = (547, 31);
type = Stem;
},
{
place = (39, 54);
place = (39, 54);
type = Stem;
},
{
place = (510, 62);
place = (510, 62);
type = Stem;
}
);
layerId = m01;
shapes = (
{
closed = 1;
nodes = (
(461,690,o),
(445,690,o),
(408,690,cs),
(185,690,l),
(39,0,l),
(258,0,ls),
(295,0,o),
(311,0,o),
(347,4,cs),
(511,24,o),
(659,147,o),
(703,353,cs),
(747,562,o),
(651,667,o),
(495,686,cs)
);
},
{
closed = 1;
nodes = (
(323,88,o),
(300,88,o),
(266,88,cs),
(167,88,l),
(277,603,l),
(380,603,ls),
(413,603,o),
(437,602,o),
(458,598,cs),
(564,582,o),
(616,498,o),
(585,353,cs),
(552,200,o),
(461,108,o),
(346,92,cs)
);
}
);
width = 719;
}
);
note = D;
unicode = 68;
},
{
glyphname = Eth;
kernRight = D;
lastChange = "2022-11-29 13:28:25 +0000";
layers = (
{
hints = (
{
horizontal = 1;
place = (-56, 32);
place = (-56, 32);
type = Stem;
},
{
horizontal = 1;
place = (246, 10);
place = (246, 10);
type = Stem;
},
{
horizontal = 1;
place = (547, 31);
place = (547, 31);
type = Stem;
},
{
place = (36, 53);
place = (36, 53);
type = Stem;
},
{
place = (507, 61);
place = (507, 61);
type = Stem;
}
);
layerId = m01;
shapes = (
{
closed = 1;
nodes = (
(457,690,o),
(441,690,o),
(404,690,cs),
(182,690,l),
(114,368,l),
(55,368,l),
(41,302,l),
(100,302,l),
(36,0,l),
(255,0,ls),
(292,0,o),
(308,0,o),
(344,4,cs),
(508,24,o),
(655,147,o),
(699,353,cs),
(743,562,o),
(647,667,o),
(491,686,cs)
);
},
{
closed = 1;
nodes = (
(320,88,o),
(296,88,o),
(263,88,cs),
(163,88,l),
(209,302,l),
(337,302,l),
(351,368,l),
(223,368,l),
(273,603,l),
(376,603,ls),
(410,603,o),
(433,602,o),
(455,598,cs),
(561,582,o),
(613,498,o),
(582,353,cs),
(549,200,o),
(457,108,o),
(343,92,cs)
);
}
);
width = 716;
}
);
note = Eth;
unicode = 208;
},
{
glyphname = Dcaron;
kernRight = D;
lastChange = "2022-11-29 13:28:25 +0000";
layers = (
{
hints = (
{
horizontal = 1;
place = (-56, 32);
place = (-56, 32);
type = Stem;
},
{
horizontal = 1;
place = (547, 31);
place = (547, 31);
type = Stem;
},
{
horizontal = 1;
place = (680, 46);
place = (680, 46);
type = Stem;
},
{
place = (39, 54);
place = (39, 54);
type = Stem;
},
{
place = (510, 62);
place = (510, 62);
type = Stem;
}
);
layerId = m01;
shapes = (
{
closed = 1;
nodes = (
(434,736,l),
(515,736,l),
(603,838,l),
(528,838,l),
(484,777,l),
(466,838,l),
(390,838,l)
);
},
{
closed = 1;
nodes = (
(461,690,o),
(445,690,o),
(408,690,cs),
(185,690,l),
(39,0,l),
(258,0,ls),
(295,0,o),
(311,0,o),
(347,4,cs),
(511,24,o),
(659,147,o),
(703,353,cs),
(747,562,o),
(651,667,o),
(495,686,cs)
);
},
{
closed = 1;
nodes = (
(323,88,o),
(300,88,o),
(266,88,cs),
(167,88,l),
(277,603,l),
(380,603,ls),
(413,603,o),
(437,602,o),
(458,598,cs),
(564,582,o),
(616,498,o),
(585,353,cs),
(552,200,o),
(461,108,o),
(346,92,cs)
);
}
);
width = 719;
}
);
note = Dcaron;
unicode = 270;
},
{
glyphname = Dcroat;
kernRight = D;
lastChange = "2022-11-29 13:28:25 +0000";
layers = (
{
hints = (
{
horizontal = 1;
place = (-56, 32);
place = (-56, 32);
type = Stem;
},
{
horizontal = 1;
place = (246, 10);
place = (246, 10);
type = Stem;
},
{
horizontal = 1;
place = (547, 31);
place = (547, 31);
type = Stem;
},
{
place = (36, 53);
place = (36, 53);
type = Stem;
},
{
place = (507, 61);
place = (507, 61);
type = Stem;
}
);
layerId = m01;
shapes = (
{
closed = 1;
nodes = (
(457,690,o),
(441,690,o),
(404,690,cs),
(182,690,l),
(114,368,l),
(55,368,l),
(41,302,l),
(100,302,l),
(36,0,l),
(255,0,ls),
(292,0,o),
(308,0,o),
(344,4,cs),
(508,24,o),
(655,147,o),
(699,353,cs),
(743,562,o),
(647,667,o),
(491,686,cs)
);
},
{
closed = 1;
nodes = (
(320,88,o),
(296,88,o),
(263,88,cs),
(163,88,l),
(209,302,l),
(337,302,l),
(351,368,l),
(223,368,l),
(273,603,l),
(376,603,ls),
(410,603,o),
(433,602,o),
(455,598,cs),
(561,582,o),
(613,498,o),
(582,353,cs),
(549,200,o),
(457,108,o),
(343,92,cs)
);
}
);
width = 716;
}
);
note = Dcroat;
unicode = 272;
},
{
glyphname = E;
lastChange = "2022-11-29 13:28:25 +0000";
layers = (
{
hints = (
{
horizontal = 1;
place = (-56, 32);
place = (-56, 32);
type = Stem;
},
{
horizontal = 1;
place = (246, 31);
place = (246, 31);
type = Stem;
},
{
horizontal = 1;
place = (547, 31);
place = (547, 31);
type = Stem;
},
{
place = (39, 54);
place = (39, 54);
type = Stem;
}
);
layerId = m01;
shapes = (
{
closed = 1;
nodes = (
(534,88,l),
(167,88,l),
(213,302,l),
(542,302,l),
(560,389,l),
(231,389,l),
(277,603,l),
(634,603,l),
(652,690,l),
(185,690,l),
(39,0,l),
(516,0,l)
);
}
);
width = 600;
}
);
note = E;
unicode = 69;
},
{
glyphname = Eacute;
lastChange = "2022-11-29 13:28:25 +0000";
layers = (
{
hints = (
{
horizontal = 1;
place = (-56, 32);
place = (-56, 32);
type = Stem;
},
{
horizontal = 1;
place = (246, 31);
place = (246, 31);
type = Stem;
},
{
horizontal = 1;
place = (547, 31);
place = (547, 31);
type = Stem;
},
{
horizontal = 1;
place = (680, 46);
place = (680, 46);
type = Stem;
},
{
place = (39, 54);
place = (39, 54);
type = Stem;
}
);
layerId = m01;
shapes = (
{
closed = 1;
nodes = (
(465,736,l),
(584,838,l),
(484,838,l),
(399,736,l)
);
},
{
closed = 1;
nodes = (
(534,88,l),
(167,88,l),
(213,302,l),
(542,302,l),
(560,389,l),
(231,389,l),
(277,603,l),
(634,603,l),
(652,690,l),
(185,690,l),
(39,0,l),
(516,0,l)
);
}
);
width = 600;
}
);
note = Eacute;
unicode = 201;
},
{
glyphname = Ecaron;
lastChange = "2022-11-29 13:28:25 +0000";
layers = (
{
hints = (
{
horizontal = 1;
place = (-56, 32);
place = (-56, 32);
type = Stem;
},
{
horizontal = 1;
place = (246, 31);
place = (246, 31);
type = Stem;
},
{
horizontal = 1;
place = (547, 31);
place = (547, 31);
type = Stem;
},
{
horizontal = 1;
place = (680, 46);
place = (680, 46);
type = Stem;
},
{
place = (39, 54);
place = (39, 54);
type = Stem;
}
);
layerId = m01;
shapes = (
{
closed = 1;
nodes = (
(397,736,l),
(478,736,l),
(566,838,l),
(491,838,l),
(447,777,l),
(429,838,l),
(353,838,l)
);
},
{
closed = 1;
nodes = (
(534,88,l),
(167,88,l),
(213,302,l),
(542,302,l),
(560,389,l),
(231,389,l),
(277,603,l),
(634,603,l),
(652,690,l),
(185,690,l),
(39,0,l),
(516,0,l)
);
}
);
width = 600;
}
);
note = Ecaron;
unicode = 282;
},
{
glyphname = Ecircumflex;
lastChange = "2022-11-29 13:28:25 +0000";
layers = (
{
hints = (
{
horizontal = 1;
place = (-56, 32);
place = (-56, 32);
type = Stem;
},
{
horizontal = 1;
place = (246, 31);
place = (246, 31);
type = Stem;
},
{
horizontal = 1;
place = (547, 31);
place = (547, 31);
type = Stem;
},
{
horizontal = 1;
place = (680, 46);
place = (680, 46);
type = Stem;
},
{
place = (39, 54);
place = (39, 54);
type = Stem;
}
);
layerId = m01;
shapes = (
{
closed = 1;
nodes = (
(406,736,l),
(450,796,l),
(468,736,l),
(544,736,l),
(500,838,l),
(419,838,l),
(331,736,l)
);
},
{
closed = 1;
nodes = (
(534,88,l),
(167,88,l),
(213,302,l),
(542,302,l),
(560,389,l),
(231,389,l),
(277,603,l),
(634,603,l),
(652,690,l),
(185,690,l),
(39,0,l),
(516,0,l)
);
}
);
width = 600;
}
);
note = Ecircumflex;
unicode = 202;
},
{
glyphname = Edieresis;
lastChange = "2022-11-29 13:28:25 +0000";
layers = (
{
hints = (
{
horizontal = 1;
place = (-56, 32);
place = (-56, 32);
type = Stem;
},
{
horizontal = 1;
place = (246, 31);
place = (246, 31);
type = Stem;
},
{
horizontal = 1;
place = (547, 31);
place = (547, 31);
type = Stem;
},
{
horizontal = 1;
place = (677, 50);
place = (677, 50);
type = Stem;
},
{
place = (150, 51);
place = (150, 51);
type = Stem;
},
{
place = (305, 51);
place = (305, 51);
type = Stem;
},
{
place = (39, 54);
place = (39, 54);
type = Stem;
}
);
layerId = m01;
shapes = (
{
closed = 1;
nodes = (
(534,88,l),
(167,88,l),
(213,302,l),
(542,302,l),
(560,389,l),
(231,389,l),
(277,603,l),
(634,603,l),
(652,690,l),
(185,690,l),
(39,0,l),
(516,0,l)
);
},
{
closed = 1;
nodes = (
(303,730,l),
(411,730,l),
(433,836,l),
(325,836,l)
);
},
{
closed = 1;
nodes = (
(458,730,l),
(566,730,l),
(588,836,l),
(480,836,l)
);
}
);
width = 600;
}
);
note = Edieresis;
unicode = 203;
},
{
glyphname = Edotaccent;
lastChange = "2022-11-29 13:28:25 +0000";
layers = (
{
hints = (
{
horizontal = 1;
place = (-56, 32);
place = (-56, 32);
type = Stem;
},
{
horizontal = 1;
place = (246, 31);
place = (246, 31);
type = Stem;
},
{
horizontal = 1;
place = (547, 31);
place = (547, 31);
type = Stem;
},
{
horizontal = 1;
place = (678, 57);
place = (678, 57);
type = Stem;
},
{
place = (39, 54);
place = (39, 54);
type = Stem;
},
{
place = (223, 60);
place = (223, 60);
type = Stem;
}
);
layerId = m01;
shapes = (
{
closed = 1;
nodes = (
(470,734,o),
(500,758,o),
(507,791,cs),
(514,823,o),
(494,847,o),
(461,847,cs),
(428,847,o),
(398,823,o),
(391,791,cs),
(384,758,o),
(404,734,o),
(437,734,cs)
);
},
{
closed = 1;
nodes = (
(534,88,l),
(167,88,l),
(213,302,l),
(542,302,l),
(560,389,l),
(231,389,l),
(277,603,l),
(634,603,l),
(652,690,l),
(185,690,l),
(39,0,l),
(516,0,l)
);
}
);
width = 600;
}
);
note = Edotaccent;
unicode = 278;
},
{
glyphname = Egrave;
lastChange = "2022-11-29 13:28:25 +0000";
layers = (
{
hints = (
{
horizontal = 1;
place = (-56, 32);
place = (-56, 32);
type = Stem;
},
{
horizontal = 1;
place = (246, 31);
place = (246, 31);
type = Stem;
},
{
horizontal = 1;
place = (547, 31);
place = (547, 31);
type = Stem;
},
{
horizontal = 1;
place = (680, 46);
place = (680, 46);
type = Stem;
},
{
place = (39, 54);
place = (39, 54);
type = Stem;
}
);
layerId = m01;
shapes = (
{
closed = 1;
nodes = (
(410,736,l),
(476,736,l),
(435,838,l),
(335,838,l)
);
},
{
closed = 1;
nodes = (
(534,88,l),
(167,88,l),
(213,302,l),
(542,302,l),
(560,389,l),
(231,389,l),
(277,603,l),
(634,603,l),
(652,690,l),
(185,690,l),
(39,0,l),
(516,0,l)
);
}
);
width = 600;
}
);
note = Egrave;
unicode = 200;
},
{
glyphname = Emacron;
lastChange = "2022-11-29 13:28:25 +0000";
layers = (
{
hints = (
{
horizontal = 1;
place = (-56, 32);
place = (-56, 32);
type = Stem;
},
{
horizontal = 1;
place = (246, 31);
place = (246, 31);
type = Stem;
},
{
horizontal = 1;
place = (547, 31);
place = (547, 31);
type = Stem;
},
{
horizontal = 1;
place = (702, 7);
place = (702, 7);
type = Stem;
},
{
place = (154, 199);
place = (154, 199);
type = Stem;
},
{
place = (39, 54);
place = (39, 54);
type = Stem;
}
);
layerId = m01;
shapes = (
{
closed = 1;
nodes = (
(570,758,l),
(583,821,l),
(328,821,l),
(315,758,l)
);
},
{
closed = 1;
nodes = (
(534,88,l),
(167,88,l),
(213,302,l),
(542,302,l),
(560,389,l),
(231,389,l),
(277,603,l),
(634,603,l),
(652,690,l),
(185,690,l),
(39,0,l),
(516,0,l)
);
}
);
width = 600;
}
);
note = Emacron;
unicode = 274;
},
{
glyphname = Eogonek;
lastChange = "2022-11-29 13:28:25 +0000";
layers = (
{
hints = (
{
horizontal = 1;
place = (-279, 10);
place = (-279, 10);
type = Stem;
},
{
horizontal = 1;
place = (-56, 32);
place = (-56, 32);
type = Stem;
},
{
horizontal = 1;
place = (246, 31);
place = (246, 31);
type = Stem;
},
{
horizontal = 1;
place = (547, 31);
place = (547, 31);
type = Stem;
},
{
place = (39, 54);
place = (39, 54);
type = Stem;
},
{
place = (320, 46);
place = (320, 46);
type = Stem;
},
{
place = (406, 54);
place = (406, 54);
type = Stem;
}
);
layerId = m01;
shapes = (
{
closed = 1;
nodes = (
(405,-157,o),
(391,-144,o),
(399,-107,cs),
(411,-50,o),
(458,-7,o),
(504,0,c),
(516,0,l),
(534,88,l),
(167,88,l),
(213,302,l),
(542,302,l),
(560,389,l),
(231,389,l),
(277,603,l),
(634,603,l),
(652,690,l),
(185,690,l),
(39,0,l),
(406,0,l),
(353,-27,o),
(304,-75,o),
(290,-138,cs),
(277,-201,o),
(312,-223,o),
(370,-223,cs),
(411,-223,o),
(448,-212,o),
(478,-192,c),
(490,-137,l),
(469,-151,o),
(450,-157,o),
(432,-157,cs)
);
}
);
width = 600;
}
);
note = Eogonek;
unicode = 280;
},
{
glyphname = F;
kernRight = F;
lastChange = "2022-11-29 13:28:25 +0000";
layers = (
{
hints = (
{
horizontal = 1;
place = (-56, 21);
target = up;
type = BottomGhost;
},
{
horizontal = 1;
place = (246, 31);
place = (246, 31);
type = Stem;
},
{
horizontal = 1;
place = (547, 31);
place = (547, 31);
type = Stem;
},
{
place = (39, 54);
place = (39, 54);
type = Stem;
}
);
layerId = m01;
shapes = (
{
closed = 1;
nodes = (
(277,603,l),
(634,603,l),
(652,690,l),
(185,690,l),
(39,0,l),
(149,0,l),
(213,302,l),
(532,302,l),
(550,389,l),
(231,389,l)
);
}
);
width = 579;
}
);
note = F;
unicode = 70;
},
{
glyphname = G;
kernLeft = C;
kernRight = G;
lastChange = "2022-11-29 13:28:25 +0000";
layers = (
{
hints = (
{
horizontal = 1;
place = (-70, 28);
place = (-70, 28);
type = Stem;
},
{
horizontal = 1;
place = (198, 32);
place = (198, 32);
type = Stem;
},
{
horizontal = 1;
place = (564, 28);
place = (564, 28);
type = Stem;
},
{
place = (-7, 63);
place = (-7, 63);
type = Stem;
},
{
place = (513, 38);
place = (513, 38);
type = Stem;
},
{
place = (504, 54);
place = (504, 54);
type = Stem;
},
{
horizontal = 1;
place = (-56, 21);
target = up;
type = BottomGhost;
}
);
layerId = m01;
shapes = (
{
closed = 1;
nodes = (
(418,342,l),
(400,254,l),
(554,254,l),
(524,143,o),
(435,70,o),
(333,70,cs),
(210,70,o),
(149,176,o),
(185,347,cs),
(220,510,o),
(326,620,o),
(454,620,cs),
(559,620,o),
(604,561,o),
(602,468,cs),
(602,458,l),
(712,458,l),
(713,468,ls),
(728,604,o),
(655,704,o),
(474,704,cs),
(280,704,o),
(111,559,o),
(65,342,cs),
(21,132,o),
(106,-14,o),
(303,-14,cs),
(380,-14,o),
(442,8,o),
(490,50,c),
(536,117,l),
(515,0,l),
(607,0,l),
(679,342,l)
);
}
);
width = 722;
}
);
note = G;
unicode = 71;
},
{
glyphname = Gbreve;
kernLeft = C;
kernRight = G;
lastChange = "2022-11-29 13:28:25 +0000";
layers = (
{
hints = (
{
horizontal = 1;
place = (-70, 28);
place = (-70, 28);
type = Stem;
},
{
horizontal = 1;
place = (198, 32);
place = (198, 32);
type = Stem;
},
{
horizontal = 1;
place = (564, 28);
place = (564, 28);
type = Stem;
},
{
horizontal = 1;
place = (668, 6);
place = (668, 6);
type = Stem;
},
{
place = (-7, 63);
place = (-7, 63);
type = Stem;
},
{
place = (203, 6);
place = (203, 6);
type = Stem;
},
{
place = (361, 6);
place = (361, 6);
type = Stem;
},
{
place = (513, 38);
place = (513, 38);
type = Stem;
},
{
place = (504, 54);
place = (504, 54);
type = Stem;
},
{
horizontal = 1;
place = (-56, 21);
target = up;
type = BottomGhost;
}
);
layerId = m01;
shapes = (
{
closed = 1;
nodes = (
(538,724,o),
(584,761,o),
(601,838,c),
(539,838,l),
(530,803,o),
(509,786,o),
(480,786,cs),
(451,786,o),
(436,803,o),
(443,838,c),
(381,838,l),
(364,761,o),
(395,724,o),
(467,724,cs)
);
},
{
closed = 1;
nodes = (
(418,342,l),
(400,254,l),
(554,254,l),
(524,143,o),
(435,70,o),
(333,70,cs),
(210,70,o),
(149,176,o),
(185,347,cs),
(220,510,o),
(326,620,o),
(454,620,cs),
(559,620,o),
(604,561,o),
(602,468,cs),
(602,458,l),
(712,458,l),
(713,468,ls),
(728,604,o),
(655,704,o),
(474,704,cs),
(280,704,o),
(111,559,o),
(65,342,cs),
(21,132,o),
(106,-14,o),
(303,-14,cs),
(380,-14,o),
(442,8,o),
(490,50,c),
(536,117,l),
(515,0,l),
(607,0,l),
(679,342,l)
);
}
);
width = 722;
}
);
note = Gbreve;
unicode = 286;
},
{
glyphname = Gcommaaccent;
kernLeft = C;
kernRight = G;
lastChange = "2022-11-29 13:28:25 +0000";
layers = (
{
hints = (
{
horizontal = 1;
place = (-70, 28);
place = (-70, 28);
type = Stem;
},
{
horizontal = 1;
place = (198, 32);
place = (198, 32);
type = Stem;
},
{
horizontal = 1;
place = (564, 28);
place = (564, 28);
type = Stem;
},
{
place = (-7, 63);
place = (-7, 63);
type = Stem;
},
{
place = (513, 38);
place = (513, 38);
type = Stem;
},
{
place = (504, 54);
place = (504, 54);
type = Stem;
},
{
horizontal = 1;
place = (-256, 96);
place = (-256, 96);
type = Stem;
},
{
horizontal = 1;
place = (-56, 21);
target = up;
type = BottomGhost;
}
);
layerId = m01;
shapes = (
{
closed = 1;
nodes = (
(418,342,l),
(400,254,l),
(554,254,l),
(524,143,o),
(435,70,o),
(333,70,cs),
(210,70,o),
(149,176,o),
(185,347,cs),
(220,510,o),
(326,620,o),
(454,620,cs),
(559,620,o),
(604,561,o),
(602,468,cs),
(602,458,l),
(712,458,l),
(713,468,ls),
(728,604,o),
(655,704,o),
(474,704,cs),
(280,704,o),
(111,559,o),
(65,342,cs),
(21,132,o),
(106,-14,o),
(303,-14,cs),
(380,-14,o),
(442,8,o),
(490,50,c),
(536,117,l),
(515,0,l),
(607,0,l),
(679,342,l)
);
},
{
closed = 1;
nodes = (
(274,-48,l),
(182,-200,l),
(252,-200,l),
(353,-59,l),
(355,-48,l)
);
}
);
width = 722;
}
);
note = Gcommaaccent;
unicode = 290;
},
{
glyphname = Gdotaccent;
kernLeft = C;
kernRight = G;
lastChange = "2022-11-29 13:28:25 +0000";
layers = (
{
hints = (
{
horizontal = 1;
place = (-70, 28);
place = (-70, 28);
type = Stem;
},
{
horizontal = 1;
place = (198, 32);
place = (198, 32);
type = Stem;
},
{
horizontal = 1;
place = (564, 28);
place = (564, 28);
type = Stem;
},
{
horizontal = 1;
place = (678, 57);
place = (678, 57);
type = Stem;
},
{
place = (-7, 63);
place = (-7, 63);
type = Stem;
},
{
place = (255, 60);
place = (255, 60);
type = Stem;
},
{
place = (513, 38);
place = (513, 38);
type = Stem;
},
{
place = (504, 54);
place = (504, 54);
type = Stem;
},
{
horizontal = 1;
place = (-56, 21);
target = up;
type = BottomGhost;
}
);
layerId = m01;
shapes = (
{
closed = 1;
nodes = (
(502,734,o),
(532,758,o),
(539,791,cs),
(546,823,o),
(526,847,o),
(493,847,cs),
(460,847,o),
(430,823,o),
(423,791,cs),
(416,758,o),
(436,734,o),
(469,734,cs)
);
},
{
closed = 1;
nodes = (
(418,342,l),
(400,254,l),
(554,254,l),
(524,143,o),
(435,70,o),
(333,70,cs),
(210,70,o),
(149,176,o),
(185,347,cs),
(220,510,o),
(326,620,o),
(454,620,cs),
(559,620,o),
(604,561,o),
(602,468,cs),
(602,458,l),
(712,458,l),
(713,468,ls),
(728,604,o),
(655,704,o),
(474,704,cs),
(280,704,o),
(111,559,o),
(65,342,cs),
(21,132,o),
(106,-14,o),
(303,-14,cs),
(380,-14,o),
(442,8,o),
(490,50,c),
(536,117,l),
(515,0,l),
(607,0,l),
(679,342,l)
);
}
);
width = 722;
}
);
note = Gdotaccent;
unicode = 288;
},
{
glyphname = H;
lastChange = "2022-11-29 13:28:25 +0000";
layers = (
{
hints = (
{
horizontal = 1;
place = (-56, 21);
target = up;
type = BottomGhost;
},
{
horizontal = 1;
place = (238, 33);
place = (238, 33);
type = Stem;
},
{
horizontal = 1;
place = (634, -20);
target = down;
type = TopGhost;
},
{
place = (39, 54);
place = (39, 54);
type = Stem;
},
{
place = (503, 53);
place = (503, 53);
type = Stem;
}
);
layerId = m01;
shapes = (
{
closed = 1;
nodes = (
(758,690,l),
(649,690,l),
(584,383,l),
(230,383,l),
(295,690,l),
(185,690,l),
(39,0,l),
(149,0,l),
(211,294,l),
(565,294,l),
(503,0,l),
(612,0,l)
);
}
);
width = 740;
}
);
note = H;
unicode = 72;
},
{
glyphname = Hbar;
lastChange = "2022-11-29 13:28:25 +0000";
layers = (
{
hints = (
{
horizontal = 1;
place = (-56, 21);
target = up;
type = BottomGhost;
},
{
horizontal = 1;
place = (238, 33);
place = (238, 33);
type = Stem;
},
{
horizontal = 1;
place = (441, 10);
place = (441, 10);
type = Stem;
},
{
place = (39, 54);
place = (39, 54);
type = Stem;
},
{
place = (503, 53);
place = (503, 53);
type = Stem;
},
{
horizontal = 1;
place = (441, 137);
place = (441, 137);
type = Stem;
}
);
layerId = m01;
shapes = (
{
closed = 1;
nodes = (
(757,497,l),
(771,563,l),
(731,563,l),
(758,690,l),
(649,690,l),
(622,563,l),
(268,563,l),
(295,690,l),
(185,690,l),
(158,563,l),
(118,563,l),
(104,497,l),
(144,497,l),
(39,0,l),
(149,0,l),
(211,294,l),
(565,294,l),
(503,0,l),
(612,0,l),
(717,497,l)
);
},
{
closed = 1;
nodes = (
(608,497,l),
(584,383,l),
(230,383,l),
(254,497,l)
);
}
);
width = 740;
}
);
note = Hbar;
unicode = 294;
},
{
glyphname = I;
lastChange = "2022-11-29 13:28:25 +0000";
layers = (
{
hints = (
{
horizontal = 1;
place = (-56, 21);
target = up;
type = BottomGhost;
},
{
horizontal = 1;
place = (634, -20);
target = down;
type = TopGhost;
},
{
place = (39, 54);
place = (39, 54);
type = Stem;
}
);
layerId = m01;
shapes = (
{
closed = 1;
nodes = (
(149,0,l),
(295,690,l),
(185,690,l),
(39,0,l)
);
}
);
width = 277;
}
);
note = I;
unicode = 73;
},
{
glyphname = IJ;
kernRight = IJ;
lastChange = "2022-11-29 13:28:25 +0000";
layers = (
{
hints = (
{
horizontal = 1;
place = (-56, 21);
target = up;
type = BottomGhost;
},
{
horizontal = 1;
place = (634, -20);
target = down;
type = TopGhost;
},
{
place = (39, 54);
place = (39, 54);
type = Stem;
},
{
place = (624, 54);
place = (624, 54);
type = Stem;
},
{
horizontal = 1;
place = (-70, 28);
place = (-70, 28);
type = Stem;
},
{
place = (274, 54);
place = (274, 54);
type = Stem;
}
);
layerId = m01;
shapes = (
{
closed = 1;
nodes = (
(149,0,l),
(295,690,l),
(185,690,l),
(39,0,l)
);
},
{
closed = 1;
nodes = (
(880,690,l),
(770,690,l),
(681,268,ls),
(674,236,o),
(669,212,o),
(663,191,cs),
(641,116,o),
(596,70,o),
(523,70,cs),
(449,70,o),
(414,110,o),
(429,204,cs),
(435,242,l),
(325,242,l),
(318,204,ls),
(294,70,o),
(352,-14,o),
(495,-14,cs),
(649,-14,o),
(738,67,o),
(770,184,cs),
(781,223,o),
(786,245,o),
(792,273,cs)
);
}
);
width = 844;
}
);
note = IJ;
unicode = 306;
},
{
glyphname = Iacute;
lastChange = "2022-11-29 13:28:25 +0000";
layers = (
{
hints = (
{
horizontal = 1;
place = (-56, 21);
target = up;
type = BottomGhost;
},
{
horizontal = 1;
place = (634, -20);
target = down;
type = TopGhost;
},
{
horizontal = 1;
place = (680, 46);
place = (680, 46);
type = Stem;
},
{
place = (39, 54);
place = (39, 54);
type = Stem;
}
);
layerId = m01;
shapes = (
{
closed = 1;
nodes = (
(278,736,l),
(397,838,l),
(297,838,l),
(212,736,l)
);
},
{
closed = 1;
nodes = (
(149,0,l),
(295,690,l),
(185,690,l),
(39,0,l)
);
}
);
width = 277;
}
);
note = Iacute;
unicode = 205;
},
{
glyphname = Icircumflex;
lastChange = "2022-11-29 13:28:25 +0000";
layers = (
{
hints = (
{
horizontal = 1;
place = (-56, 21);
target = up;
type = BottomGhost;
},
{
horizontal = 1;
place = (634, -20);
target = down;
type = TopGhost;
},
{
horizontal = 1;
place = (680, 46);
place = (680, 46);
type = Stem;
},
{
place = (39, 54);
place = (39, 54);
type = Stem;
}
);
layerId = m01;
shapes = (
{
closed = 1;
nodes = (
(219,736,l),
(263,796,l),
(281,736,l),
(357,736,l),
(313,838,l),
(232,838,l),
(144,736,l)
);
},
{
closed = 1;
nodes = (
(185,690,l),
(39,0,l),
(149,0,l),
(295,690,l)
);
}
);
width = 277;
}
);
note = Icircumflex;
unicode = 206;
},
{
glyphname = Idieresis;
lastChange = "2022-11-29 13:28:25 +0000";
layers = (
{
hints = (
{
horizontal = 1;
place = (-56, 21);
target = up;
type = BottomGhost;
},
{
horizontal = 1;
place = (634, -20);
target = down;
type = TopGhost;
},
{
horizontal = 1;
place = (677, 50);
place = (677, 50);
type = Stem;
},
{
place = (39, 54);
place = (39, 54);
type = Stem;
},
{
place = (-37, 51);
place = (-37, 51);
type = Stem;
},
{
place = (118, 51);
place = (118, 51);
type = Stem;
}
);
layerId = m01;
shapes = (
{
closed = 1;
nodes = (
(149,0,l),
(295,690,l),
(185,690,l),
(39,0,l)
);
},
{
closed = 1;
nodes = (
(117,733,l),
(225,733,l),
(248,839,l),
(140,839,l)
);
},
{
closed = 1;
nodes = (
(272,733,l),
(380,733,l),
(403,839,l),
(295,839,l)
);
}
);
width = 277;
}
);
note = Idieresis;
unicode = 207;
},
{
glyphname = Idotaccent;
lastChange = "2022-11-29 13:28:25 +0000";
layers = (
{
hints = (
{
horizontal = 1;
place = (-56, 21);
target = up;
type = BottomGhost;
},
{
horizontal = 1;
place = (634, -20);
target = down;
type = TopGhost;
},
{
place = (39, 54);
place = (39, 54);
type = Stem;
},
{
horizontal = 1;
place = (533, 71);
place = (533, 71);
type = Stem;
},
{
place = (307, 73);
place = (307, 73);
type = Stem;
}
);
layerId = m01;
shapes = (
{
closed = 1;
nodes = (
(149,0,l),
(295,690,l),
(185,690,l),
(39,0,l)
);
},
{
closed = 1;
nodes = (
(285,734,o),
(315,758,o),
(322,791,cs),
(329,823,o),
(309,847,o),
(276,847,cs),
(243,847,o),
(213,823,o),
(206,791,cs),
(199,758,o),
(219,734,o),
(252,734,cs)
);
}
);
width = 304;
}
);
unicode = 304;
},
{
glyphname = Igrave;
lastChange = "2022-11-29 13:28:25 +0000";
layers = (
{
hints = (
{
horizontal = 1;
place = (-56, 21);
target = up;
type = BottomGhost;
},
{
horizontal = 1;
place = (634, -20);
target = down;
type = TopGhost;
},
{
horizontal = 1;
place = (680, 46);
place = (680, 46);
type = Stem;
},
{
place = (39, 54);
place = (39, 54);
type = Stem;
}
);
layerId = m01;
shapes = (
{
closed = 1;
nodes = (
(289,736,l),
(248,838,l),
(148,838,l),
(223,736,l)
);
},
{
closed = 1;
nodes = (
(149,0,l),
(295,690,l),
(185,690,l),
(39,0,l)
);
}
);
width = 277;
}
);
note = Igrave;
unicode = 204;
},
{
glyphname = Imacron;
lastChange = "2022-11-29 13:28:25 +0000";
layers = (
{
hints = (
{
horizontal = 1;
place = (-56, 21);
target = up;
type = BottomGhost;
},
{
horizontal = 1;
place = (634, -20);
target = down;
type = TopGhost;
},
{
horizontal = 1;
place = (702, 7);
place = (702, 7);
type = Stem;
},
{
place = (39, 54);
place = (39, 54);
type = Stem;
}
);
layerId = m01;
shapes = (
{
closed = 1;
nodes = (
(383,758,l),
(396,821,l),
(141,821,l),
(128,758,l)
);
},
{
closed = 1;
nodes = (
(149,0,l),
(295,690,l),
(185,690,l),
(39,0,l)
);
}
);
width = 277;
}
);
note = Imacron;
unicode = 298;
},
{
glyphname = Iogonek;
lastChange = "2022-11-29 13:28:25 +0000";
layers = (
{
hints = (
{
horizontal = 1;
place = (-279, 10);
place = (-279, 10);
type = Stem;
},
{
horizontal = 1;
place = (-56, 21);
target = up;
type = BottomGhost;
},
{
horizontal = 1;
place = (634, -20);
target = down;
type = TopGhost;
},
{
place = (39, 54);
place = (39, 54);
type = Stem;
},
{
place = (-68, 46);
place = (-68, 46);
type = Stem;
}
);
layerId = m01;
shapes = (
{
closed = 1;
nodes = (
(149,0,l),
(295,690,l),
(185,690,l),
(41,10,l),
(40,10,l),
(-20,-13,o),
(-82,-66,o),
(-98,-138,cs),
(-111,-201,o),
(-76,-223,o),
(-18,-223,cs),
(23,-223,o),
(60,-212,o),
(90,-192,c),
(102,-137,l),
(81,-151,o),
(62,-157,o),
(44,-157,cs),
(17,-157,o),
(3,-144,o),
(11,-107,cs),
(23,-50,o),
(70,-7,o),
(116,0,c)
);
}
);
width = 277;
}
);
note = Iogonek;
unicode = 302;
},
{
glyphname = J;
kernLeft = J;
kernRight = IJ;
lastChange = "2022-11-29 13:28:25 +0000";
layers = (
{
hints = (
{
horizontal = 1;
place = (-70, 28);
place = (-70, 28);
type = Stem;
},
{
horizontal = 1;
place = (634, -20);
target = down;
type = TopGhost;
},
{
place = (-3, 54);
place = (-3, 54);
type = Stem;
},
{
place = (347, 54);
place = (347, 54);
type = Stem;
}
);
layerId = m01;
shapes = (
{
closed = 1;
nodes = (
(603,690,l),
(493,690,l),
(404,268,ls),
(397,236,o),
(392,212,o),
(386,191,cs),
(364,116,o),
(319,70,o),
(246,70,cs),
(172,70,o),
(137,110,o),
(152,204,cs),
(158,242,l),
(48,242,l),
(41,204,ls),
(17,70,o),
(75,-14,o),
(218,-14,cs),
(372,-14,o),
(461,67,o),
(493,184,cs),
(504,223,o),
(509,245,o),
(515,273,cs)
);
}
);
width = 568;
}
);
note = J;
unicode = 74;
},
{
glyphname = K;
kernRight = K;
lastChange = "2022-11-29 13:28:25 +0000";
layers = (
{
hints = (
{
horizontal = 1;
place = (-56, 21);
target = up;
type = BottomGhost;
},
{
horizontal = 1;
place = (634, -20);
target = down;
type = TopGhost;
},
{
place = (39, 54);
place = (39, 54);
type = Stem;
}
);
layerId = m01;
shapes = (
{
closed = 1;
nodes = (
(365,356,l),
(746,690,l),
(616,690,l),
(221,339,l),
(295,690,l),
(185,690,l),
(39,0,l),
(149,0,l),
(196,222,l),
(271,288,l),
(437,0,l),
(584,0,l)
);
}
);
width = 643;
}
);
note = K;
unicode = 75;
},
{
glyphname = Kcommaaccent;
kernRight = K;
lastChange = "2022-11-29 13:28:25 +0000";
layers = (
{
hints = (
{
horizontal = 1;
place = (-256, 96);
place = (-256, 96);
type = Stem;
},
{
horizontal = 1;
place = (-56, 21);
target = up;
type = BottomGhost;
},
{
horizontal = 1;
place = (634, -20);
target = down;
type = TopGhost;
},
{
place = (39, 54);
place = (39, 54);
type = Stem;
}
);
layerId = m01;
shapes = (
{
closed = 1;
nodes = (
(365,356,l),
(746,690,l),
(616,690,l),
(221,339,l),
(295,690,l),
(185,690,l),
(39,0,l),
(149,0,l),
(196,222,l),
(271,288,l),
(437,0,l),
(584,0,l)
);
},
{
closed = 1;
nodes = (
(246,-48,l),
(154,-200,l),
(224,-200,l),
(325,-59,l),
(327,-48,l)
);
}
);
width = 643;
}
);
note = Kcommaaccent;
unicode = 310;
},
{
glyphname = L;
kernRight = L;
lastChange = "2022-11-29 13:28:25 +0000";
layers = (
{
hints = (
{
horizontal = 1;
place = (-56, 35);
place = (-56, 35);
type = Stem;
},
{
horizontal = 1;
place = (634, -20);
target = down;
type = TopGhost;
},
{
place = (39, 54);
place = (39, 54);
type = Stem;
}
);
layerId = m01;
shapes = (
{
closed = 1;
nodes = (
(535,91,l),
(168,91,l),
(295,690,l),
(185,690,l),
(39,0,l),
(516,0,l)
);
}
);
width = 588;
}
);
note = L;
unicode = 76;
},
{
glyphname = Lacute;
kernRight = L;
lastChange = "2022-11-29 13:28:25 +0000";
layers = (
{
hints = (
{
horizontal = 1;
place = (-56, 35);
place = (-56, 35);
type = Stem;
},
{
horizontal = 1;
place = (634, -20);
target = down;
type = TopGhost;
},
{
horizontal = 1;
place = (680, 46);
place = (680, 46);
type = Stem;
},
{
place = (39, 54);
place = (39, 54);
type = Stem;
}
);
layerId = m01;
shapes = (
{
closed = 1;
nodes = (
(278,736,l),
(397,838,l),
(297,838,l),
(212,736,l)
);
},
{
closed = 1;
nodes = (
(535,91,l),
(168,91,l),
(295,690,l),
(185,690,l),
(39,0,l),
(516,0,l)
);
}
);
width = 588;
}
);
note = Lacute;
unicode = 313;
},
{
glyphname = Lcaron;
kernRight = L;
lastChange = "2022-11-29 13:28:25 +0000";
layers = (
{
hints = (
{
horizontal = 1;
place = (-56, 35);
place = (-56, 35);
type = Stem;
},
{
horizontal = 1;
place = (634, -20);
target = down;
type = TopGhost;
},
{
place = (39, 54);
place = (39, 54);
type = Stem;
}
);
layerId = m01;
shapes = (
{
closed = 1;
nodes = (
(535,91,l),
(168,91,l),
(295,690,l),
(185,690,l),
(39,0,l),
(516,0,l)
);
}
);
width = 588;
}
);
note = Lcaron;
unicode = 317;
},
{
glyphname = Lcommaaccent;
kernRight = L;
lastChange = "2022-11-29 13:28:25 +0000";
layers = (
{
hints = (
{
horizontal = 1;
place = (-256, 96);
place = (-256, 96);
type = Stem;
},
{
horizontal = 1;
place = (-56, 35);
place = (-56, 35);
type = Stem;
},
{
horizontal = 1;
place = (634, -20);
target = down;
type = TopGhost;
},
{
place = (39, 54);
place = (39, 54);
type = Stem;
}
);
layerId = m01;
shapes = (
{
closed = 1;
nodes = (
(535,91,l),
(168,91,l),
(295,690,l),
(185,690,l),
(39,0,l),
(516,0,l)
);
},
{
closed = 1;
nodes = (
(236,-48,l),
(144,-200,l),
(214,-200,l),
(315,-59,l),
(317,-48,l)
);
}
);
width = 588;
}
);
note = Lcommaaccent;
unicode = 315;
},
{
glyphname = Ldot;
kernRight = L;
lastChange = "2022-11-29 13:28:25 +0000";
layers = (
{
hints = (
{
horizontal = 1;
place = (-56, 35);
place = (-56, 35);
type = Stem;
},
{
horizontal = 1;
place = (278, 76);
place = (278, 76);
type = Stem;
},
{
horizontal = 1;
place = (634, -20);
target = down;
type = TopGhost;
},
{
place = (39, 54);
place = (39, 54);
type = Stem;
},
{
place = (284, 77);
place = (284, 77);
type = Stem;
}
);
layerId = m01;
shapes = (
{
closed = 1;
nodes = (
(535,91,l),
(168,91,l),
(295,690,l),
(185,690,l),
(39,0,l),
(516,0,l)
);
},
{
closed = 1;
nodes = (
(459,334,o),
(494,363,o),
(502,400,cs),
(510,438,o),
(487,466,o),
(450,466,cs),
(412,466,o),
(377,438,o),
(369,400,cs),
(361,363,o),
(384,334,o),
(422,334,cs)
);
}
);
width = 588;
}
);
note = Ldot;
unicode = 319;
},
{
glyphname = Lslash;
kernRight = L;
lastChange = "2022-11-29 13:28:25 +0000";
layers = (
{
hints = (
{
horizontal = 1;
place = (-56, 35);
place = (-56, 35);
type = Stem;
},
{
horizontal = 1;
place = (634, -20);
target = down;
type = TopGhost;
},
{
place = (66, 53);
place = (66, 53);
type = Stem;
}
);
layerId = m01;
shapes = (
{
closed = 1;
nodes = (
(561,91,l),
(194,91,l),
(249,350,l),
(379,417,l),
(396,495,l),
(266,428,l),
(321,690,l),
(212,690,l),
(143,365,l),
(26,305,l),
(9,227,l),
(127,287,l),
(66,0,l),
(542,0,l)
);
}
);
width = 615;
}
);
note = Lslash;
unicode = 321;
},
{
glyphname = M;
lastChange = "2022-11-29 13:28:25 +0000";
layers = (
{
hints = (
{
horizontal = 1;
place = (-56, 21);
target = up;
type = BottomGhost;
},
{
horizontal = 1;
place = (634, -20);
target = down;
type = TopGhost;
},
{
place = (39, 54);
place = (39, 54);
type = Stem;
},
{
place = (643, 53);
place = (643, 53);
type = Stem;
},
{
horizontal = 1;
place = (-56, 42);
place = (-56, 42);
type = Stem;
},
{
horizontal = 1;
place = (529, 49);
place = (529, 49);
type = Stem;
}
);
layerId = m01;
shapes = (
{
closed = 1;
nodes = (
(898,690,l),
(726,690,l),
(419,98,l),
(362,690,l),
(185,690,l),
(39,0,l),
(149,0,l),
(221,339,ls),
(238,418,o),
(257,511,o),
(271,585,c),
(275,512,o),
(284,418,o),
(292,341,cs),
(332,0,l),
(459,0,l),
(642,340,ls),
(685,418,o),
(734,513,o),
(769,586,c),
(752,513,o),
(732,418,o),
(715,339,cs),
(643,0,l),
(752,0,l)
);
}
);
width = 880;
}
);
note = M;
unicode = 77;
},
{
glyphname = N;
lastChange = "2022-11-29 13:28:25 +0000";
layers = (
{
hints = (
{
horizontal = 1;
place = (-56, 21);
target = up;
type = BottomGhost;
},
{
horizontal = 1;
place = (634, -20);
target = down;
type = TopGhost;
},
{
place = (39, 54);
place = (39, 54);
type = Stem;
},
{
place = (500, 52);
place = (500, 52);
type = Stem;
},
{
horizontal = 1;
place = (-56, 61);
place = (-56, 61);
type = Stem;
},
{
horizontal = 1;
place = (513, 65);
place = (513, 65);
type = Stem;
}
);
layerId = m01;
shapes = (
{
closed = 1;
nodes = (
(609,0,l),
(754,690,l),
(646,690,l),
(576,358,ls),
(561,287,o),
(542,195,o),
(528,117,c),
(340,690,l),
(185,690,l),
(39,0,l),
(149,0,l),
(219,330,ls),
(234,401,o),
(252,490,o),
(266,569,c),
(451,0,l)
);
}
);
width = 737;
}
);
note = N;
unicode = 78;
},
{
glyphname = Nacute;
lastChange = "2022-11-29 13:28:25 +0000";
layers = (
{
hints = (
{
horizontal = 1;
place = (-56, 21);
target = up;
type = BottomGhost;
},
{
horizontal = 1;
place = (634, -20);
target = down;
type = TopGhost;
},
{
horizontal = 1;
place = (680, 46);
place = (680, 46);
type = Stem;
},
{
place = (39, 54);
place = (39, 54);
type = Stem;
},
{
place = (500, 52);
place = (500, 52);
type = Stem;
},
{
horizontal = 1;
place = (-56, 61);
place = (-56, 61);
type = Stem;
},
{
horizontal = 1;
place = (513, 65);
place = (513, 65);
type = Stem;
}
);
layerId = m01;
shapes = (
{
closed = 1;
nodes = (
(507,736,l),
(626,838,l),
(526,838,l),
(441,736,l)
);
},
{
closed = 1;
nodes = (
(609,0,l),
(754,690,l),
(646,690,l),
(576,358,ls),
(561,287,o),
(542,195,o),
(528,117,c),
(340,690,l),
(185,690,l),
(39,0,l),
(149,0,l),
(219,330,ls),
(234,401,o),
(252,490,o),
(266,569,c),
(451,0,l)
);
}
);
width = 737;
}
);
note = Nacute;
unicode = 323;
},
{
glyphname = Ncaron;
lastChange = "2022-11-29 13:28:25 +0000";
layers = (
{
hints = (
{
horizontal = 1;
place = (-56, 21);
target = up;
type = BottomGhost;
},
{
horizontal = 1;
place = (634, -20);
target = down;
type = TopGhost;
},
{
horizontal = 1;
place = (680, 46);
place = (680, 46);
type = Stem;
},
{
place = (39, 54);
place = (39, 54);
type = Stem;
},
{
place = (500, 52);
place = (500, 52);
type = Stem;
},
{
horizontal = 1;
place = (-56, 61);
place = (-56, 61);
type = Stem;
},
{
horizontal = 1;
place = (513, 65);
place = (513, 65);
type = Stem;
}
);
layerId = m01;
shapes = (
{
closed = 1;
nodes = (
(439,736,l),
(520,736,l),
(608,838,l),
(533,838,l),
(489,777,l),
(471,838,l),
(395,838,l)
);
},
{
closed = 1;
nodes = (
(451,0,l),
(609,0,l),
(754,690,l),
(646,690,l),
(576,358,ls),
(561,287,o),
(542,195,o),
(528,117,c),
(340,690,l),
(185,690,l),
(39,0,l),
(149,0,l),
(219,330,ls),
(234,401,o),
(252,490,o),
(266,569,c)
);
}
);
width = 737;
}
);
note = Ncaron;
unicode = 327;
},
{
glyphname = Ncommaaccent;
lastChange = "2022-11-29 13:28:25 +0000";
layers = (
{
hints = (
{
horizontal = 1;
place = (-256, 96);
place = (-256, 96);
type = Stem;
},
{
horizontal = 1;
place = (-56, 21);
target = up;
type = BottomGhost;
},
{
horizontal = 1;
place = (634, -20);
target = down;
type = TopGhost;
},
{
place = (39, 54);
place = (39, 54);
type = Stem;
},
{
place = (500, 52);
place = (500, 52);
type = Stem;
},
{
horizontal = 1;
place = (-56, 61);
place = (-56, 61);
type = Stem;
},
{
horizontal = 1;
place = (513, 65);
place = (513, 65);
type = Stem;
}
);
layerId = m01;
shapes = (
{
closed = 1;
nodes = (
(609,0,l),
(754,690,l),
(646,690,l),
(576,358,ls),
(561,287,o),
(542,195,o),
(528,117,c),
(340,690,l),
(185,690,l),
(39,0,l),
(149,0,l),
(219,330,ls),
(234,401,o),
(252,490,o),
(266,569,c),
(451,0,l)
);
},
{
closed = 1;
nodes = (
(362,-59,l),
(364,-48,l),
(283,-48,l),
(191,-200,l),
(261,-200,l)
);
}
);
width = 737;
}
);
note = Ncommaaccent;
unicode = 325;
},
{
glyphname = Eng;
lastChange = "2022-11-29 13:28:25 +0000";
layers = (
{
hints = (
{
horizontal = 1;
place = (-279, 29);
place = (-279, 29);
type = Stem;
},
{
horizontal = 1;
place = (-56, 21);
target = up;
type = BottomGhost;
},
{
horizontal = 1;
place = (634, -20);
target = down;
type = TopGhost;
},
{
place = (39, 54);
place = (39, 54);
type = Stem;
},
{
place = (500, 53);
place = (500, 53);
type = Stem;
},
{
horizontal = 1;
place = (507, 71);
place = (507, 71);
type = Stem;
}
);
layerId = m01;
shapes = (
{
closed = 1;
nodes = (
(755,690,l),
(646,690,l),
(581,383,ls),
(566,312,o),
(551,235,o),
(536,157,c),
(340,690,l),
(185,690,l),
(39,0,l),
(149,0,l),
(219,330,ls),
(234,401,o),
(251,484,o),
(264,563,c),
(493,-28,l),
(484,-71,ls),
(475,-113,o),
(453,-136,o),
(397,-138,c),
(379,-223,l),
(489,-223,o),
(557,-194,o),
(585,-106,cs),
(589,-92,o),
(591,-83,o),
(595,-65,cs)
);
}
);
width = 737;
}
);
note = Eng;
unicode = 330;
},
{
glyphname = Ntilde;
lastChange = "2022-11-29 13:28:25 +0000";
layers = (
{
hints = (
{
horizontal = 1;
place = (-56, 21);
target = up;
type = BottomGhost;
},
{
horizontal = 1;
place = (634, -20);
target = down;
type = TopGhost;
},
{
horizontal = 1;
place = (692, 31);
place = (692, 31);
type = Stem;
},
{
place = (39, 54);
place = (39, 54);
type = Stem;
},
{
place = (203, -4);
place = (203, -4);
type = Stem;
},
{
place = (500, 52);
place = (500, 52);
type = Stem;
},
{
horizontal = 1;
place = (688, 31);
place = (688, 31);
type = Stem;
},
{
place = (391, -3);
place = (391, -3);
type = Stem;
},
{
horizontal = 1;
place = (-56, 61);
place = (-56, 61);
type = Stem;
},
{
horizontal = 1;
place = (513, 65);
place = (513, 65);
type = Stem;
}
);
layerId = m01;
shapes = (
{
closed = 1;
nodes = (
(402,835,o),
(375,813,o),
(362,748,c),
(414,748,l),
(417,765,o),
(425,771,o),
(435,771,cs),
(444,771,o),
(454,767,o),
(476,759,cs),
(504,748,o),
(519,744,o),
(540,744,cs),
(580,744,o),
(606,766,o),
(620,831,c),
(567,831,l),
(564,814,o),
(557,808,o),
(546,808,cs),
(538,808,o),
(527,812,o),
(505,820,cs),
(478,831,o),
(463,835,o),
(441,835,cs)
);
},
{
closed = 1;
nodes = (
(609,0,l),
(754,690,l),
(646,690,l),
(576,358,ls),
(561,287,o),
(542,195,o),
(528,117,c),
(340,690,l),
(185,690,l),
(39,0,l),
(149,0,l),
(219,330,ls),
(234,401,o),
(252,490,o),
(266,569,c),
(451,0,l)
);
}
);
width = 737;
}
);
note = Ntilde;
unicode = 209;
},
{
glyphname = O;
kernLeft = C;
kernRight = D;
lastChange = "2022-11-29 13:28:25 +0000";
layers = (
{
hints = (
{
horizontal = 1;
place = (-70, 28);
place = (-70, 28);
type = Stem;
},
{
horizontal = 1;
place = (564, 28);
place = (564, 28);
type = Stem;
},
{
place = (-7, 62);
place = (-7, 62);
type = Stem;
},
{
place = (540, 62);
place = (540, 62);
type = Stem;
}
);
layerId = m01;
shapes = (
{
closed = 1;
nodes = (
(263,704,o),
(111,559,o),
(66,345,cs),
(21,132,o),
(111,-14,o),
(323,-14,cs),
(534,-14,o),
(686,132,o),
(731,345,cs),
(776,559,o),
(686,704,o),
(475,704,cs)
);
},
{
closed = 1;
nodes = (
(206,70,o),
(148,174,o),
(184,345,cs),
(221,517,o),
(322,620,o),
(457,620,cs),
(591,620,o),
(650,517,o),
(613,345,cs),
(577,174,o),
(475,70,o),
(341,70,cs)
);
}
);
width = 750;
}
);
note = O;
unicode = 79;
},
{
glyphname = Oacute;
kernLeft = C;
kernRight = D;
lastChange = "2022-11-29 13:28:25 +0000";
layers = (
{
hints = (
{
horizontal = 1;
place = (-70, 28);
place = (-70, 28);
type = Stem;
},
{
horizontal = 1;
place = (564, 28);
place = (564, 28);
type = Stem;
},
{
horizontal = 1;
place = (680, 46);
place = (680, 46);
type = Stem;
},
{
place = (-7, 62);
place = (-7, 62);
type = Stem;
},
{
place = (540, 62);
place = (540, 62);
type = Stem;
}
);
layerId = m01;
shapes = (
{
closed = 1;
nodes = (
(510,736,l),
(629,838,l),
(529,838,l),
(444,736,l)
);
},
{
closed = 1;
nodes = (
(263,704,o),
(111,559,o),
(66,345,cs),
(21,132,o),
(111,-14,o),
(323,-14,cs),
(534,-14,o),
(686,132,o),
(731,345,cs),
(776,559,o),
(686,704,o),
(475,704,cs)
);
},
{
closed = 1;
nodes = (
(206,70,o),
(148,174,o),
(184,345,cs),
(221,517,o),
(322,620,o),
(457,620,cs),
(591,620,o),
(650,517,o),
(613,345,cs),
(577,174,o),
(475,70,o),
(341,70,cs)
);
}
);
width = 750;
}
);
note = Oacute;
unicode = 211;
},
{
glyphname = Ocircumflex;
kernLeft = C;
kernRight = D;
lastChange = "2022-11-29 13:28:25 +0000";
layers = (
{
hints = (
{
horizontal = 1;
place = (-70, 28);
place = (-70, 28);
type = Stem;
},
{
horizontal = 1;
place = (564, 28);
place = (564, 28);
type = Stem;
},
{
horizontal = 1;
place = (680, 46);
place = (680, 46);
type = Stem;
},
{
place = (-7, 62);
place = (-7, 62);
type = Stem;
},
{
place = (540, 62);
place = (540, 62);
type = Stem;
}
);
layerId = m01;
shapes = (
{
closed = 1;
nodes = (
(451,736,l),
(495,796,l),
(513,736,l),
(589,736,l),
(545,838,l),
(464,838,l),
(376,736,l)
);
},
{
closed = 1;
nodes = (
(263,704,o),
(111,559,o),
(66,345,cs),
(21,132,o),
(111,-14,o),
(323,-14,cs),
(534,-14,o),
(686,132,o),
(731,345,cs),
(776,559,o),
(686,704,o),
(475,704,cs)
);
},
{
closed = 1;
nodes = (
(206,70,o),
(148,174,o),
(184,345,cs),
(221,517,o),
(322,620,o),
(457,620,cs),
(591,620,o),
(650,517,o),
(613,345,cs),
(577,174,o),
(475,70,o),
(341,70,cs)
);
}
);
width = 750;
}
);
note = Ocircumflex;
unicode = 212;
},
{
glyphname = Odieresis;
kernLeft = C;
kernRight = D;
lastChange = "2022-11-29 13:28:25 +0000";
layers = (
{
hints = (
{
horizontal = 1;
place = (-70, 28);
place = (-70, 28);
type = Stem;
},
{
horizontal = 1;
place = (564, 28);
place = (564, 28);
type = Stem;
},
{
horizontal = 1;
place = (677, 50);
place = (677, 50);
type = Stem;
},
{
place = (-7, 62);
place = (-7, 62);
type = Stem;
},
{
place = (195, 51);
place = (195, 51);
type = Stem;
},
{
place = (350, 51);
place = (350, 51);
type = Stem;
},
{
place = (540, 62);
place = (540, 62);
type = Stem;
}
);
layerId = m01;
shapes = (
{
closed = 1;
nodes = (
(263,704,o),
(111,559,o),
(66,345,cs),
(21,132,o),
(111,-14,o),
(323,-14,cs),
(534,-14,o),
(686,132,o),
(731,345,cs),
(776,559,o),
(686,704,o),
(475,704,cs)
);
},
{
closed = 1;
nodes = (
(206,70,o),
(148,174,o),
(184,345,cs),
(221,517,o),
(322,620,o),
(457,620,cs),
(591,620,o),
(650,517,o),
(613,345,cs),
(577,174,o),
(475,70,o),
(341,70,cs)
);
},
{
closed = 1;
nodes = (
(353,733,l),
(461,733,l),
(484,839,l),
(376,839,l)
);
},
{
closed = 1;
nodes = (
(508,733,l),
(616,733,l),
(639,839,l),
(531,839,l)
);
}
);
width = 750;
}
);
note = Odieresis;
unicode = 214;
},
{
glyphname = Ograve;
kernLeft = C;
kernRight = D;
lastChange = "2022-11-29 13:28:25 +0000";
layers = (
{
hints = (
{
horizontal = 1;
place = (-70, 28);
place = (-70, 28);
type = Stem;
},
{
horizontal = 1;
place = (564, 28);
place = (564, 28);
type = Stem;
},
{
horizontal = 1;
place = (680, 46);
place = (680, 46);
type = Stem;
},
{
place = (-7, 62);
place = (-7, 62);
type = Stem;
},
{
place = (540, 62);
place = (540, 62);
type = Stem;
}
);
layerId = m01;
shapes = (
{
closed = 1;
nodes = (
(455,736,l),
(521,736,l),
(480,838,l),
(380,838,l)
);
},
{
closed = 1;
nodes = (
(263,704,o),
(111,559,o),
(66,345,cs),
(21,132,o),
(111,-14,o),
(323,-14,cs),
(534,-14,o),
(686,132,o),
(731,345,cs),
(776,559,o),
(686,704,o),
(475,704,cs)
);
},
{
closed = 1;
nodes = (
(206,70,o),
(148,174,o),
(184,345,cs),
(221,517,o),
(322,620,o),
(457,620,cs),
(591,620,o),
(650,517,o),
(613,345,cs),
(577,174,o),
(475,70,o),
(341,70,cs)
);
}
);
width = 750;
}
);
note = Ograve;
unicode = 210;
},
{
glyphname = Ohungarumlaut;
kernLeft = C;
kernRight = D;
lastChange = "2022-11-29 13:28:25 +0000";
layers = (
{
hints = (
{
horizontal = 1;
place = (-70, 28);
place = (-70, 28);
type = Stem;
},
{
horizontal = 1;
place = (564, 28);
place = (564, 28);
type = Stem;
},
{
horizontal = 1;
place = (680, 46);
place = (680, 46);
type = Stem;
},
{
place = (-7, 62);
place = (-7, 62);
type = Stem;
},
{
place = (540, 62);
place = (540, 62);
type = Stem;
}
);
layerId = m01;
shapes = (
{
closed = 1;
nodes = (
(426,736,l),
(545,838,l),
(445,838,l),
(360,736,l)
);
},
{
closed = 1;
nodes = (
(492,736,l),
(558,736,l),
(677,838,l),
(577,838,l)
);
},
{
closed = 1;
nodes = (
(263,704,o),
(111,559,o),
(66,345,cs),
(21,132,o),
(111,-14,o),
(323,-14,cs),
(534,-14,o),
(686,132,o),
(731,345,cs),
(776,559,o),
(686,704,o),
(475,704,cs)
);
},
{
closed = 1;
nodes = (
(206,70,o),
(148,174,o),
(184,345,cs),
(221,517,o),
(322,620,o),
(457,620,cs),
(591,620,o),
(650,517,o),
(613,345,cs),
(577,174,o),
(475,70,o),
(341,70,cs)
);
}
);
width = 750;
}
);
note = Ohungarumlaut;
unicode = 336;
},
{
glyphname = Omacron;
kernLeft = C;
kernRight = D;
lastChange = "2022-11-29 13:28:25 +0000";
layers = (
{
hints = (
{
horizontal = 1;
place = (-70, 28);
place = (-70, 28);
type = Stem;
},
{
horizontal = 1;
place = (564, 28);
place = (564, 28);
type = Stem;
},
{
horizontal = 1;
place = (702, 7);
place = (702, 7);
type = Stem;
},
{
place = (-7, 62);
place = (-7, 62);
type = Stem;
},
{
place = (199, 199);
place = (199, 199);
type = Stem;
},
{
place = (540, 62);
place = (540, 62);
type = Stem;
}
);
layerId = m01;
shapes = (
{
closed = 1;
nodes = (
(615,758,l),
(628,821,l),
(373,821,l),
(360,758,l)
);
},
{
closed = 1;
nodes = (
(263,704,o),
(111,559,o),
(66,345,cs),
(21,132,o),
(111,-14,o),
(323,-14,cs),
(534,-14,o),
(686,132,o),
(731,345,cs),
(776,559,o),
(686,704,o),
(475,704,cs)
);
},
{
closed = 1;
nodes = (
(206,70,o),
(148,174,o),
(184,345,cs),
(221,517,o),
(322,620,o),
(457,620,cs),
(591,620,o),
(650,517,o),
(613,345,cs),
(577,174,o),
(475,70,o),
(341,70,cs)
);
}
);
width = 750;
}
);
note = Omacron;
unicode = 332;
},
{
glyphname = Oslash;
kernLeft = C;
kernRight = D;
lastChange = "2022-11-29 13:28:25 +0000";
layers = (
{
hints = (
{
horizontal = 1;
place = (-70, 28);
place = (-70, 28);
type = Stem;
},
{
horizontal = 1;
place = (564, 28);
place = (564, 28);
type = Stem;
},
{
place = (-4, 62);
place = (-4, 62);
type = Stem;
},
{
place = (544, 62);
place = (544, 62);
type = Stem;
}
);
layerId = m01;
shapes = (
{
closed = 1;
nodes = (
(804,637,l),
(766,685,l),
(690,622,l),
(645,674,o),
(574,704,o),
(478,704,cs),
(267,704,o),
(114,559,o),
(69,345,cs),
(50,257,o),
(55,180,o),
(81,120,c),
(0,53,l),
(38,5,l),
(114,68,l),
(159,16,o),
(231,-14,o),
(326,-14,cs),
(537,-14,o),
(690,132,o),
(735,345,cs),
(754,434,o),
(749,510,o),
(723,570,c)
);
},
{
closed = 1;
nodes = (
(224,517,o),
(325,620,o),
(460,620,cs),
(526,620,o),
(574,595,o),
(601,549,c),
(181,202,l),
(173,242,o),
(175,290,o),
(187,345,cs)
);
},
{
closed = 1;
nodes = (
(581,174,o),
(479,70,o),
(344,70,cs),
(278,70,o),
(230,95,o),
(203,141,c),
(623,488,l),
(631,448,o),
(629,400,o),
(617,345,cs)
);
}
);
width = 756;
}
);
note = Oslash;
unicode = 216;
},
{
glyphname = Otilde;
kernLeft = C;
kernRight = D;
lastChange = "2022-11-29 13:28:25 +0000";
layers = (
{
hints = (
{
horizontal = 1;
place = (-70, 28);
place = (-70, 28);
type = Stem;
},
{
horizontal = 1;
place = (564, 28);
place = (564, 28);
type = Stem;
},
{
horizontal = 1;
place = (692, 31);
place = (692, 31);
type = Stem;
},
{
place = (-7, 62);
place = (-7, 62);
type = Stem;
},
{
place = (206, -4);
place = (206, -4);
type = Stem;
},
{
place = (540, 62);
place = (540, 62);
type = Stem;
},
{
horizontal = 1;
place = (688, 31);
place = (688, 31);
type = Stem;
},
{
place = (394, -3);
place = (394, -3);
type = Stem;
}
);
layerId = m01;
shapes = (
{
closed = 1;
nodes = (
(447,771,o),
(457,767,o),
(479,759,cs),
(507,748,o),
(522,744,o),
(543,744,cs),
(583,744,o),
(609,766,o),
(623,831,c),
(570,831,l),
(567,814,o),
(560,808,o),
(549,808,cs),
(541,808,o),
(530,812,o),
(508,820,cs),
(481,831,o),
(466,835,o),
(444,835,cs),
(405,835,o),
(378,813,o),
(365,748,c),
(417,748,l),
(420,765,o),
(428,771,o),
(438,771,cs)
);
},
{
closed = 1;
nodes = (
(263,704,o),
(111,559,o),
(66,345,cs),
(21,132,o),
(111,-14,o),
(323,-14,cs),
(534,-14,o),
(686,132,o),
(731,345,cs),
(776,559,o),
(686,704,o),
(475,704,cs)
);
},
{
closed = 1;
nodes = (
(206,70,o),
(148,174,o),
(184,345,cs),
(221,517,o),
(322,620,o),
(457,620,cs),
(591,620,o),
(650,517,o),
(613,345,cs),
(577,174,o),
(475,70,o),
(341,70,cs)
);
}
);
width = 750;
}
);
note = Otilde;
unicode = 213;
},
{
glyphname = OE;
kernLeft = C;
lastChange = "2022-11-29 13:28:25 +0000";
layers = (
{
hints = (
{
horizontal = 1;
place = (-56, 32);
place = (-56, 32);
type = Stem;
},
{
horizontal = 1;
place = (246, 31);
place = (246, 31);
type = Stem;
},
{
horizontal = 1;
place = (547, 31);
place = (547, 31);
type = Stem;
},
{
place = (-7, 62);
place = (-7, 62);
type = Stem;
},
{
place = (540, 54);
place = (540, 54);
type = Stem;
},
{
horizontal = 1;
place = (-70, 28);
place = (-70, 28);
type = Stem;
},
{
horizontal = 1;
place = (564, 28);
place = (564, 28);
type = Stem;
}
);
layerId = m01;
shapes = (
{
closed = 1;
nodes = (
(1035,88,l),
(668,88,l),
(714,302,l),
(1043,302,l),
(1061,389,l),
(732,389,l),
(778,603,l),
(1135,603,l),
(1153,690,l),
(686,690,l),
(658,559,l),
(645,628,l),
(605,684,o),
(555,704,o),
(457,704,cs),
(263,704,o),
(110,551,o),
(66,345,cs),
(22,140,o),
(111,-14,o),
(305,-14,cs),
(394,-14,o),
(461,6,o),
(524,60,c),
(567,129,l),
(540,0,l),
(1017,0,l)
);
},
{
closed = 1;
nodes = (
(206,70,o),
(149,180,o),
(184,345,cs),
(220,512,o),
(322,620,o),
(457,620,cs),
(591,620,o),
(649,512,o),
(613,345,cs),
(578,180,o),
(475,70,o),
(341,70,cs)
);
}
);
width = 1101;
}
);
note = OE;
unicode = 338;
},
{
glyphname = P;
kernRight = P;
lastChange = "2022-11-29 13:28:25 +0000";
layers = (
{
hints = (
{
horizontal = 1;
place = (-56, 21);
target = up;
type = BottomGhost;
},
{
horizontal = 1;
place = (216, 33);
place = (216, 33);
type = Stem;
},
{
horizontal = 1;
place = (545, 33);
place = (545, 33);
type = Stem;
},
{
place = (39, 54);
place = (39, 54);
type = Stem;
},
{
place = (425, 60);
place = (425, 60);
type = Stem;
}
);
layerId = m01;
shapes = (
{
closed = 1;
nodes = (
(473,690,o),
(448,690,o),
(411,690,cs),
(185,690,l),
(39,0,l),
(149,0,l),
(206,272,l),
(322,272,ls),
(359,272,o),
(384,272,o),
(417,276,cs),
(520,289,o),
(617,359,o),
(643,481,cs),
(669,603,o),
(610,672,o),
(504,686,cs)
);
},
{
closed = 1;
nodes = (
(397,362,o),
(372,361,o),
(344,361,cs),
(225,361,l),
(276,601,l),
(395,601,ls),
(423,601,o),
(447,600,o),
(465,597,cs),
(511,588,o),
(542,554,o),
(527,481,cs),
(511,408,o),
(465,374,o),
(415,365,cs)
);
}
);
width = 610;
}
);
note = P;
unicode = 80;
},
{
glyphname = Thorn;
lastChange = "2022-11-29 13:28:25 +0000";
layers = (
{
hints = (
{
horizontal = 1;
place = (-56, 21);
target = up;
type = BottomGhost;
},
{
horizontal = 1;
place = (146, 33);
place = (146, 33);
type = Stem;
},
{
horizontal = 1;
place = (457, 33);
place = (457, 33);
type = Stem;
},
{
place = (39, 54);
place = (39, 54);
type = Stem;
},
{
place = (425, 60);
place = (425, 60);
type = Stem;
},
{
horizontal = 1;
place = (457, 121);
place = (457, 121);
type = Stem;
}
);
layerId = m01;
shapes = (
{
closed = 1;
nodes = (
(461,602,o),
(436,602,o),
(399,602,cs),
(277,602,l),
(295,690,l),
(185,690,l),
(39,0,l),
(149,0,l),
(192,202,l),
(314,202,ls),
(351,202,o),
(376,202,o),
(408,206,cs),
(511,219,o),
(601,285,o),
(626,403,cs),
(651,521,o),
(589,585,o),
(492,598,cs)
);
},
{
closed = 1;
nodes = (
(380,292,o),
(356,291,o),
(328,291,cs),
(211,291,l),
(258,513,l),
(375,513,ls),
(403,513,o),
(427,512,o),
(444,509,cs),
(490,500,o),
(525,470,o),
(510,402,cs),
(495,333,o),
(448,304,o),
(398,295,cs)
);
}
);
width = 636;
}
);
note = Thorn;
unicode = 222;
},
{
glyphname = Q;
kernLeft = C;
lastChange = "2022-11-29 13:28:25 +0000";
layers = (
{
hints = (
{
horizontal = 1;
place = (-70, 28);
place = (-70, 28);
type = Stem;
},
{
horizontal = 1;
place = (564, 28);
place = (564, 28);
type = Stem;
},
{
place = (-7, 62);
place = (-7, 62);
type = Stem;
},
{
place = (540, 62);
place = (540, 62);
type = Stem;
},
{
horizontal = 1;
place = (-54, 12);
place = (-54, 12);
type = Stem;
}
);
layerId = m01;
shapes = (
{
closed = 1;
nodes = (
(647,144,o),
(708,238,o),
(731,345,cs),
(776,559,o),
(686,704,o),
(475,704,cs),
(263,704,o),
(111,559,o),
(66,345,cs),
(21,132,o),
(111,-14,o),
(323,-14,cs),
(349,-14,o),
(372,-12,o),
(395,-7,cs),
(424,-1,o),
(442,2,o),
(470,2,cs),
(508,2,o),
(537,-7,o),
(595,-51,c),
(669,22,l),
(635,57,o),
(600,79,o),
(557,87,c)
);
},
{
closed = 1;
nodes = (
(221,517,o),
(322,620,o),
(457,620,cs),
(591,620,o),
(650,517,o),
(613,345,cs),
(577,174,o),
(475,70,o),
(341,70,cs),
(206,70,o),
(148,174,o),
(184,345,cs)
);
}
);
width = 748;
}
);
note = Q;
unicode = 81;
},
{
glyphname = R;
lastChange = "2022-11-29 13:28:25 +0000";
layers = (
{
hints = (
{
horizontal = 1;
place = (-56, 21);
target = up;
type = BottomGhost;
},
{
horizontal = 1;
place = (232, 29);
place = (232, 29);
type = Stem;
},
{
horizontal = 1;
place = (547, 31);
place = (547, 31);
type = Stem;
},
{
place = (39, 54);
place = (39, 54);
type = Stem;
},
{
place = (431, 60);
place = (431, 60);
type = Stem;
}
);
layerId = m01;
shapes = (
{
closed = 1;
nodes = (
(560,250,o),
(547,310,o),
(490,337,c),
(568,359,o),
(634,412,o),
(653,502,cs),
(678,620,o),
(615,673,o),
(517,686,cs),
(485,690,o),
(460,690,o),
(423,690,cs),
(185,690,l),
(39,0,l),
(149,0,l),
(210,288,l),
(317,288,ls),
(334,288,o),
(351,288,o),
(368,287,cs),
(430,283,o),
(447,237,o),
(441,164,cs),
(432,88,o),
(432,45,o),
(441,0,c),
(562,0,l),
(542,38,o),
(541,91,o),
(552,178,cs)
);
},
{
closed = 1;
nodes = (
(228,373,l),
(277,603,l),
(399,603,ls),
(427,603,o),
(445,602,o),
(462,599,cs),
(519,591,o),
(550,561,o),
(534,488,cs),
(519,415,o),
(467,381,o),
(405,375,cs),
(388,373,o),
(371,373,o),
(343,373,cs)
);
}
);
width = 635;
}
);
note = R;
unicode = 82;
},
{
glyphname = Racute;
lastChange = "2022-11-29 13:28:25 +0000";
layers = (
{
hints = (
{
horizontal = 1;
place = (-56, 21);
target = up;
type = BottomGhost;
},
{
horizontal = 1;
place = (232, 29);
place = (232, 29);
type = Stem;
},
{
horizontal = 1;
place = (547, 31);
place = (547, 31);
type = Stem;
},
{
horizontal = 1;
place = (680, 46);
place = (680, 46);
type = Stem;
},
{
place = (39, 54);
place = (39, 54);
type = Stem;
},
{
place = (431, 60);
place = (431, 60);
type = Stem;
}
);
layerId = m01;
shapes = (
{
closed = 1;
nodes = (
(460,736,l),
(579,838,l),
(479,838,l),
(394,736,l)
);
},
{
closed = 1;
nodes = (
(560,250,o),
(547,310,o),
(490,337,c),
(568,359,o),
(634,412,o),
(653,502,cs),
(678,620,o),
(615,673,o),
(517,686,cs),
(485,690,o),
(460,690,o),
(423,690,cs),
(185,690,l),
(39,0,l),
(149,0,l),
(210,288,l),
(317,288,ls),
(334,288,o),
(351,288,o),
(368,287,cs),
(430,283,o),
(447,237,o),
(441,164,cs),
(432,88,o),
(432,45,o),
(441,0,c),
(562,0,l),
(542,38,o),
(541,91,o),
(552,178,cs)
);
},
{
closed = 1;
nodes = (
(228,373,l),
(277,603,l),
(399,603,ls),
(427,603,o),
(445,602,o),
(462,599,cs),
(519,591,o),
(550,561,o),
(534,488,cs),
(519,415,o),
(467,381,o),
(405,375,cs),
(388,373,o),
(371,373,o),
(343,373,cs)
);
}
);
width = 635;
}
);
note = Racute;
unicode = 340;
},
{
glyphname = Rcaron;
lastChange = "2022-11-29 13:28:25 +0000";
layers = (
{
hints = (
{
horizontal = 1;
place = (-56, 21);
target = up;
type = BottomGhost;
},
{
horizontal = 1;
place = (232, 29);
place = (232, 29);
type = Stem;
},
{
horizontal = 1;
place = (547, 31);
place = (547, 31);
type = Stem;
},
{
horizontal = 1;
place = (680, 46);
place = (680, 46);
type = Stem;
},
{
place = (39, 54);
place = (39, 54);
type = Stem;
},
{
place = (431, 60);
place = (431, 60);
type = Stem;
}
);
layerId = m01;
shapes = (
{
closed = 1;
nodes = (
(392,736,l),
(473,736,l),
(561,838,l),
(486,838,l),
(442,777,l),
(424,838,l),
(348,838,l)
);
},
{
closed = 1;
nodes = (
(560,250,o),
(547,310,o),
(490,337,c),
(568,359,o),
(634,412,o),
(653,502,cs),
(678,620,o),
(615,673,o),
(517,686,cs),
(485,690,o),
(460,690,o),
(423,690,cs),
(185,690,l),
(39,0,l),
(149,0,l),
(210,288,l),
(317,288,ls),
(334,288,o),
(351,288,o),
(368,287,cs),
(430,283,o),
(447,237,o),
(441,164,cs),
(432,88,o),
(432,45,o),
(441,0,c),
(562,0,l),
(542,38,o),
(541,91,o),
(552,178,cs)
);
},
{
closed = 1;
nodes = (
(228,373,l),
(277,603,l),
(399,603,ls),
(427,603,o),
(445,602,o),
(462,599,cs),
(519,591,o),
(550,561,o),
(534,488,cs),
(519,415,o),
(467,381,o),
(405,375,cs),
(388,373,o),
(371,373,o),
(343,373,cs)
);
}
);
width = 635;
}
);
note = Rcaron;
unicode = 344;
},
{
glyphname = Rcommaaccent;
lastChange = "2022-11-29 13:28:25 +0000";
layers = (
{
hints = (
{
horizontal = 1;
place = (-256, 96);
place = (-256, 96);
type = Stem;
},
{
horizontal = 1;
place = (-56, 21);
target = up;
type = BottomGhost;
},
{
horizontal = 1;
place = (232, 29);
place = (232, 29);
type = Stem;
},
{
horizontal = 1;
place = (547, 31);
place = (547, 31);
type = Stem;
},
{
place = (39, 54);
place = (39, 54);
type = Stem;
},
{
place = (431, 60);
place = (431, 60);
type = Stem;
}
);
layerId = m01;
shapes = (
{
closed = 1;
nodes = (
(560,250,o),
(547,310,o),
(490,337,c),
(568,359,o),
(634,412,o),
(653,502,cs),
(678,620,o),
(615,673,o),
(517,686,cs),
(485,690,o),
(460,690,o),
(423,690,cs),
(185,690,l),
(39,0,l),
(149,0,l),
(210,288,l),
(317,288,ls),
(334,288,o),
(351,288,o),
(368,287,cs),
(430,283,o),
(447,237,o),
(441,164,cs),
(432,88,o),
(432,45,o),
(441,0,c),
(562,0,l),
(542,38,o),
(541,91,o),
(552,178,cs)
);
},
{
closed = 1;
nodes = (
(228,373,l),
(277,603,l),
(399,603,ls),
(427,603,o),
(445,602,o),
(462,599,cs),
(519,591,o),
(550,561,o),
(534,488,cs),
(519,415,o),
(467,381,o),
(405,375,cs),
(388,373,o),
(371,373,o),
(343,373,cs)
);
},
{
closed = 1;
nodes = (
(230,-48,l),
(138,-200,l),
(208,-200,l),
(309,-59,l),
(311,-48,l)
);
}
);
width = 635;
}
);
note = Rcommaaccent;
unicode = 342;
},
{
glyphname = S;
kernLeft = S;
kernRight = S;
lastChange = "2022-11-29 13:28:25 +0000";
layers = (
{
hints = (
{
horizontal = 1;
place = (-70, 28);
place = (-70, 28);
type = Stem;
},
{
horizontal = 1;
place = (564, 28);
place = (564, 28);
type = Stem;
},
{
place = (22, 60);
place = (22, 60);
type = Stem;
},
{
place = (394, 60);
place = (394, 60);
type = Stem;
}
);
layerId = m01;
shapes = (
{
closed = 1;
nodes = (
(280,704,o),
(155,629,o),
(129,507,cs),
(104,387,o),
(181,338,o),
(305,307,cs),
(411,281,o),
(446,244,o),
(430,172,cs),
(417,109,o),
(352,70,o),
(280,70,cs),
(199,70,o),
(148,115,o),
(148,200,c),
(34,200,l),
(19,61,o),
(104,-14,o),
(262,-14,cs),
(396,-14,o),
(523,62,o),
(549,187,cs),
(574,302,o),
(516,367,o),
(371,402,cs),
(269,427,o),
(235,458,o),
(249,525,cs),
(263,590,o),
(320,620,o),
(385,620,cs),
(465,620,o),
(501,573,o),
(493,494,c),
(607,494,l),
(618,614,o),
(562,704,o),
(409,704,cs)
);
}
);
width = 595;
}
);
note = S;
unicode = 83;
},
{
glyphname = Sacute;
kernLeft = S;
kernRight = S;
lastChange = "2022-11-29 13:28:25 +0000";
layers = (
{
hints = (
{
horizontal = 1;
place = (-70, 28);
place = (-70, 28);
type = Stem;
},
{
horizontal = 1;
place = (564, 28);
place = (564, 28);
type = Stem;
},
{
horizontal = 1;
place = (680, 46);
place = (680, 46);
type = Stem;
},
{
place = (22, 60);
place = (22, 60);
type = Stem;
},
{
place = (394, 60);
place = (394, 60);
type = Stem;
}
);
layerId = m01;
shapes = (
{
closed = 1;
nodes = (
(438,736,l),
(557,838,l),
(457,838,l),
(372,736,l)
);
},
{
closed = 1;
nodes = (
(280,704,o),
(155,629,o),
(129,507,cs),
(104,387,o),
(181,338,o),
(305,307,cs),
(411,281,o),
(446,244,o),
(430,172,cs),
(417,109,o),
(352,70,o),
(280,70,cs),
(199,70,o),
(148,115,o),
(148,200,c),
(34,200,l),
(19,61,o),
(104,-14,o),
(262,-14,cs),
(396,-14,o),
(523,62,o),
(549,187,cs),
(574,302,o),
(516,367,o),
(371,402,cs),
(269,427,o),
(235,458,o),
(249,525,cs),
(263,590,o),
(320,620,o),
(385,620,cs),
(465,620,o),
(501,573,o),
(493,494,c),
(607,494,l),
(618,614,o),
(562,704,o),
(409,704,cs)
);
}
);
width = 595;
}
);
note = Sacute;
unicode = 346;
},
{
glyphname = Scaron;
kernLeft = S;
kernRight = S;
lastChange = "2022-11-29 13:28:25 +0000";
layers = (
{
hints = (
{
horizontal = 1;
place = (-70, 28);
place = (-70, 28);
type = Stem;
},
{
horizontal = 1;
place = (564, 28);
place = (564, 28);
type = Stem;
},
{
horizontal = 1;
place = (680, 46);
place = (680, 46);
type = Stem;
},
{
place = (22, 60);
place = (22, 60);
type = Stem;
},
{
place = (394, 60);
place = (394, 60);
type = Stem;
}
);
layerId = m01;
shapes = (
{
closed = 1;
nodes = (
(370,736,l),
(451,736,l),
(539,838,l),
(464,838,l),
(420,777,l),
(402,838,l),
(326,838,l)
);
},
{
closed = 1;
nodes = (
(269,427,o),
(235,458,o),
(249,525,cs),
(263,590,o),
(320,620,o),
(385,620,cs),
(465,620,o),
(501,573,o),
(493,494,c),
(607,494,l),
(618,614,o),
(562,704,o),
(409,704,cs),
(280,704,o),
(155,629,o),
(129,507,cs),
(104,387,o),
(181,338,o),
(305,307,cs),
(411,281,o),
(446,244,o),
(430,172,cs),
(417,109,o),
(352,70,o),
(280,70,cs),
(199,70,o),
(148,115,o),
(148,200,c),
(34,200,l),
(19,61,o),
(104,-14,o),
(262,-14,cs),
(396,-14,o),
(523,62,o),
(549,187,cs),
(574,302,o),
(516,367,o),
(371,402,cs)
);
}
);
width = 595;
}
);
note = Scaron;
unicode = 352;
},
{
glyphname = Scedilla;
kernLeft = S;
kernRight = S;
lastChange = "2022-11-29 13:28:25 +0000";
layers = (
{
hints = (
{
horizontal = 1;
place = (-266, -7);
place = (-266, -7);
type = Stem;
},
{
horizontal = 1;
place = (-67, 21);
target = up;
type = BottomGhost;
},
{
horizontal = 1;
place = (564, 28);
place = (564, 28);
type = Stem;
},
{
place = (22, 60);
place = (22, 60);
type = Stem;
},
{
place = (275, 14);
place = (275, 14);
type = Stem;
},
{
place = (394, 60);
place = (394, 60);
type = Stem;
},
{
horizontal = 1;
place = (-137, 95);
place = (-137, 95);
type = Stem;
}
);
layerId = m01;
shapes = (
{
closed = 1;
nodes = (
(574,302,o),
(516,367,o),
(371,402,cs),
(269,427,o),
(235,458,o),
(249,525,cs),
(263,590,o),
(320,620,o),
(385,620,cs),
(465,620,o),
(501,573,o),
(493,494,c),
(607,494,l),
(618,614,o),
(562,704,o),
(409,704,cs),
(280,704,o),
(155,629,o),
(129,507,cs),
(104,387,o),
(181,338,o),
(305,307,cs),
(411,281,o),
(446,244,o),
(430,172,cs),
(417,109,o),
(352,70,o),
(280,70,cs),
(199,70,o),
(148,115,o),
(148,200,c),
(34,200,l),
(20,76,o),
(86,3,o),
(212,-11,c),
(161,-81,l),
(233,-76,o),
(255,-91,o),
(249,-122,cs),
(244,-146,o),
(220,-161,o),
(178,-161,cs),
(159,-161,o),
(143,-159,o),
(127,-151,c),
(116,-202,l),
(129,-208,o),
(147,-210,o),
(166,-210,cs),
(244,-210,o),
(306,-181,o),
(319,-122,cs),
(329,-76,o),
(305,-48,o),
(252,-41,c),
(272,-14,l),
(402,-10,o),
(523,65,o),
(549,187,cs)
);
}
);
width = 595;
}
);
note = Scedilla;
unicode = 350;
},
{
glyphname = Scommaaccent;
kernLeft = S;
kernRight = S;
lastChange = "2022-11-29 13:28:25 +0000";
layers = (
{
hints = (
{
horizontal = 1;
place = (-256, 96);
place = (-256, 96);
type = Stem;
},
{
horizontal = 1;
place = (-70, 28);
place = (-70, 28);
type = Stem;
},
{
horizontal = 1;
place = (564, 28);
place = (564, 28);
type = Stem;
},
{
place = (22, 60);
place = (22, 60);
type = Stem;
},
{
place = (394, 60);
place = (394, 60);
type = Stem;
}
);
layerId = m01;
shapes = (
{
closed = 1;
nodes = (
(280,704,o),
(155,629,o),
(129,507,cs),
(104,387,o),
(181,338,o),
(305,307,cs),
(411,281,o),
(446,244,o),
(430,172,cs),
(417,109,o),
(352,70,o),
(280,70,cs),
(199,70,o),
(148,115,o),
(148,200,c),
(34,200,l),
(19,61,o),
(104,-14,o),
(262,-14,cs),
(396,-14,o),
(523,62,o),
(549,187,cs),
(574,302,o),
(516,367,o),
(371,402,cs),
(269,427,o),
(235,458,o),
(249,525,cs),
(263,590,o),
(320,620,o),
(385,620,cs),
(465,620,o),
(501,573,o),
(493,494,c),
(607,494,l),
(618,614,o),
(562,704,o),
(409,704,cs)
);
},
{
closed = 1;
nodes = (
(289,-59,l),
(291,-48,l),
(210,-48,l),
(118,-200,l),
(188,-200,l)
);
}
);
width = 595;
}
);
note = Scommaaccent;
unicode = 536;
},
{
glyphname = T;
kernLeft = T;
kernRight = T;
lastChange = "2022-11-29 13:28:25 +0000";
layers = (
{
hints = (
{
horizontal = 1;
place = (-56, 21);
target = up;
type = BottomGhost;
},
{
horizontal = 1;
place = (547, 31);
place = (547, 31);
type = Stem;
},
{
place = (214, 53);
place = (214, 53);
type = Stem;
}
);
layerId = m01;
shapes = (
{
closed = 1;
nodes = (
(692,603,l),
(710,690,l),
(119,690,l),
(101,603,l),
(342,603,l),
(214,0,l),
(323,0,l),
(451,603,l)
);
}
);
width = 617;
}
);
note = T;
unicode = 84;
},
{
glyphname = Tbar;
kernLeft = T;
kernRight = T;
lastChange = "2022-11-29 13:28:25 +0000";
layers = (
{
hints = (
{
horizontal = 1;
place = (-56, 21);
target = up;
type = BottomGhost;
},
{
horizontal = 1;
place = (246, 10);
place = (246, 10);
type = Stem;
},
{
horizontal = 1;
place = (547, 31);
place = (547, 31);
type = Stem;
},
{
place = (214, 53);
place = (214, 53);
type = Stem;
}
);
layerId = m01;
shapes = (
{
closed = 1;
nodes = (
(451,603,l),
(692,603,l),
(710,690,l),
(119,690,l),
(101,603,l),
(342,603,l),
(292,368,l),
(185,368,l),
(171,302,l),
(278,302,l),
(214,0,l),
(323,0,l),
(387,302,l),
(494,302,l),
(508,368,l),
(401,368,l)
);
}
);
width = 617;
}
);
note = Tbar;
unicode = 358;
},
{
glyphname = Tcaron;
kernLeft = T;
kernRight = T;
lastChange = "2022-11-29 13:28:25 +0000";
layers = (
{
hints = (
{
horizontal = 1;
place = (-56, 21);
target = up;
type = BottomGhost;
},
{
horizontal = 1;
place = (547, 31);
place = (547, 31);
type = Stem;
},
{
horizontal = 1;
place = (680, 46);
place = (680, 46);
type = Stem;
},
{
place = (214, 53);
place = (214, 53);
type = Stem;
}
);
layerId = m01;
shapes = (
{
closed = 1;
nodes = (
(384,736,l),
(465,736,l),
(553,838,l),
(478,838,l),
(434,777,l),
(416,838,l),
(340,838,l)
);
},
{
closed = 1;
nodes = (
(692,603,l),
(710,690,l),
(119,690,l),
(101,603,l),
(342,603,l),
(214,0,l),
(323,0,l),
(451,603,l)
);
}
);
width = 617;
}
);
note = Tcaron;
unicode = 356;
},
{
glyphname = Tcedilla;
kernLeft = T;
kernRight = T;
lastChange = "2022-11-29 13:28:25 +0000";
layers = (
{
hints = (
{
horizontal = 1;
place = (-266, -7);
place = (-266, -7);
type = Stem;
},
{
horizontal = 1;
place = (-56, 21);
target = up;
type = BottomGhost;
},
{
horizontal = 1;
place = (547, 31);
place = (547, 31);
type = Stem;
},
{
place = (214, 53);
place = (214, 53);
type = Stem;
},
{
place = (293, 14);
place = (293, 14);
type = Stem;
}
);
layerId = m01;
shapes = (
{
closed = 1;
nodes = (
(300,0,l),
(323,0,l),
(451,603,l),
(692,603,l),
(710,690,l),
(119,690,l),
(101,603,l),
(342,603,l),
(214,0,l),
(239,0,l),
(179,-81,l),
(251,-76,o),
(273,-91,o),
(267,-122,cs),
(262,-146,o),
(238,-161,o),
(196,-161,cs),
(177,-161,o),
(161,-159,o),
(145,-151,c),
(134,-202,l),
(147,-208,o),
(165,-210,o),
(184,-210,cs),
(262,-210,o),
(324,-181,o),
(337,-122,cs),
(347,-76,o),
(323,-48,o),
(270,-41,c)
);
}
);
width = 617;
}
);
note = Tcedilla;
unicode = 354;
},
{
glyphname = uni021A;
kernLeft = T;
kernRight = T;
lastChange = "2022-11-29 13:28:25 +0000";
layers = (
{
hints = (
{
horizontal = 1;
place = (-256, 96);
place = (-256, 96);
type = Stem;
},
{
horizontal = 1;
place = (-56, 21);
target = up;
type = BottomGhost;
},
{
horizontal = 1;
place = (547, 31);
place = (547, 31);
type = Stem;
},
{
place = (214, 53);
place = (214, 53);
type = Stem;
}
);
layerId = m01;
shapes = (
{
closed = 1;
nodes = (
(692,603,l),
(710,690,l),
(119,690,l),
(101,603,l),
(342,603,l),
(214,0,l),
(323,0,l),
(451,603,l)
);
},
{
closed = 1;
nodes = (
(228,-48,l),
(136,-200,l),
(206,-200,l),
(307,-59,l),
(309,-48,l)
);
}
);
width = 617;
}
);
note = uni021A;
unicode = 538;
},
{
glyphname = U;
kernLeft = U;
kernRight = U;
lastChange = "2022-11-29 13:28:25 +0000";
layers = (
{
hints = (
{
horizontal = 1;
place = (-70, 28);
place = (-70, 28);
type = Stem;
},
{
horizontal = 1;
place = (634, -20);
target = down;
type = TopGhost;
},
{
place = (32, 53);
place = (32, 53);
type = Stem;
},
{
place = (464, 53);
place = (464, 53);
type = Stem;
}
);
layerId = m01;
shapes = (
{
closed = 1;
nodes = (
(719,690,l),
(610,690,l),
(520,265,ls),
(516,244,o),
(511,225,o),
(506,209,cs),
(481,126,o),
(417,70,o),
(317,70,cs),
(218,70,o),
(176,126,o),
(187,209,cs),
(188,225,o),
(193,244,o),
(197,265,cs),
(287,690,l),
(178,690,l),
(88,267,ls),
(83,242,o),
(79,222,o),
(75,196,cs),
(60,81,o),
(119,-14,o),
(299,-14,cs),
(479,-14,o),
(578,81,o),
(612,196,cs),
(620,222,o),
(624,242,o),
(629,267,cs)
);
}
);
width = 691;
}
);
note = U;
unicode = 85;
},
{
glyphname = Uacute;
kernLeft = U;
kernRight = U;
lastChange = "2022-11-29 13:28:25 +0000";
layers = (
{
hints = (
{
horizontal = 1;
place = (-70, 28);
place = (-70, 28);
type = Stem;
},
{
horizontal = 1;
place = (634, -20);
target = down;
type = TopGhost;
},
{
horizontal = 1;
place = (680, 46);
place = (680, 46);
type = Stem;
},
{
place = (32, 53);
place = (32, 53);
type = Stem;
},
{
place = (464, 53);
place = (464, 53);
type = Stem;
}
);
layerId = m01;
shapes = (
{
closed = 1;
nodes = (
(486,736,l),
(605,838,l),
(505,838,l),
(420,736,l)
);
},
{
closed = 1;
nodes = (
(719,690,l),
(610,690,l),
(520,265,ls),
(516,244,o),
(511,225,o),
(506,209,cs),
(481,126,o),
(417,70,o),
(317,70,cs),
(218,70,o),
(176,126,o),
(187,209,cs),
(188,225,o),
(193,244,o),
(197,265,cs),
(287,690,l),
(178,690,l),
(88,267,ls),
(83,242,o),
(79,222,o),
(75,196,cs),
(60,81,o),
(119,-14,o),
(299,-14,cs),
(479,-14,o),
(578,81,o),
(612,196,cs),
(620,222,o),
(624,242,o),
(629,267,cs)
);
}
);
width = 691;
}
);
note = Uacute;
unicode = 218;
},
{
glyphname = Ucircumflex;
kernLeft = U;
kernRight = U;
lastChange = "2022-11-29 13:28:25 +0000";
layers = (
{
hints = (
{
horizontal = 1;
place = (-70, 28);
place = (-70, 28);
type = Stem;
},
{
horizontal = 1;
place = (634, -20);
target = down;
type = TopGhost;
},
{
horizontal = 1;
place = (680, 46);
place = (680, 46);
type = Stem;
},
{
place = (32, 53);
place = (32, 53);
type = Stem;
},
{
place = (464, 53);
place = (464, 53);
type = Stem;
}
);
layerId = m01;
shapes = (
{
closed = 1;
nodes = (
(427,736,l),
(471,796,l),
(489,736,l),
(565,736,l),
(521,838,l),
(440,838,l),
(352,736,l)
);
},
{
closed = 1;
nodes = (
(719,690,l),
(610,690,l),
(520,265,ls),
(516,244,o),
(511,225,o),
(506,209,cs),
(481,126,o),
(417,70,o),
(317,70,cs),
(218,70,o),
(176,126,o),
(187,209,cs),
(188,225,o),
(193,244,o),
(197,265,cs),
(287,690,l),
(178,690,l),
(88,267,ls),
(83,242,o),
(79,222,o),
(75,196,cs),
(60,81,o),
(119,-14,o),
(299,-14,cs),
(479,-14,o),
(578,81,o),
(612,196,cs),
(620,222,o),
(624,242,o),
(629,267,cs)
);
}
);
width = 691;
}
);
note = Ucircumflex;
unicode = 219;
},
{
glyphname = Udieresis;
kernLeft = U;
kernRight = U;
lastChange = "2022-11-29 13:28:25 +0000";
layers = (
{
hints = (
{
horizontal = 1;
place = (-70, 28);
place = (-70, 28);
type = Stem;
},
{
horizontal = 1;
place = (634, -20);
target = down;
type = TopGhost;
},
{
horizontal = 1;
place = (677, 50);
place = (677, 50);
type = Stem;
},
{
place = (32, 53);
place = (32, 53);
type = Stem;
},
{
place = (171, 51);
place = (171, 51);
type = Stem;
},
{
place = (326, 51);
place = (326, 51);
type = Stem;
},
{
place = (464, 53);
place = (464, 53);
type = Stem;
}
);
layerId = m01;
shapes = (
{
closed = 1;
nodes = (
(719,690,l),
(610,690,l),
(520,265,ls),
(516,244,o),
(511,225,o),
(506,209,cs),
(481,126,o),
(417,70,o),
(317,70,cs),
(218,70,o),
(176,126,o),
(187,209,cs),
(188,225,o),
(193,244,o),
(197,265,cs),
(287,690,l),
(178,690,l),
(88,267,ls),
(83,242,o),
(79,222,o),
(75,196,cs),
(60,81,o),
(119,-14,o),
(299,-14,cs),
(479,-14,o),
(578,81,o),
(612,196,cs),
(620,222,o),
(624,242,o),
(629,267,cs)
);
},
{
closed = 1;
nodes = (
(327,733,l),
(435,733,l),
(458,839,l),
(350,839,l)
);
},
{
closed = 1;
nodes = (
(482,733,l),
(590,733,l),
(613,839,l),
(505,839,l)
);
}
);
width = 691;
}
);
note = Udieresis;
unicode = 220;
},
{
glyphname = Ugrave;
kernLeft = U;
kernRight = U;
lastChange = "2022-11-29 13:28:25 +0000";
layers = (
{
hints = (
{
horizontal = 1;
place = (-70, 28);
place = (-70, 28);
type = Stem;
},
{
horizontal = 1;
place = (634, -20);
target = down;
type = TopGhost;
},
{
horizontal = 1;
place = (680, 46);
place = (680, 46);
type = Stem;
},
{
place = (32, 53);
place = (32, 53);
type = Stem;
},
{
place = (464, 53);
place = (464, 53);
type = Stem;
}
);
layerId = m01;
shapes = (
{
closed = 1;
nodes = (
(497,736,l),
(456,838,l),
(356,838,l),
(431,736,l)
);
},
{
closed = 1;
nodes = (
(719,690,l),
(610,690,l),
(520,265,ls),
(516,244,o),
(511,225,o),
(506,209,cs),
(481,126,o),
(417,70,o),
(317,70,cs),
(218,70,o),
(176,126,o),
(187,209,cs),
(188,225,o),
(193,244,o),
(197,265,cs),
(287,690,l),
(178,690,l),
(88,267,ls),
(83,242,o),
(79,222,o),
(75,196,cs),
(60,81,o),
(119,-14,o),
(299,-14,cs),
(479,-14,o),
(578,81,o),
(612,196,cs),
(620,222,o),
(624,242,o),
(629,267,cs)
);
}
);
width = 691;
}
);
note = Ugrave;
unicode = 217;
},
{
glyphname = Uhungarumlaut;
kernLeft = U;
kernRight = U;
lastChange = "2022-11-29 13:28:25 +0000";
layers = (
{
hints = (
{
horizontal = 1;
place = (-70, 28);
place = (-70, 28);
type = Stem;
},
{
horizontal = 1;
place = (634, -20);
target = down;
type = TopGhost;
},
{
horizontal = 1;
place = (680, 46);
place = (680, 46);
type = Stem;
},
{
place = (32, 53);
place = (32, 53);
type = Stem;
},
{
place = (464, 53);
place = (464, 53);
type = Stem;
}
);
layerId = m01;
shapes = (
{
closed = 1;
nodes = (
(402,736,l),
(521,838,l),
(421,838,l),
(336,736,l)
);
},
{
closed = 1;
nodes = (
(534,736,l),
(653,838,l),
(553,838,l),
(468,736,l)
);
},
{
closed = 1;
nodes = (
(719,690,l),
(610,690,l),
(520,265,ls),
(516,244,o),
(511,225,o),
(506,209,cs),
(481,126,o),
(417,70,o),
(317,70,cs),
(218,70,o),
(176,126,o),
(187,209,cs),
(188,225,o),
(193,244,o),
(197,265,cs),
(287,690,l),
(178,690,l),
(88,267,ls),
(83,242,o),
(79,222,o),
(75,196,cs),
(60,81,o),
(119,-14,o),
(299,-14,cs),
(479,-14,o),
(578,81,o),
(612,196,cs),
(620,222,o),
(624,242,o),
(629,267,cs)
);
}
);
width = 691;
}
);
note = Uhungarumlaut;
unicode = 368;
},
{
glyphname = Umacron;
kernLeft = U;
kernRight = U;
lastChange = "2022-11-29 13:28:25 +0000";
layers = (
{
hints = (
{
horizontal = 1;
place = (-70, 28);
place = (-70, 28);
type = Stem;
},
{
horizontal = 1;
place = (634, -20);
target = down;
type = TopGhost;
},
{
horizontal = 1;
place = (702, 7);
place = (702, 7);
type = Stem;
},
{
place = (32, 53);
place = (32, 53);
type = Stem;
},
{
place = (175, 199);
place = (175, 199);
type = Stem;
},
{
place = (464, 53);
place = (464, 53);
type = Stem;
}
);
layerId = m01;
shapes = (
{
closed = 1;
nodes = (
(591,758,l),
(604,821,l),
(349,821,l),
(336,758,l)
);
},
{
closed = 1;
nodes = (
(719,690,l),
(610,690,l),
(520,265,ls),
(516,244,o),
(511,225,o),
(506,209,cs),
(481,126,o),
(417,70,o),
(317,70,cs),
(218,70,o),
(176,126,o),
(187,209,cs),
(188,225,o),
(193,244,o),
(197,265,cs),
(287,690,l),
(178,690,l),
(88,267,ls),
(83,242,o),
(79,222,o),
(75,196,cs),
(60,81,o),
(119,-14,o),
(299,-14,cs),
(479,-14,o),
(578,81,o),
(612,196,cs),
(620,222,o),
(624,242,o),
(629,267,cs)
);
}
);
width = 691;
}
);
note = Umacron;
unicode = 362;
},
{
glyphname = Uogonek;
kernLeft = U;
kernRight = U;
lastChange = "2022-11-29 13:28:25 +0000";
layers = (
{
hints = (
{
horizontal = 1;
place = (-279, 10);
place = (-279, 10);
type = Stem;
},
{
horizontal = 1;
place = (-70, 28);
place = (-70, 28);
type = Stem;
},
{
horizontal = 1;
place = (634, -20);
target = down;
type = TopGhost;
},
{
place = (32, 53);
place = (32, 53);
type = Stem;
},
{
place = (226, 46);
place = (226, 46);
type = Stem;
},
{
place = (464, 53);
place = (464, 53);
type = Stem;
}
);
layerId = m01;
shapes = (
{
closed = 1;
nodes = (
(719,690,l),
(610,690,l),
(520,265,ls),
(516,244,o),
(511,225,o),
(506,209,cs),
(481,126,o),
(417,70,o),
(317,70,cs),
(218,70,o),
(176,126,o),
(187,209,cs),
(188,225,o),
(193,244,o),
(197,265,cs),
(287,690,l),
(178,690,l),
(88,267,ls),
(83,242,o),
(79,222,o),
(75,196,cs),
(60,83,o),
(117,-10,o),
(288,-14,c),
(245,-42,o),
(208,-85,o),
(196,-138,cs),
(183,-201,o),
(218,-223,o),
(276,-223,cs),
(317,-223,o),
(354,-212,o),
(384,-192,c),
(396,-137,l),
(375,-151,o),
(356,-157,o),
(338,-157,cs),
(311,-157,o),
(297,-144,o),
(305,-107,cs),
(316,-57,o),
(353,-18,o),
(393,-4,c),
(515,23,o),
(585,103,o),
(612,196,cs),
(620,222,o),
(624,242,o),
(629,267,cs)
);
}
);
width = 691;
}
);
note = Uogonek;
unicode = 370;
},
{
glyphname = Uring;
kernLeft = U;
kernRight = U;
lastChange = "2022-11-29 13:28:25 +0000";
layers = (
{
hints = (
{
horizontal = 1;
place = (-70, 28);
place = (-70, 28);
type = Stem;
},
{
horizontal = 1;
place = (634, -20);
target = down;
type = TopGhost;
},
{
horizontal = 1;
place = (789, -12);
place = (789, -12);
type = Stem;
},
{
place = (32, 53);
place = (32, 53);
type = Stem;
},
{
place = (204, 2);
place = (204, 2);
type = Stem;
},
{
place = (342, 2);
place = (342, 2);
type = Stem;
},
{
place = (464, 53);
place = (464, 53);
type = Stem;
},
{
horizontal = 1;
place = (662, -13);
place = (662, -13);
type = Stem;
}
);
layerId = m01;
shapes = (
{
closed = 1;
nodes = (
(434,889,o),
(385,853,o),
(374,803,cs),
(364,753,o),
(397,718,o),
(454,718,cs),
(511,718,o),
(560,753,o),
(570,803,cs),
(581,853,o),
(548,889,o),
(491,889,cs)
);
},
{
closed = 1;
nodes = (
(504,845,o),
(518,828,o),
(512,803,cs),
(507,779,o),
(486,761,o),
(463,761,cs),
(440,761,o),
(427,779,o),
(432,803,cs),
(438,828,o),
(458,845,o),
(481,845,cs)
);
},
{
closed = 1;
nodes = (
(719,690,l),
(610,690,l),
(520,265,ls),
(516,244,o),
(511,225,o),
(506,209,cs),
(481,126,o),
(417,70,o),
(317,70,cs),
(218,70,o),
(176,126,o),
(187,209,cs),
(188,225,o),
(193,244,o),
(197,265,cs),
(287,690,l),
(178,690,l),
(88,267,ls),
(83,242,o),
(79,222,o),
(75,196,cs),
(60,81,o),
(119,-14,o),
(299,-14,cs),
(479,-14,o),
(578,81,o),
(612,196,cs),
(620,222,o),
(624,242,o),
(629,267,cs)
);
}
);
width = 691;
}
);
note = Uring;
unicode = 366;
},
{
glyphname = V;
kernLeft = V;
kernRight = V;
lastChange = "2022-11-29 13:28:25 +0000";
layers = (
{
hints = (
{
horizontal = 1;
place = (-56, 21);
target = up;
type = BottomGhost;
},
{
horizontal = 1;
place = (634, -20);
target = down;
type = TopGhost;
},
{
place = (-24, 575);
place = (-24, 575);
type = Stem;
},
{
horizontal = 1;
place = (-56, 28);
place = (-56, 28);
type = Stem;
}
);
layerId = m01;
shapes = (
{
closed = 1;
nodes = (
(359,0,l),
(753,690,l),
(636,690,l),
(308,84,l),
(241,690,l),
(122,690,l),
(217,0,l)
);
}
);
width = 652;
}
);
note = V;
unicode = 86;
},
{
glyphname = W;
kernLeft = W;
kernRight = W;
lastChange = "2022-11-29 13:28:25 +0000";
layers = (
{
hints = (
{
horizontal = 1;
place = (-56, 21);
target = up;
type = BottomGhost;
},
{
horizontal = 1;
place = (634, -20);
target = down;
type = TopGhost;
},
{
place = (-30, 884);
place = (-30, 884);
type = Stem;
},
{
horizontal = 1;
place = (-56, 32);
place = (-56, 32);
type = Stem;
},
{
horizontal = 1;
place = (532, 36);
place = (532, 36);
type = Stem;
}
);
layerId = m01;
shapes = (
{
closed = 1;
nodes = (
(1056,690,l),
(942,690,l),
(674,88,l),
(661,680,l),
(510,680,l),
(242,91,l),
(237,690,l),
(116,690,l),
(148,0,l),
(294,0,l),
(564,588,l),
(577,0,l),
(722,0,l)
);
}
);
width = 968;
}
);
note = W;
unicode = 87;
},
{
glyphname = Wacute;
kernLeft = W;
kernRight = W;
lastChange = "2022-11-29 13:28:25 +0000";
layers = (
{
hints = (
{
horizontal = 1;
place = (-56, 21);
target = up;
type = BottomGhost;
},
{
horizontal = 1;
place = (634, -20);
target = down;
type = TopGhost;
},
{
horizontal = 1;
place = (680, 46);
place = (680, 46);
type = Stem;
},
{
place = (-30, 884);
place = (-30, 884);
type = Stem;
},
{
horizontal = 1;
place = (-56, 32);
place = (-56, 32);
type = Stem;
},
{
horizontal = 1;
place = (532, 36);
place = (532, 36);
type = Stem;
}
);
layerId = m01;
shapes = (
{
closed = 1;
nodes = (
(625,736,l),
(744,838,l),
(644,838,l),
(559,736,l)
);
},
{
closed = 1;
nodes = (
(1056,690,l),
(942,690,l),
(674,88,l),
(661,680,l),
(510,680,l),
(242,91,l),
(237,690,l),
(116,690,l),
(148,0,l),
(294,0,l),
(564,588,l),
(577,0,l),
(722,0,l)
);
}
);
width = 968;
}
);
note = Wacute;
unicode = 7810;
},
{
glyphname = Wcircumflex;
kernLeft = W;
kernRight = W;
lastChange = "2022-11-29 13:28:25 +0000";
layers = (
{
hints = (
{
horizontal = 1;
place = (-56, 21);
target = up;
type = BottomGhost;
},
{
horizontal = 1;
place = (634, -20);
target = down;
type = TopGhost;
},
{
horizontal = 1;
place = (680, 46);
place = (680, 46);
type = Stem;
},
{
place = (-30, 884);
place = (-30, 884);
type = Stem;
},
{
horizontal = 1;
place = (-56, 32);
place = (-56, 32);
type = Stem;
},
{
horizontal = 1;
place = (532, 36);
place = (532, 36);
type = Stem;
}
);
layerId = m01;
shapes = (
{
closed = 1;
nodes = (
(566,736,l),
(610,796,l),
(628,736,l),
(704,736,l),
(660,838,l),
(579,838,l),
(491,736,l)
);
},
{
closed = 1;
nodes = (
(1056,690,l),
(942,690,l),
(674,88,l),
(661,680,l),
(510,680,l),
(242,91,l),
(237,690,l),
(116,690,l),
(148,0,l),
(294,0,l),
(564,588,l),
(577,0,l),
(722,0,l)
);
}
);
width = 968;
}
);
note = Wcircumflex;
unicode = 372;
},
{
glyphname = Wdieresis;
kernLeft = W;
kernRight = W;
lastChange = "2022-11-29 13:28:25 +0000";
layers = (
{
hints = (
{
horizontal = 1;
place = (-56, 21);
target = up;
type = BottomGhost;
},
{
horizontal = 1;
place = (634, -20);
target = down;
type = TopGhost;
},
{
horizontal = 1;
place = (677, 50);
place = (677, 50);
type = Stem;
},
{
place = (310, 51);
place = (310, 51);
type = Stem;
},
{
place = (465, 51);
place = (465, 51);
type = Stem;
},
{
horizontal = 1;
place = (-56, 32);
place = (-56, 32);
type = Stem;
},
{
horizontal = 1;
place = (532, 36);
place = (532, 36);
type = Stem;
}
);
layerId = m01;
shapes = (
{
closed = 1;
nodes = (
(1056,690,l),
(942,690,l),
(674,88,l),
(661,680,l),
(510,680,l),
(242,91,l),
(237,690,l),
(116,690,l),
(148,0,l),
(294,0,l),
(564,588,l),
(577,0,l),
(722,0,l)
);
},
{
closed = 1;
nodes = (
(465,733,l),
(573,733,l),
(596,839,l),
(488,839,l)
);
},
{
closed = 1;
nodes = (
(620,733,l),
(728,733,l),
(751,839,l),
(643,839,l)
);
}
);
width = 968;
}
);
note = Wdieresis;
unicode = 7812;
},
{
glyphname = Wgrave;
kernLeft = W;
kernRight = W;
lastChange = "2022-11-29 13:28:25 +0000";
layers = (
{
hints = (
{
horizontal = 1;
place = (-56, 21);
target = up;
type = BottomGhost;
},
{
horizontal = 1;
place = (634, -20);
target = down;
type = TopGhost;
},
{
horizontal = 1;
place = (680, 46);
place = (680, 46);
type = Stem;
},
{
place = (-30, 884);
place = (-30, 884);
type = Stem;
},
{
horizontal = 1;
place = (-56, 32);
place = (-56, 32);
type = Stem;
},
{
horizontal = 1;
place = (532, 36);
place = (532, 36);
type = Stem;
}
);
layerId = m01;
shapes = (
{
closed = 1;
nodes = (
(570,736,l),
(636,736,l),
(595,838,l),
(495,838,l)
);
},
{
closed = 1;
nodes = (
(1056,690,l),
(942,690,l),
(674,88,l),
(661,680,l),
(510,680,l),
(242,91,l),
(237,690,l),
(116,690,l),
(148,0,l),
(294,0,l),
(564,588,l),
(577,0,l),
(722,0,l)
);
}
);
width = 968;
}
);
note = Wgrave;
unicode = 7808;
},
{
glyphname = X;
lastChange = "2022-11-29 13:28:25 +0000";
layers = (
{
hints = (
{
horizontal = 1;
place = (-56, 21);
target = up;
type = BottomGhost;
},
{
horizontal = 1;
place = (634, -20);
target = down;
type = TopGhost;
},
{
place = (-34, 569);
place = (-34, 569);
type = Stem;
}
);
layerId = m01;
shapes = (
{
closed = 1;
nodes = (
(463,0,l),
(591,0,l),
(417,351,l),
(729,690,l),
(603,690,l),
(369,420,l),
(256,690,l),
(130,690,l),
(287,348,l),
(-34,0,l),
(95,0,l),
(334,279,l)
);
}
);
width = 648;
}
);
note = X;
unicode = 88;
},
{
glyphname = Y;
kernLeft = Y;
kernRight = Y;
lastChange = "2022-11-29 13:28:25 +0000";
layers = (
{
hints = (
{
horizontal = 1;
place = (-56, 21);
target = up;
type = BottomGhost;
},
{
horizontal = 1;
place = (634, -20);
target = down;
type = TopGhost;
},
{
place = (206, 53);
place = (206, 53);
type = Stem;
}
);
layerId = m01;
shapes = (
{
closed = 1;
nodes = (
(372,270,l),
(705,690,l),
(583,690,l),
(344,371,l),
(233,690,l),
(108,690,l),
(263,270,l),
(206,0,l),
(315,0,l)
);
}
);
width = 602;
}
);
note = Y;
unicode = 89;
},
{
glyphname = Yacute;
kernLeft = Y;
kernRight = Y;
lastChange = "2022-11-29 13:28:25 +0000";
layers = (
{
hints = (
{
horizontal = 1;
place = (-56, 21);
target = up;
type = BottomGhost;
},
{
horizontal = 1;
place = (634, -20);
target = down;
type = TopGhost;
},
{
horizontal = 1;
place = (680, 46);
place = (680, 46);
type = Stem;
},
{
place = (206, 53);
place = (206, 53);
type = Stem;
}
);
layerId = m01;
shapes = (
{
closed = 1;
nodes = (
(444,736,l),
(563,838,l),
(463,838,l),
(378,736,l)
);
},
{
closed = 1;
nodes = (
(372,270,l),
(705,690,l),
(583,690,l),
(344,371,l),
(233,690,l),
(108,690,l),
(263,270,l),
(206,0,l),
(315,0,l)
);
}
);
width = 602;
}
);
note = Yacute;
unicode = 221;
},
{
glyphname = Ycircumflex;
kernLeft = Y;
kernRight = Y;
lastChange = "2022-11-29 13:28:25 +0000";
layers = (
{
hints = (
{
horizontal = 1;
place = (-56, 21);
target = up;
type = BottomGhost;
},
{
horizontal = 1;
place = (634, -20);
target = down;
type = TopGhost;
},
{
horizontal = 1;
place = (680, 46);
place = (680, 46);
type = Stem;
},
{
place = (206, 53);
place = (206, 53);
type = Stem;
}
);
layerId = m01;
shapes = (
{
closed = 1;
nodes = (
(385,736,l),
(429,796,l),
(447,736,l),
(523,736,l),
(479,838,l),
(398,838,l),
(310,736,l)
);
},
{
closed = 1;
nodes = (
(372,270,l),
(705,690,l),
(583,690,l),
(344,371,l),
(233,690,l),
(108,690,l),
(263,270,l),
(206,0,l),
(315,0,l)
);
}
);
width = 602;
}
);
note = Ycircumflex;
unicode = 374;
},
{
glyphname = Ydieresis;
kernLeft = Y;
kernRight = Y;
lastChange = "2022-11-29 13:28:25 +0000";
layers = (
{
hints = (
{
horizontal = 1;
place = (-56, 21);
target = up;
type = BottomGhost;
},
{
horizontal = 1;
place = (634, -20);
target = down;
type = TopGhost;
},
{
horizontal = 1;
place = (677, 50);
place = (677, 50);
type = Stem;
},
{
place = (129, 51);
place = (129, 51);
type = Stem;
},
{
place = (284, 51);
place = (284, 51);
type = Stem;
},
{
place = (206, 53);
place = (206, 53);
type = Stem;
}
);
layerId = m01;
shapes = (
{
closed = 1;
nodes = (
(372,270,l),
(705,690,l),
(583,690,l),
(344,371,l),
(233,690,l),
(108,690,l),
(263,270,l),
(206,0,l),
(315,0,l)
);
},
{
closed = 1;
nodes = (
(282,733,l),
(390,733,l),
(413,839,l),
(305,839,l)
);
},
{
closed = 1;
nodes = (
(437,733,l),
(545,733,l),
(568,839,l),
(460,839,l)
);
}
);
width = 602;
}
);
note = Ydieresis;
unicode = 376;
},
{
glyphname = Ygrave;
kernLeft = Y;
kernRight = Y;
lastChange = "2022-11-29 13:28:25 +0000";
layers = (
{
hints = (
{
horizontal = 1;
place = (-56, 21);
target = up;
type = BottomGhost;
},
{
horizontal = 1;
place = (634, -20);
target = down;
type = TopGhost;
},
{
horizontal = 1;
place = (680, 46);
place = (680, 46);
type = Stem;
},
{
place = (206, 53);
place = (206, 53);
type = Stem;
}
);
layerId = m01;
shapes = (
{
closed = 1;
nodes = (
(389,736,l),
(455,736,l),
(414,838,l),
(314,838,l)
);
},
{
closed = 1;
nodes = (
(372,270,l),
(705,690,l),
(583,690,l),
(344,371,l),
(233,690,l),
(108,690,l),
(263,270,l),
(206,0,l),
(315,0,l)
);
}
);
width = 602;
}
);
note = Ygrave;
unicode = 7922;
},
{
glyphname = Z;
kernLeft = Z;
kernRight = Z;
lastChange = "2022-11-29 13:28:25 +0000";
layers = (
{
hints = (
{
horizontal = 1;
place = (-56, 32);
place = (-56, 32);
type = Stem;
},
{
horizontal = 1;
place = (547, 31);
place = (547, 31);
type = Stem;
},
{
place = (-8, 477);
place = (-8, 477);
type = Stem;
}
);
layerId = m01;
shapes = (
{
closed = 1;
nodes = (
(543,88,l),
(141,88,l),
(648,604,l),
(666,690,l),
(166,690,l),
(148,603,l),
(520,603,l),
(10,84,l),
(-8,0,l),
(525,0,l)
);
}
);
width = 605;
}
);
note = Z;
unicode = 90;
},
{
glyphname = Zacute;
kernLeft = Z;
kernRight = Z;
lastChange = "2022-11-29 13:28:25 +0000";
layers = (
{
hints = (
{
horizontal = 1;
place = (-56, 32);
place = (-56, 32);
type = Stem;
},
{
horizontal = 1;
place = (547, 31);
place = (547, 31);
type = Stem;
},
{
horizontal = 1;
place = (680, 46);
place = (680, 46);
type = Stem;
},
{
place = (-8, 477);
place = (-8, 477);
type = Stem;
}
);
layerId = m01;
shapes = (
{
closed = 1;
nodes = (
(443,736,l),
(562,838,l),
(462,838,l),
(377,736,l)
);
},
{
closed = 1;
nodes = (
(543,88,l),
(141,88,l),
(648,604,l),
(666,690,l),
(166,690,l),
(148,603,l),
(520,603,l),
(10,84,l),
(-8,0,l),
(525,0,l)
);
}
);
width = 605;
}
);
note = Zacute;
unicode = 377;
},
{
glyphname = Zcaron;
kernLeft = Z;
kernRight = Z;
lastChange = "2022-11-29 13:28:25 +0000";
layers = (
{
hints = (
{
horizontal = 1;
place = (-56, 32);
place = (-56, 32);
type = Stem;
},
{
horizontal = 1;
place = (547, 31);
place = (547, 31);
type = Stem;
},
{
horizontal = 1;
place = (680, 46);
place = (680, 46);
type = Stem;
},
{
place = (-8, 477);
place = (-8, 477);
type = Stem;
}
);
layerId = m01;
shapes = (
{
closed = 1;
nodes = (
(375,736,l),
(456,736,l),
(544,838,l),
(469,838,l),
(425,777,l),
(407,838,l),
(331,838,l)
);
},
{
closed = 1;
nodes = (
(543,88,l),
(141,88,l),
(648,604,l),
(666,690,l),
(166,690,l),
(148,603,l),
(520,603,l),
(10,84,l),
(-8,0,l),
(525,0,l)
);
}
);
width = 605;
}
);
note = Zcaron;
unicode = 381;
},
{
glyphname = Zdotaccent;
kernLeft = Z;
kernRight = Z;
lastChange = "2022-11-29 13:28:25 +0000";
layers = (
{
hints = (
{
horizontal = 1;
place = (-56, 32);
place = (-56, 32);
type = Stem;
},
{
horizontal = 1;
place = (547, 31);
place = (547, 31);
type = Stem;
},
{
horizontal = 1;
place = (678, 57);
place = (678, 57);
type = Stem;
},
{
place = (201, 60);
place = (201, 60);
type = Stem;
}
);
layerId = m01;
shapes = (
{
closed = 1;
nodes = (
(448,734,o),
(478,758,o),
(485,791,cs),
(492,823,o),
(472,847,o),
(439,847,cs),
(406,847,o),
(376,823,o),
(369,791,cs),
(362,758,o),
(382,734,o),
(415,734,cs)
);
},
{
closed = 1;
nodes = (
(543,88,l),
(141,88,l),
(648,604,l),
(666,690,l),
(166,690,l),
(148,603,l),
(520,603,l),
(10,84,l),
(-8,0,l),
(525,0,l)
);
}
);
width = 605;
}
);
note = Zdotaccent;
unicode = 379;
},
{
glyphname = a;
kernLeft = a;
lastChange = "2022-11-29 13:28:25 +0000";
layers = (
{
hints = (
{
horizontal = 1;
place = (-56, 10);
place = (-56, 10);
type = Stem;
},
{
horizontal = 1;
place = (192, 17);
place = (192, 17);
type = Stem;
},
{
horizontal = 1;
place = (409, 24);
place = (409, 24);
type = Stem;
},
{
place = (-21, 60);
place = (-21, 60);
type = Stem;
},
{
place = (308, 54);
place = (308, 54);
type = Stem;
},
{
horizontal = 1;
place = (-70, 24);
place = (-70, 24);
type = Stem;
}
);
layerId = m01;
shapes = (
{
closed = 1;
nodes = (
(319,0,l),
(428,0,l),
(432,59,o),
(438,95,o),
(446,135,cs),
(486,322,ls),
(491,347,o),
(496,375,o),
(499,397,cs),
(509,487,o),
(468,545,o),
(331,545,cs),
(210,545,o),
(108,479,o),
(77,363,c),
(187,363,l),
(207,429,o),
(248,465,o),
(312,465,cs),
(375,465,o),
(395,435,o),
(389,392,cs),
(387,372,o),
(383,354,o),
(379,334,cs),
(376,321,l),
(342,321,ls),
(141,321,o),
(33,257,o),
(8,139,cs),
(-13,40,o),
(53,-14,o),
(147,-14,cs),
(197,-14,o),
(245,-5,o),
(286,20,c),
(325,77,l)
);
},
{
closed = 1;
nodes = (
(146,66,o),
(114,92,o),
(126,148,cs),
(143,229,o),
(234,258,o),
(360,248,c),
(350,199,ls),
(332,113,o),
(273,66,o),
(204,66,cs)
);
}
);
width = 545;
}
);
note = a;
unicode = 97;
},
{
glyphname = aacute;
kernLeft = a;
lastChange = "2022-11-29 13:28:25 +0000";
layers = (
{
hints = (
{
horizontal = 1;
place = (-70, 24);
place = (-70, 24);
type = Stem;
},
{
horizontal = 1;
place = (192, 17);
place = (192, 17);
type = Stem;
},
{
horizontal = 1;
place = (409, 24);
place = (409, 24);
type = Stem;
},
{
horizontal = 1;
place = (522, 58);
place = (522, 58);
type = Stem;
},
{
place = (-21, 60);
place = (-21, 60);
type = Stem;
},
{
place = (308, 54);
place = (308, 54);
type = Stem;
},
{
horizontal = 1;
place = (-56, 10);
place = (-56, 10);
type = Stem;
}
);
layerId = m01;
shapes = (
{
closed = 1;
nodes = (
(365,578,l),
(492,692,l),
(392,692,l),
(299,578,l)
);
},
{
closed = 1;
nodes = (
(319,0,l),
(428,0,l),
(432,59,o),
(438,95,o),
(446,135,cs),
(486,322,ls),
(491,347,o),
(496,375,o),
(499,397,cs),
(509,487,o),
(468,545,o),
(331,545,cs),
(210,545,o),
(108,479,o),
(77,363,c),
(187,363,l),
(207,429,o),
(248,465,o),
(312,465,cs),
(375,465,o),
(395,435,o),
(389,392,cs),
(387,372,o),
(383,354,o),
(379,334,cs),
(376,321,l),
(342,321,ls),
(141,321,o),
(33,257,o),
(8,139,cs),
(-13,40,o),
(53,-14,o),
(147,-14,cs),
(197,-14,o),
(245,-5,o),
(286,20,c),
(325,77,l)
);
},
{
closed = 1;
nodes = (
(146,66,o),
(114,92,o),
(126,148,cs),
(143,229,o),
(234,258,o),
(360,248,c),
(350,199,ls),
(332,113,o),
(273,66,o),
(204,66,cs)
);
}
);
width = 545;
}
);
note = aacute;
unicode = 225;
},
{
glyphname = abreve;
kernLeft = a;
lastChange = "2022-11-29 13:28:25 +0000";
layers = (
{
hints = (
{
horizontal = 1;
place = (-70, 24);
place = (-70, 24);
type = Stem;
},
{
horizontal = 1;
place = (192, 17);
place = (192, 17);
type = Stem;
},
{
horizontal = 1;
place = (409, 24);
place = (409, 24);
type = Stem;
},
{
horizontal = 1;
place = (511, 69);
place = (511, 69);
type = Stem;
},
{
place = (-21, 60);
place = (-21, 60);
type = Stem;
},
{
place = (105, 6);
place = (105, 6);
type = Stem;
},
{
place = (263, 6);
place = (263, 6);
type = Stem;
},
{
horizontal = 1;
place = (511, 6);
place = (511, 6);
type = Stem;
},
{
place = (308, 54);
place = (308, 54);
type = Stem;
},
{
horizontal = 1;
place = (-56, 10);
place = (-56, 10);
type = Stem;
}
);
layerId = m01;
shapes = (
{
closed = 1;
nodes = (
(406,567,o),
(453,605,o),
(472,692,c),
(410,692,l),
(399,646,o),
(377,629,o),
(348,629,cs),
(319,629,o),
(305,646,o),
(314,692,c),
(252,692,l),
(233,605,o),
(263,567,o),
(335,567,cs)
);
},
{
closed = 1;
nodes = (
(319,0,l),
(428,0,l),
(432,59,o),
(438,95,o),
(446,135,cs),
(486,322,ls),
(491,347,o),
(496,375,o),
(499,397,cs),
(509,487,o),
(468,545,o),
(331,545,cs),
(210,545,o),
(108,479,o),
(77,363,c),
(187,363,l),
(207,429,o),
(248,465,o),
(312,465,cs),
(375,465,o),
(395,435,o),
(389,392,cs),
(387,372,o),
(383,354,o),
(379,334,cs),
(376,321,l),
(342,321,ls),
(141,321,o),
(33,257,o),
(8,139,cs),
(-13,40,o),
(53,-14,o),
(147,-14,cs),
(197,-14,o),
(245,-5,o),
(286,20,c),
(325,77,l)
);
},
{
closed = 1;
nodes = (
(146,66,o),
(114,92,o),
(126,148,cs),
(143,229,o),
(234,258,o),
(360,248,c),
(350,199,ls),
(332,113,o),
(273,66,o),
(204,66,cs)
);
}
);
width = 545;
}
);
note = abreve;
unicode = 259;
},
{
glyphname = acircumflex;
kernLeft = a;
lastChange = "2022-11-29 13:28:25 +0000";
layers = (
{
hints = (
{
horizontal = 1;
place = (-70, 24);
place = (-70, 24);
type = Stem;
},
{
horizontal = 1;
place = (192, 17);
place = (192, 17);
type = Stem;
},
{
horizontal = 1;
place = (409, 24);
place = (409, 24);
type = Stem;
},
{
horizontal = 1;
place = (522, 58);
place = (522, 58);
type = Stem;
},
{
place = (-21, 60);
place = (-21, 60);
type = Stem;
},
{
place = (308, 54);
place = (308, 54);
type = Stem;
},
{
horizontal = 1;
place = (587, -7);
place = (587, -7);
type = Stem;
},
{
horizontal = 1;
place = (-56, 10);
place = (-56, 10);
type = Stem;
}
);
layerId = m01;
shapes = (
{
closed = 1;
nodes = (
(305,578,l),
(351,643,l),
(371,578,l),
(445,578,l),
(403,692,l),
(322,692,l),
(232,578,l)
);
},
{
closed = 1;
nodes = (
(319,0,l),
(428,0,l),
(432,59,o),
(438,95,o),
(446,135,cs),
(486,322,ls),
(491,347,o),
(496,375,o),
(499,397,cs),
(509,487,o),
(468,545,o),
(331,545,cs),
(210,545,o),
(108,479,o),
(77,363,c),
(187,363,l),
(207,429,o),
(248,465,o),
(312,465,cs),
(375,465,o),
(395,435,o),
(389,392,cs),
(387,372,o),
(383,354,o),
(379,334,cs),
(376,321,l),
(342,321,ls),
(141,321,o),
(33,257,o),
(8,139,cs),
(-13,40,o),
(53,-14,o),
(147,-14,cs),
(197,-14,o),
(245,-5,o),
(286,20,c),
(325,77,l)
);
},
{
closed = 1;
nodes = (
(146,66,o),
(114,92,o),
(126,148,cs),
(143,229,o),
(234,258,o),
(360,248,c),
(350,199,ls),
(332,113,o),
(273,66,o),
(204,66,cs)
);
}
);
width = 545;
}
);
note = acircumflex;
unicode = 226;
},
{
glyphname = adieresis;
kernLeft = a;
lastChange = "2022-11-29 13:28:25 +0000";
layers = (
{
hints = (
{
horizontal = 1;
place = (-70, 24);
place = (-70, 24);
type = Stem;
},
{
horizontal = 1;
place = (192, 17);
place = (192, 17);
type = Stem;
},
{
horizontal = 1;
place = (409, 24);
place = (409, 24);
type = Stem;
},
{
horizontal = 1;
place = (524, 49);
place = (524, 49);
type = Stem;
},
{
place = (82, 51);
place = (82, 51);
type = Stem;
},
{
place = (242, 50);
place = (242, 50);
type = Stem;
},
{
horizontal = 1;
place = (-56, 10);
place = (-56, 10);
type = Stem;
},
{
place = (-21, 60);
place = (-21, 60);
type = Stem;
},
{
place = (308, 54);
place = (308, 54);
type = Stem;
}
);
layerId = m01;
shapes = (
{
closed = 1;
nodes = (
(319,0,l),
(428,0,l),
(432,59,o),
(438,95,o),
(446,135,cs),
(486,322,ls),
(491,347,o),
(496,375,o),
(499,397,cs),
(509,487,o),
(468,545,o),
(331,545,cs),
(210,545,o),
(108,479,o),
(77,363,c),
(187,363,l),
(207,429,o),
(248,465,o),
(312,465,cs),
(375,465,o),
(395,435,o),
(389,392,cs),
(387,372,o),
(383,354,o),
(379,334,cs),
(376,321,l),
(342,321,ls),
(141,321,o),
(33,257,o),
(8,139,cs),
(-13,40,o),
(53,-14,o),
(147,-14,cs),
(197,-14,o),
(245,-5,o),
(286,20,c),
(325,77,l)
);
},
{
closed = 1;
nodes = (
(146,66,o),
(114,92,o),
(126,148,cs),
(143,229,o),
(234,258,o),
(360,248,c),
(350,199,ls),
(332,113,o),
(273,66,o),
(204,66,cs)
);
},
{
closed = 1;
nodes = (
(207,583,l),
(315,583,l),
(337,689,l),
(229,689,l)
);
},
{
closed = 1;
nodes = (
(362,583,l),
(470,583,l),
(492,689,l),
(384,689,l)
);
}
);
width = 545;
}
);
note = adieresis;
unicode = 228;
},
{
glyphname = agrave;
kernLeft = a;
lastChange = "2022-11-29 13:28:25 +0000";
layers = (
{
hints = (
{
horizontal = 1;
place = (-70, 24);
place = (-70, 24);
type = Stem;
},
{
horizontal = 1;
place = (192, 17);
place = (192, 17);
type = Stem;
},
{
horizontal = 1;
place = (409, 24);
place = (409, 24);
type = Stem;
},
{
horizontal = 1;
place = (522, 58);
place = (522, 58);
type = Stem;
},
{
place = (-21, 60);
place = (-21, 60);
type = Stem;
},
{
place = (308, 54);
place = (308, 54);
type = Stem;
},
{
horizontal = 1;
place = (-56, 10);
place = (-56, 10);
type = Stem;
}
);
layerId = m01;
shapes = (
{
closed = 1;
nodes = (
(313,578,l),
(379,578,l),
(335,692,l),
(235,692,l)
);
},
{
closed = 1;
nodes = (
(319,0,l),
(428,0,l),
(432,59,o),
(438,95,o),
(446,135,cs),
(486,322,ls),
(491,347,o),
(496,375,o),
(499,397,cs),
(509,487,o),
(468,545,o),
(331,545,cs),
(210,545,o),
(108,479,o),
(77,363,c),
(187,363,l),
(207,429,o),
(248,465,o),
(312,465,cs),
(375,465,o),
(395,435,o),
(389,392,cs),
(387,372,o),
(383,354,o),
(379,334,cs),
(376,321,l),
(342,321,ls),
(141,321,o),
(33,257,o),
(8,139,cs),
(-13,40,o),
(53,-14,o),
(147,-14,cs),
(197,-14,o),
(245,-5,o),
(286,20,c),
(325,77,l)
);
},
{
closed = 1;
nodes = (
(146,66,o),
(114,92,o),
(126,148,cs),
(143,229,o),
(234,258,o),
(360,248,c),
(350,199,ls),
(332,113,o),
(273,66,o),
(204,66,cs)
);
}
);
width = 545;
}
);
note = agrave;
unicode = 224;
},
{
glyphname = amacron;
kernLeft = a;
lastChange = "2022-11-29 13:28:25 +0000";
layers = (
{
hints = (
{
horizontal = 1;
place = (-70, 24);
place = (-70, 24);
type = Stem;
},
{
horizontal = 1;
place = (192, 17);
place = (192, 17);
type = Stem;
},
{
horizontal = 1;
place = (409, 24);
place = (409, 24);
type = Stem;
},
{
horizontal = 1;
place = (544, 7);
place = (544, 7);
type = Stem;
},
{
place = (88, 199);
place = (88, 199);
type = Stem;
},
{
horizontal = 1;
place = (-56, 10);
place = (-56, 10);
type = Stem;
},
{
place = (-21, 60);
place = (-21, 60);
type = Stem;
},
{
place = (308, 54);
place = (308, 54);
type = Stem;
}
);
layerId = m01;
shapes = (
{
closed = 1;
nodes = (
(470,600,l),
(484,663,l),
(229,663,l),
(215,600,l)
);
},
{
closed = 1;
nodes = (
(319,0,l),
(428,0,l),
(432,59,o),
(438,95,o),
(446,135,cs),
(486,322,ls),
(491,347,o),
(496,375,o),
(499,397,cs),
(509,487,o),
(468,545,o),
(331,545,cs),
(210,545,o),
(108,479,o),
(77,363,c),
(187,363,l),
(207,429,o),
(248,465,o),
(312,465,cs),
(375,465,o),
(395,435,o),
(389,392,cs),
(387,372,o),
(383,354,o),
(379,334,cs),
(376,321,l),
(342,321,ls),
(141,321,o),
(33,257,o),
(8,139,cs),
(-13,40,o),
(53,-14,o),
(147,-14,cs),
(197,-14,o),
(245,-5,o),
(286,20,c),
(325,77,l)
);
},
{
closed = 1;
nodes = (
(146,66,o),
(114,92,o),
(126,148,cs),
(143,229,o),
(234,258,o),
(360,248,c),
(350,199,ls),
(332,113,o),
(273,66,o),
(204,66,cs)
);
}
);
width = 545;
}
);
note = amacron;
unicode = 257;
},
{
glyphname = aogonek;
kernLeft = a;
lastChange = "2022-11-29 13:28:25 +0000";
layers = (
{
hints = (
{
horizontal = 1;
place = (-279, 10);
place = (-279, 10);
type = Stem;
},
{
horizontal = 1;
place = (-56, 21);
target = up;
type = BottomGhost;
},
{
horizontal = 1;
place = (192, 17);
place = (192, 17);
type = Stem;
},
{
horizontal = 1;
place = (409, 24);
place = (409, 24);
type = Stem;
},
{
place = (-21, 60);
place = (-21, 60);
type = Stem;
},
{
place = (213, 46);
place = (213, 46);
type = Stem;
},
{
place = (308, 54);
place = (308, 54);
type = Stem;
},
{
horizontal = 1;
place = (-70, 24);
place = (-70, 24);
type = Stem;
}
);
layerId = m01;
shapes = (
{
closed = 1;
nodes = (
(304,-50,o),
(351,-7,o),
(397,0,c),
(428,0,l),
(432,59,o),
(438,95,o),
(446,135,cs),
(486,322,ls),
(491,347,o),
(496,375,o),
(499,397,cs),
(509,487,o),
(468,545,o),
(331,545,cs),
(210,545,o),
(108,479,o),
(77,363,c),
(187,363,l),
(207,429,o),
(248,465,o),
(312,465,cs),
(375,465,o),
(395,435,o),
(389,392,cs),
(387,372,o),
(383,354,o),
(379,334,cs),
(376,321,l),
(342,321,ls),
(141,321,o),
(33,257,o),
(8,139,cs),
(-13,40,o),
(53,-14,o),
(147,-14,cs),
(197,-14,o),
(245,-5,o),
(286,20,c),
(325,77,l),
(320,9,l),
(260,-14,o),
(198,-67,o),
(183,-138,cs),
(170,-201,o),
(205,-223,o),
(263,-223,cs),
(304,-223,o),
(341,-212,o),
(371,-192,c),
(383,-137,l),
(362,-151,o),
(343,-157,o),
(325,-157,cs),
(298,-157,o),
(284,-144,o),
(292,-107,cs)
);
},
{
closed = 1;
nodes = (
(146,66,o),
(114,92,o),
(126,148,cs),
(143,229,o),
(234,258,o),
(360,248,c),
(350,199,ls),
(332,113,o),
(273,66,o),
(204,66,cs)
);
}
);
width = 545;
}
);
note = aogonek;
unicode = 261;
},
{
glyphname = aring;
kernLeft = a;
lastChange = "2022-11-29 13:28:25 +0000";
layers = (
{
hints = (
{
horizontal = 1;
place = (-70, 24);
place = (-70, 24);
type = Stem;
},
{
horizontal = 1;
place = (192, 17);
place = (192, 17);
type = Stem;
},
{
horizontal = 1;
place = (409, 24);
place = (409, 24);
type = Stem;
},
{
horizontal = 1;
place = (510, -13);
place = (510, -13);
type = Stem;
},
{
horizontal = 1;
place = (646, -13);
place = (646, -13);
type = Stem;
},
{
place = (-21, 60);
place = (-21, 60);
type = Stem;
},
{
place = (117, 2);
place = (117, 2);
type = Stem;
},
{
place = (255, 2);
place = (255, 2);
type = Stem;
},
{
horizontal = 1;
place = (-56, 10);
place = (-56, 10);
type = Stem;
},
{
place = (308, 54);
place = (308, 54);
type = Stem;
}
);
layerId = m01;
shapes = (
{
closed = 1;
nodes = (
(392,566,o),
(441,603,o),
(452,655,cs),
(463,708,o),
(430,745,o),
(373,745,cs),
(316,745,o),
(267,708,o),
(256,655,cs),
(245,603,o),
(278,566,o),
(335,566,cs)
);
},
{
closed = 1;
nodes = (
(387,702,o),
(400,684,o),
(394,655,cs),
(388,626,o),
(367,609,o),
(344,609,cs),
(321,609,o),
(308,626,o),
(314,655,cs),
(320,684,o),
(341,702,o),
(364,702,cs)
);
},
{
closed = 1;
nodes = (
(319,0,l),
(428,0,l),
(432,59,o),
(438,95,o),
(446,135,cs),
(486,322,ls),
(491,347,o),
(496,375,o),
(499,397,cs),
(509,487,o),
(468,545,o),
(331,545,cs),
(210,545,o),
(108,479,o),
(77,363,c),
(187,363,l),
(207,429,o),
(248,465,o),
(312,465,cs),
(375,465,o),
(395,435,o),
(389,392,cs),
(387,372,o),
(383,354,o),
(379,334,cs),
(376,321,l),
(342,321,ls),
(141,321,o),
(33,257,o),
(8,139,cs),
(-13,40,o),
(53,-14,o),
(147,-14,cs),
(197,-14,o),
(245,-5,o),
(286,20,c),
(325,77,l)
);
},
{
closed = 1;
nodes = (
(146,66,o),
(114,92,o),
(126,148,cs),
(143,229,o),
(234,258,o),
(360,248,c),
(350,199,ls),
(332,113,o),
(273,66,o),
(204,66,cs)
);
}
);
width = 545;
}
);
note = aring;
unicode = 229;
},
{
glyphname = atilde;
kernLeft = a;
lastChange = "2022-11-29 13:28:25 +0000";
layers = (
{
hints = (
{
horizontal = 1;
place = (-70, 24);
place = (-70, 24);
type = Stem;
},
{
horizontal = 1;
place = (192, 17);
place = (192, 17);
type = Stem;
},
{
horizontal = 1;
place = (409, 24);
place = (409, 24);
type = Stem;
},
{
horizontal = 1;
place = (538, 30);
place = (538, 30);
type = Stem;
},
{
place = (95, -4);
place = (95, -4);
type = Stem;
},
{
place = (308, 54);
place = (308, 54);
type = Stem;
},
{
horizontal = 1;
place = (534, 31);
place = (534, 31);
type = Stem;
},
{
place = (-21, 60);
place = (-21, 60);
type = Stem;
},
{
place = (283, -3);
place = (283, -3);
type = Stem;
},
{
horizontal = 1;
place = (-56, 10);
place = (-56, 10);
type = Stem;
}
);
layerId = m01;
shapes = (
{
closed = 1;
nodes = (
(303,616,o),
(313,613,o),
(335,604,cs),
(363,594,o),
(378,590,o),
(399,590,cs),
(439,590,o),
(466,611,o),
(480,677,c),
(427,677,l),
(423,660,o),
(417,654,o),
(406,654,cs),
(398,654,o),
(386,657,o),
(364,666,cs),
(338,677,o),
(322,680,o),
(300,680,cs),
(261,680,o),
(235,659,o),
(221,594,c),
(273,594,l),
(276,610,o),
(284,616,o),
(294,616,cs)
);
},
{
closed = 1;
nodes = (
(319,0,l),
(428,0,l),
(432,59,o),
(438,95,o),
(446,135,cs),
(486,322,ls),
(491,347,o),
(496,375,o),
(499,397,cs),
(509,487,o),
(468,545,o),
(331,545,cs),
(210,545,o),
(108,479,o),
(77,363,c),
(187,363,l),
(207,429,o),
(248,465,o),
(312,465,cs),
(375,465,o),
(395,435,o),
(389,392,cs),
(387,372,o),
(383,354,o),
(379,334,cs),
(376,321,l),
(342,321,ls),
(141,321,o),
(33,257,o),
(8,139,cs),
(-13,40,o),
(53,-14,o),
(147,-14,cs),
(197,-14,o),
(245,-5,o),
(286,20,c),
(325,77,l)
);
},
{
closed = 1;
nodes = (
(146,66,o),
(114,92,o),
(126,148,cs),
(143,229,o),
(234,258,o),
(360,248,c),
(350,199,ls),
(332,113,o),
(273,66,o),
(204,66,cs)
);
}
);
width = 545;
}
);
note = atilde;
unicode = 227;
},
{
glyphname = ae;
kernLeft = a;
kernRight = ae;
lastChange = "2022-11-29 13:28:25 +0000";
layers = (
{
hints = (
{
horizontal = 1;
place = (-70, 24);
place = (-70, 24);
type = Stem;
},
{
horizontal = 1;
place = (179, 21);
place = (179, 21);
type = Stem;
},
{
horizontal = 1;
place = (409, 24);
place = (409, 24);
type = Stem;
},
{
place = (-21, 60);
place = (-21, 60);
type = Stem;
},
{
place = (322, 59);
place = (322, 59);
type = Stem;
},
{
place = (705, 57);
place = (705, 57);
type = Stem;
}
);
layerId = m01;
shapes = (
{
closed = 1;
nodes = (
(909,429,o),
(850,545,o),
(699,545,cs),
(616,545,o),
(544,511,o),
(490,450,c),
(477,511,o),
(429,545,o),
(331,545,cs),
(204,545,o),
(104,479,o),
(77,363,c),
(187,363,l),
(204,429,o),
(248,465,o),
(315,465,cs),
(390,465,o),
(410,415,o),
(393,334,cs),
(388,312,l),
(348,312,ls),
(149,312,o),
(34,261,o),
(8,140,cs),
(-13,40,o),
(58,-14,o),
(162,-14,cs),
(220,-14,o),
(279,0,o),
(336,41,c),
(387,103,l),
(411,19,o),
(478,-14,o),
(567,-14,cs),
(683,-14,o),
(795,46,o),
(846,172,c),
(734,172,l),
(709,105,o),
(652,66,o),
(587,66,cs),
(516,66,o),
(468,114,o),
(486,235,c),
(865,235,l),
(871,254,o),
(875,269,o),
(877,279,cs)
);
},
{
closed = 1;
nodes = (
(503,312,l),
(536,413,o),
(600,465,o),
(676,465,cs),
(753,465,o),
(783,410,o),
(771,312,c)
);
},
{
closed = 1;
nodes = (
(366,210,ls),
(347,121,o),
(280,66,o),
(207,66,cs),
(146,66,o),
(114,92,o),
(126,149,cs),
(142,225,o),
(228,241,o),
(372,235,c)
);
}
);
width = 910;
}
);
note = ae;
unicode = 230;
},
{
glyphname = b;
kernLeft = b;
kernRight = b;
lastChange = "2022-11-29 13:28:25 +0000";
layers = (
{
hints = (
{
horizontal = 1;
place = (-70, 24);
place = (-70, 24);
type = Stem;
},
{
horizontal = 1;
place = (409, 24);
place = (409, 24);
type = Stem;
},
{
horizontal = 1;
place = (679, -20);
target = down;
type = TopGhost;
},
{
place = (13, 54);
place = (13, 54);
type = Stem;
},
{
place = (425, 60);
place = (425, 60);
type = Stem;
},
{
horizontal = 1;
place = (-56, 21);
target = up;
type = BottomGhost;
}
);
layerId = m01;
shapes = (
{
closed = 1;
nodes = (
(364,545,o),
(305,530,o),
(270,505,c),
(218,448,l),
(279,735,l),
(169,735,l),
(13,0,l),
(123,0,l),
(138,72,l),
(162,19,l),
(184,-2,o),
(237,-14,o),
(281,-14,cs),
(418,-14,o),
(558,80,o),
(599,275,cs),
(632,430,o),
(570,545,o),
(418,545,cs)
);
},
{
closed = 1;
nodes = (
(215,66,o),
(147,114,o),
(175,244,cs),
(180,271,ls),
(210,413,o),
(293,465,o),
(375,465,cs),
(471,465,o),
(505,380,o),
(481,265,cs),
(453,133,o),
(373,66,o),
(285,66,cs)
);
}
);
width = 626;
}
);
note = b;
unicode = 98;
},
{
glyphname = c;
kernLeft = c;
lastChange = "2022-11-29 13:28:25 +0000";
layers = (
{
hints = (
{
horizontal = 1;
place = (-70, 24);
place = (-70, 24);
type = Stem;
},
{
horizontal = 1;
place = (409, 24);
place = (409, 24);
type = Stem;
},
{
place = (-27, 60);
place = (-27, 60);
type = Stem;
}
);
layerId = m01;
shapes = (
{
closed = 1;
nodes = (
(207,545,o),
(67,444,o),
(29,263,cs),
(-12,74,o),
(75,-14,o),
(214,-14,cs),
(339,-14,o),
(444,49,o),
(496,176,c),
(384,176,l),
(353,104,o),
(300,66,o),
(237,66,cs),
(163,66,o),
(116,127,o),
(146,271,cs),
(175,404,o),
(249,465,o),
(326,465,cs),
(391,465,o),
(426,428,o),
(424,347,c),
(535,347,l),
(547,464,o),
(480,545,o),
(346,545,cs)
);
}
);
width = 544;
}
);
note = c;
unicode = 99;
},
{
glyphname = cacute;
kernLeft = c;
lastChange = "2022-11-29 13:28:25 +0000";
layers = (
{
hints = (
{
horizontal = 1;
place = (-70, 24);
place = (-70, 24);
type = Stem;
},
{
horizontal = 1;
place = (409, 24);
place = (409, 24);
type = Stem;
},
{
horizontal = 1;
place = (522, 58);
place = (522, 58);
type = Stem;
},
{
place = (-27, 60);
place = (-27, 60);
type = Stem;
}
);
layerId = m01;
shapes = (
{
closed = 1;
nodes = (
(369,578,l),
(496,692,l),
(396,692,l),
(303,578,l)
);
},
{
closed = 1;
nodes = (
(207,545,o),
(67,444,o),
(29,263,cs),
(-12,74,o),
(75,-14,o),
(214,-14,cs),
(339,-14,o),
(444,49,o),
(496,176,c),
(384,176,l),
(353,104,o),
(300,66,o),
(237,66,cs),
(163,66,o),
(116,127,o),
(146,271,cs),
(175,404,o),
(249,465,o),
(326,465,cs),
(391,465,o),
(426,428,o),
(424,347,c),
(535,347,l),
(547,464,o),
(480,545,o),
(346,545,cs)
);
}
);
width = 544;
}
);
note = cacute;
unicode = 263;
},
{
glyphname = ccaron;
kernLeft = c;
lastChange = "2022-11-29 13:28:25 +0000";
layers = (
{
hints = (
{
horizontal = 1;
place = (-70, 24);
place = (-70, 24);
type = Stem;
},
{
horizontal = 1;
place = (409, 24);
place = (409, 24);
type = Stem;
},
{
horizontal = 1;
place = (522, 58);
place = (522, 58);
type = Stem;
},
{
place = (-27, 60);
place = (-27, 60);
type = Stem;
}
);
layerId = m01;
shapes = (
{
closed = 1;
nodes = (
(302,578,l),
(383,578,l),
(473,692,l),
(400,692,l),
(353,626,l),
(334,692,l),
(260,692,l)
);
},
{
closed = 1;
nodes = (
(163,66,o),
(116,127,o),
(146,271,cs),
(175,404,o),
(249,465,o),
(326,465,cs),
(391,465,o),
(426,428,o),
(424,347,c),
(535,347,l),
(547,464,o),
(480,545,o),
(346,545,cs),
(207,545,o),
(67,444,o),
(29,263,cs),
(-12,74,o),
(75,-14,o),
(214,-14,cs),
(339,-14,o),
(444,49,o),
(496,176,c),
(384,176,l),
(353,104,o),
(300,66,o),
(237,66,cs)
);
}
);
width = 544;
}
);
note = ccaron;
unicode = 269;
},
{
glyphname = ccedilla;
kernLeft = c;
lastChange = "2022-11-29 13:28:25 +0000";
layers = (
{
hints = (
{
horizontal = 1;
place = (-266, -7);
place = (-266, -7);
type = Stem;
},
{
horizontal = 1;
place = (-137, 91);
place = (-137, 91);
type = Stem;
},
{
horizontal = 1;
place = (409, 24);
place = (409, 24);
type = Stem;
},
{
place = (-27, 60);
place = (-27, 60);
type = Stem;
},
{
place = (237, 14);
place = (237, 14);
type = Stem;
},
{
horizontal = 1;
place = (-67, 21);
target = up;
type = BottomGhost;
}
);
layerId = m01;
shapes = (
{
closed = 1;
nodes = (
(163,66,o),
(116,127,o),
(146,271,cs),
(175,404,o),
(249,465,o),
(326,465,cs),
(391,465,o),
(426,428,o),
(424,347,c),
(535,347,l),
(547,464,o),
(480,545,o),
(346,545,cs),
(207,545,o),
(67,444,o),
(29,263,cs),
(-8,92,o),
(59,4,o),
(174,-11,c),
(123,-81,l),
(195,-76,o),
(217,-91,o),
(211,-122,cs),
(206,-146,o),
(182,-161,o),
(140,-161,cs),
(121,-161,o),
(105,-159,o),
(89,-151,c),
(78,-202,l),
(91,-208,o),
(109,-210,o),
(128,-210,cs),
(206,-210,o),
(268,-181,o),
(281,-122,cs),
(291,-76,o),
(267,-48,o),
(214,-41,c),
(234,-13,l),
(350,-7,o),
(447,56,o),
(496,176,c),
(384,176,l),
(353,104,o),
(300,66,o),
(237,66,cs)
);
}
);
width = 544;
}
);
note = ccedilla;
unicode = 231;
},
{
glyphname = cdotaccent;
kernLeft = c;
lastChange = "2022-11-29 13:28:25 +0000";
layers = (
{
hints = (
{
horizontal = 1;
place = (-70, 24);
place = (-70, 24);
type = Stem;
},
{
horizontal = 1;
place = (409, 24);
place = (409, 24);
type = Stem;
},
{
horizontal = 1;
place = (533, 71);
place = (533, 71);
type = Stem;
},
{
place = (-27, 60);
place = (-27, 60);
type = Stem;
},
{
place = (155, 73);
place = (155, 73);
type = Stem;
}
);
layerId = m01;
shapes = (
{
closed = 1;
nodes = (
(334,716,o),
(301,689,o),
(293,653,cs),
(286,616,o),
(307,589,o),
(344,589,cs),
(381,589,o),
(415,616,o),
(422,653,cs),
(430,689,o),
(408,716,o),
(371,716,cs)
);
},
{
closed = 1;
nodes = (
(207,545,o),
(67,444,o),
(29,263,cs),
(-12,74,o),
(75,-14,o),
(214,-14,cs),
(339,-14,o),
(444,49,o),
(496,176,c),
(384,176,l),
(353,104,o),
(300,66,o),
(237,66,cs),
(163,66,o),
(116,127,o),
(146,271,cs),
(175,404,o),
(249,465,o),
(326,465,cs),
(391,465,o),
(426,428,o),
(424,347,c),
(535,347,l),
(547,464,o),
(480,545,o),
(346,545,cs)
);
}
);
width = 544;
}
);
note = cdotaccent;
unicode = 267;
},
{
glyphname = d;
kernLeft = c;
lastChange = "2022-11-29 13:28:25 +0000";
layers = (
{
hints = (
{
horizontal = 1;
place = (-70, 24);
place = (-70, 24);
type = Stem;
},
{
horizontal = 1;
place = (409, 24);
place = (409, 24);
type = Stem;
},
{
horizontal = 1;
place = (679, -20);
target = down;
type = TopGhost;
},
{
place = (-27, 60);
place = (-27, 60);
type = Stem;
},
{
place = (391, 54);
place = (391, 54);
type = Stem;
},
{
horizontal = 1;
place = (-56, 21);
target = up;
type = BottomGhost;
}
);
layerId = m01;
shapes = (
{
closed = 1;
nodes = (
(657,735,l),
(547,735,l),
(488,459,l),
(465,512,l),
(442,533,o),
(390,545,o),
(346,545,cs),
(209,545,o),
(69,451,o),
(27,257,cs),
(-6,101,o),
(57,-14,o),
(209,-14,cs),
(263,-14,o),
(321,2,o),
(356,26,c),
(409,84,l),
(391,0,l),
(501,0,l)
);
},
{
closed = 1;
nodes = (
(156,66,o),
(121,151,o),
(145,266,cs),
(173,398,o),
(254,465,o),
(341,465,cs),
(412,465,o),
(479,417,o),
(452,288,cs),
(446,260,ls),
(416,118,o),
(334,66,o),
(251,66,cs)
);
}
);
width = 629;
}
);
note = d;
unicode = 100;
},
{
glyphname = eth;
kernLeft = c;
lastChange = "2022-11-29 13:28:25 +0000";
layers = (
{
hints = (
{
horizontal = 1;
place = (-70, 27);
place = (-70, 27);
type = Stem;
},
{
horizontal = 1;
place = (407, 26);
place = (407, 26);
type = Stem;
},
{
horizontal = 1;
place = (689, -20);
target = down;
type = TopGhost;
},
{
place = (-27, 61);
place = (-27, 61);
type = Stem;
},
{
place = (386, 60);
place = (386, 60);
type = Stem;
}
);
layerId = m01;
shapes = (
{
closed = 1;
nodes = (
(593,652,l),
(588,710,l),
(510,685,l),
(486,709,o),
(456,728,o),
(421,745,c),
(330,687,l),
(356,676,o),
(379,664,o),
(398,650,c),
(289,615,l),
(295,558,l),
(442,604,l),
(470,565,o),
(479,516,o),
(473,457,c),
(440,516,l),
(408,538,o),
(380,545,o),
(336,545,cs),
(204,545,o),
(66,440,o),
(28,260,cs),
(-6,102,o),
(56,-14,o),
(231,-14,cs),
(368,-14,o),
(517,72,o),
(567,307,cs),
(598,453,o),
(595,560,o),
(548,638,c)
);
},
{
closed = 1;
nodes = (
(441,260,ls),
(414,132,o),
(337,69,o),
(252,69,cs),
(155,69,o),
(120,142,o),
(146,267,cs),
(171,384,o),
(246,463,o),
(336,463,cs),
(409,463,o),
(473,411,o),
(447,289,cs)
);
}
);
width = 604;
}
);
note = eth;
unicode = 240;
},
{
glyphname = dcaron;
kernLeft = c;
lastChange = "2022-11-29 13:28:25 +0000";
layers = (
{
hints = (
{
horizontal = 1;
place = (-70, 24);
place = (-70, 24);
type = Stem;
},
{
horizontal = 1;
place = (409, 24);
place = (409, 24);
type = Stem;
},
{
horizontal = 1;
place = (527, 97);
place = (527, 97);
type = Stem;
},
{
place = (-27, 60);
place = (-27, 60);
type = Stem;
},
{
place = (391, 54);
place = (391, 54);
type = Stem;
},
{
horizontal = 1;
place = (527, 96);
place = (527, 96);
type = Stem;
},
{
horizontal = 1;
place = (-56, 21);
target = up;
type = BottomGhost;
}
);
layerId = m01;
shapes = (
{
closed = 1;
nodes = (
(823,736,l),
(742,736,l),
(650,583,l),
(720,583,l),
(821,724,l)
);
},
{
closed = 1;
nodes = (
(547,735,l),
(488,459,l),
(465,512,l),
(442,533,o),
(390,545,o),
(346,545,cs),
(209,545,o),
(69,451,o),
(27,257,cs),
(-6,101,o),
(57,-14,o),
(209,-14,cs),
(263,-14,o),
(321,2,o),
(356,26,c),
(409,84,l),
(391,0,l),
(501,0,l),
(657,735,l)
);
},
{
closed = 1;
nodes = (
(156,66,o),
(121,151,o),
(145,266,cs),
(173,398,o),
(254,465,o),
(341,465,cs),
(412,465,o),
(479,417,o),
(452,288,cs),
(446,260,ls),
(416,118,o),
(334,66,o),
(251,66,cs)
);
}
);
width = 629;
}
);
note = dcaron;
unicode = 271;
},
{
glyphname = dcroat;
kernLeft = c;
lastChange = "2022-11-29 13:28:25 +0000";
layers = (
{
hints = (
{
horizontal = 1;
place = (-70, 24);
place = (-70, 24);
type = Stem;
},
{
horizontal = 1;
place = (409, 24);
place = (409, 24);
type = Stem;
},
{
horizontal = 1;
place = (534, 89);
place = (534, 89);
type = Stem;
},
{
place = (-27, 60);
place = (-27, 60);
type = Stem;
},
{
place = (391, 54);
place = (391, 54);
type = Stem;
},
{
horizontal = 1;
place = (534, 10);
place = (534, 10);
type = Stem;
},
{
horizontal = 1;
place = (-56, 21);
target = up;
type = BottomGhost;
}
);
layerId = m01;
shapes = (
{
closed = 1;
nodes = (
(669,590,l),
(683,656,l),
(640,656,l),
(657,735,l),
(547,735,l),
(530,656,l),
(413,656,l),
(399,590,l),
(516,590,l),
(488,459,l),
(465,512,l),
(442,533,o),
(390,545,o),
(346,545,cs),
(209,545,o),
(69,451,o),
(27,257,cs),
(-6,101,o),
(57,-14,o),
(209,-14,cs),
(263,-14,o),
(321,2,o),
(356,26,c),
(409,84,l),
(391,0,l),
(501,0,l),
(626,590,l)
);
},
{
closed = 1;
nodes = (
(156,66,o),
(121,151,o),
(145,266,cs),
(173,398,o),
(254,465,o),
(341,465,cs),
(412,465,o),
(479,417,o),
(452,288,cs),
(446,260,ls),
(416,118,o),
(334,66,o),
(251,66,cs)
);
}
);
width = 632;
}
);
note = dcroat;
unicode = 273;
},
{
glyphname = e;
kernLeft = c;
kernRight = ae;
lastChange = "2022-11-29 13:28:25 +0000";
layers = (
{
hints = (
{
horizontal = 1;
place = (-70, 24);
place = (-70, 24);
type = Stem;
},
{
horizontal = 1;
place = (179, 21);
place = (179, 21);
type = Stem;
},
{
horizontal = 1;
place = (409, 24);
place = (409, 24);
type = Stem;
},
{
place = (-27, 59);
place = (-27, 59);
type = Stem;
},
{
place = (357, 57);
place = (357, 57);
type = Stem;
}
);
layerId = m01;
shapes = (
{
closed = 1;
nodes = (
(561,429,o),
(503,545,o),
(349,545,cs),
(196,545,o),
(64,432,o),
(29,264,cs),
(-11,76,o),
(77,-14,o),
(219,-14,cs),
(335,-14,o),
(448,46,o),
(498,172,c),
(387,172,l),
(362,105,o),
(304,66,o),
(240,66,cs),
(168,66,o),
(119,108,o),
(137,235,c),
(518,235,l),
(524,254,o),
(527,269,o),
(529,279,cs)
);
},
{
closed = 1;
nodes = (
(405,465,o),
(436,410,o),
(423,312,c),
(154,312,l),
(188,414,o),
(253,465,o),
(328,465,cs)
);
}
);
width = 562;
}
);
note = e;
unicode = 101;
},
{
glyphname = eacute;
kernLeft = c;
kernRight = ae;
lastChange = "2022-11-29 13:28:25 +0000";
layers = (
{
hints = (
{
horizontal = 1;
place = (-70, 24);
place = (-70, 24);
type = Stem;
},
{
horizontal = 1;
place = (179, 21);
place = (179, 21);
type = Stem;
},
{
horizontal = 1;
place = (409, 24);
place = (409, 24);
type = Stem;
},
{
horizontal = 1;
place = (522, 58);
place = (522, 58);
type = Stem;
},
{
place = (-27, 59);
place = (-27, 59);
type = Stem;
},
{
place = (357, 57);
place = (357, 57);
type = Stem;
}
);
layerId = m01;
shapes = (
{
closed = 1;
nodes = (
(377,578,l),
(504,692,l),
(404,692,l),
(311,578,l)
);
},
{
closed = 1;
nodes = (
(561,429,o),
(503,545,o),
(349,545,cs),
(196,545,o),
(64,432,o),
(29,264,cs),
(-11,76,o),
(77,-14,o),
(219,-14,cs),
(335,-14,o),
(448,46,o),
(498,172,c),
(387,172,l),
(362,105,o),
(304,66,o),
(240,66,cs),
(168,66,o),
(119,108,o),
(137,235,c),
(518,235,l),
(524,254,o),
(527,269,o),
(529,279,cs)
);
},
{
closed = 1;
nodes = (
(405,465,o),
(436,410,o),
(423,312,c),
(154,312,l),
(188,414,o),
(253,465,o),
(328,465,cs)
);
}
);
width = 562;
}
);
note = eacute;
unicode = 233;
},
{
glyphname = ecaron;
kernLeft = c;
kernRight = ae;
lastChange = "2022-11-29 13:28:25 +0000";
layers = (
{
hints = (
{
horizontal = 1;
place = (-70, 24);
place = (-70, 24);
type = Stem;
},
{
horizontal = 1;
place = (179, 21);
place = (179, 21);
type = Stem;
},
{
horizontal = 1;
place = (409, 24);
place = (409, 24);
type = Stem;
},
{
horizontal = 1;
place = (522, 58);
place = (522, 58);
type = Stem;
},
{
place = (-27, 59);
place = (-27, 59);
type = Stem;
},
{
place = (357, 57);
place = (357, 57);
type = Stem;
}
);
layerId = m01;
shapes = (
{
closed = 1;
nodes = (
(310,578,l),
(391,578,l),
(481,692,l),
(408,692,l),
(361,626,l),
(342,692,l),
(268,692,l)
);
},
{
closed = 1;
nodes = (
(561,429,o),
(503,545,o),
(349,545,cs),
(196,545,o),
(64,432,o),
(29,264,cs),
(-11,76,o),
(77,-14,o),
(219,-14,cs),
(335,-14,o),
(448,46,o),
(498,172,c),
(387,172,l),
(362,105,o),
(304,66,o),
(240,66,cs),
(168,66,o),
(119,108,o),
(137,235,c),
(518,235,l),
(524,254,o),
(527,269,o),
(529,279,cs)
);
},
{
closed = 1;
nodes = (
(405,465,o),
(436,410,o),
(423,312,c),
(154,312,l),
(188,414,o),
(253,465,o),
(328,465,cs)
);
}
);
width = 562;
}
);
note = ecaron;
unicode = 283;
},
{
glyphname = ecircumflex;
kernLeft = c;
kernRight = ae;
lastChange = "2022-11-29 13:28:25 +0000";
layers = (
{
hints = (
{
horizontal = 1;
place = (-70, 24);
place = (-70, 24);
type = Stem;
},
{
horizontal = 1;
place = (179, 21);
place = (179, 21);
type = Stem;
},
{
horizontal = 1;
place = (409, 24);
place = (409, 24);
type = Stem;
},
{
horizontal = 1;
place = (522, 58);
place = (522, 58);
type = Stem;
},
{
place = (-27, 59);
place = (-27, 59);
type = Stem;
},
{
place = (357, 57);
place = (357, 57);
type = Stem;
},
{
horizontal = 1;
place = (587, -7);
place = (587, -7);
type = Stem;
}
);
layerId = m01;
shapes = (
{
closed = 1;
nodes = (
(317,578,l),
(363,643,l),
(383,578,l),
(457,578,l),
(415,692,l),
(334,692,l),
(244,578,l)
);
},
{
closed = 1;
nodes = (
(561,429,o),
(503,545,o),
(349,545,cs),
(196,545,o),
(64,432,o),
(29,264,cs),
(-11,76,o),
(77,-14,o),
(219,-14,cs),
(335,-14,o),
(448,46,o),
(498,172,c),
(387,172,l),
(362,105,o),
(304,66,o),
(240,66,cs),
(168,66,o),
(119,108,o),
(137,235,c),
(518,235,l),
(524,254,o),
(527,269,o),
(529,279,cs)
);
},
{
closed = 1;
nodes = (
(405,465,o),
(436,410,o),
(423,312,c),
(154,312,l),
(188,414,o),
(253,465,o),
(328,465,cs)
);
}
);
width = 562;
}
);
note = ecircumflex;
unicode = 234;
},
{
glyphname = edieresis;
kernLeft = c;
kernRight = ae;
lastChange = "2022-11-29 13:28:25 +0000";
layers = (
{
hints = (
{
horizontal = 1;
place = (-70, 24);
place = (-70, 24);
type = Stem;
},
{
horizontal = 1;
place = (179, 21);
place = (179, 21);
type = Stem;
},
{
horizontal = 1;
place = (409, 24);
place = (409, 24);
type = Stem;
},
{
horizontal = 1;
place = (524, 49);
place = (524, 49);
type = Stem;
},
{
place = (94, 51);
place = (94, 51);
type = Stem;
},
{
place = (254, 50);
place = (254, 50);
type = Stem;
},
{
place = (-27, 59);
place = (-27, 59);
type = Stem;
},
{
place = (357, 57);
place = (357, 57);
type = Stem;
}
);
layerId = m01;
shapes = (
{
closed = 1;
nodes = (
(561,429,o),
(503,545,o),
(349,545,cs),
(196,545,o),
(64,432,o),
(29,264,cs),
(-11,76,o),
(77,-14,o),
(219,-14,cs),
(335,-14,o),
(448,46,o),
(498,172,c),
(387,172,l),
(362,105,o),
(304,66,o),
(240,66,cs),
(168,66,o),
(119,108,o),
(137,235,c),
(518,235,l),
(524,254,o),
(527,269,o),
(529,279,cs)
);
},
{
closed = 1;
nodes = (
(405,465,o),
(436,410,o),
(423,312,c),
(154,312,l),
(188,414,o),
(253,465,o),
(328,465,cs)
);
},
{
closed = 1;
nodes = (
(222,580,l),
(330,580,l),
(352,686,l),
(244,686,l)
);
},
{
closed = 1;
nodes = (
(377,580,l),
(485,580,l),
(507,686,l),
(399,686,l)
);
}
);
width = 562;
}
);
note = edieresis;
unicode = 235;
},
{
glyphname = edotaccent;
kernLeft = c;
kernRight = ae;
lastChange = "2022-11-29 13:28:25 +0000";
layers = (
{
hints = (
{
horizontal = 1;
place = (-70, 24);
place = (-70, 24);
type = Stem;
},
{
horizontal = 1;
place = (179, 21);
place = (179, 21);
type = Stem;
},
{
horizontal = 1;
place = (409, 24);
place = (409, 24);
type = Stem;
},
{
horizontal = 1;
place = (533, 71);
place = (533, 71);
type = Stem;
},
{
place = (-27, 59);
place = (-27, 59);
type = Stem;
},
{
place = (163, 73);
place = (163, 73);
type = Stem;
},
{
place = (357, 57);
place = (357, 57);
type = Stem;
}
);
layerId = m01;
shapes = (
{
closed = 1;
nodes = (
(389,589,o),
(423,616,o),
(430,653,cs),
(438,689,o),
(416,716,o),
(379,716,cs),
(342,716,o),
(309,689,o),
(301,653,cs),
(294,616,o),
(315,589,o),
(352,589,cs)
);
},
{
closed = 1;
nodes = (
(561,429,o),
(503,545,o),
(349,545,cs),
(196,545,o),
(64,432,o),
(29,264,cs),
(-11,76,o),
(77,-14,o),
(219,-14,cs),
(335,-14,o),
(448,46,o),
(498,172,c),
(387,172,l),
(362,105,o),
(304,66,o),
(240,66,cs),
(168,66,o),
(119,108,o),
(137,235,c),
(518,235,l),
(524,254,o),
(527,269,o),
(529,279,cs)
);
},
{
closed = 1;
nodes = (
(405,465,o),
(436,410,o),
(423,312,c),
(154,312,l),
(188,414,o),
(253,465,o),
(328,465,cs)
);
}
);
width = 562;
}
);
note = edotaccent;
unicode = 279;
},
{
glyphname = egrave;
kernLeft = c;
kernRight = ae;
lastChange = "2022-11-29 13:28:25 +0000";
layers = (
{
hints = (
{
horizontal = 1;
place = (-70, 24);
place = (-70, 24);
type = Stem;
},
{
horizontal = 1;
place = (179, 21);
place = (179, 21);
type = Stem;
},
{
horizontal = 1;
place = (409, 24);
place = (409, 24);
type = Stem;
},
{
horizontal = 1;
place = (522, 58);
place = (522, 58);
type = Stem;
},
{
place = (-27, 59);
place = (-27, 59);
type = Stem;
},
{
place = (357, 57);
place = (357, 57);
type = Stem;
}
);
layerId = m01;
shapes = (
{
closed = 1;
nodes = (
(325,578,l),
(391,578,l),
(347,692,l),
(247,692,l)
);
},
{
closed = 1;
nodes = (
(561,429,o),
(503,545,o),
(349,545,cs),
(196,545,o),
(64,432,o),
(29,264,cs),
(-11,76,o),
(77,-14,o),
(219,-14,cs),
(335,-14,o),
(448,46,o),
(498,172,c),
(387,172,l),
(362,105,o),
(304,66,o),
(240,66,cs),
(168,66,o),
(119,108,o),
(137,235,c),
(518,235,l),
(524,254,o),
(527,269,o),
(529,279,cs)
);
},
{
closed = 1;
nodes = (
(405,465,o),
(436,410,o),
(423,312,c),
(154,312,l),
(188,414,o),
(253,465,o),
(328,465,cs)
);
}
);
width = 562;
}
);
note = egrave;
unicode = 232;
},
{
glyphname = emacron;
kernLeft = c;
kernRight = ae;
lastChange = "2022-11-29 13:28:25 +0000";
layers = (
{
hints = (
{
horizontal = 1;
place = (-70, 24);
place = (-70, 24);
type = Stem;
},
{
horizontal = 1;
place = (179, 21);
place = (179, 21);
type = Stem;
},
{
horizontal = 1;
place = (409, 24);
place = (409, 24);
type = Stem;
},
{
horizontal = 1;
place = (544, 7);
place = (544, 7);
type = Stem;
},
{
place = (-27, 59);
place = (-27, 59);
type = Stem;
},
{
place = (100, 199);
place = (100, 199);
type = Stem;
},
{
place = (357, 57);
place = (357, 57);
type = Stem;
}
);
layerId = m01;
shapes = (
{
closed = 1;
nodes = (
(482,600,l),
(496,663,l),
(241,663,l),
(227,600,l)
);
},
{
closed = 1;
nodes = (
(561,429,o),
(503,545,o),
(349,545,cs),
(196,545,o),
(64,432,o),
(29,264,cs),
(-11,76,o),
(77,-14,o),
(219,-14,cs),
(335,-14,o),
(448,46,o),
(498,172,c),
(387,172,l),
(362,105,o),
(304,66,o),
(240,66,cs),
(168,66,o),
(119,108,o),
(137,235,c),
(518,235,l),
(524,254,o),
(527,269,o),
(529,279,cs)
);
},
{
closed = 1;
nodes = (
(405,465,o),
(436,410,o),
(423,312,c),
(154,312,l),
(188,414,o),
(253,465,o),
(328,465,cs)
);
}
);
width = 562;
}
);
note = emacron;
unicode = 275;
},
{
glyphname = eogonek;
kernLeft = c;
kernRight = ae;
lastChange = "2022-11-29 13:28:25 +0000";
layers = (
{
hints = (
{
horizontal = 1;
place = (-279, 10);
place = (-279, 10);
type = Stem;
},
{
horizontal = 1;
place = (-69, 23);
place = (-69, 23);
type = Stem;
},
{
horizontal = 1;
place = (179, 21);
place = (179, 21);
type = Stem;
},
{
horizontal = 1;
place = (409, 24);
place = (409, 24);
type = Stem;
},
{
place = (-27, 59);
place = (-27, 59);
type = Stem;
},
{
place = (130, 46);
place = (130, 46);
type = Stem;
},
{
place = (357, 57);
place = (357, 57);
type = Stem;
}
);
layerId = m01;
shapes = (
{
closed = 1;
nodes = (
(561,429,o),
(503,545,o),
(349,545,cs),
(196,545,o),
(64,432,o),
(29,264,cs),
(-9,88,o),
(66,-2,o),
(193,-13,c),
(150,-41,o),
(112,-84,o),
(100,-138,cs),
(87,-201,o),
(122,-223,o),
(180,-223,cs),
(221,-223,o),
(258,-212,o),
(288,-192,c),
(300,-137,l),
(279,-151,o),
(260,-157,o),
(242,-157,cs),
(215,-157,o),
(201,-144,o),
(209,-107,cs),
(219,-58,o),
(255,-20,o),
(294,-5,c),
(300,-4,o),
(306,-2,o),
(314,0,cs),
(393,24,o),
(462,81,o),
(498,172,c),
(387,172,l),
(362,105,o),
(304,66,o),
(240,66,cs),
(168,66,o),
(119,108,o),
(137,235,c),
(518,235,l),
(524,254,o),
(527,269,o),
(529,279,cs)
);
},
{
closed = 1;
nodes = (
(405,465,o),
(436,410,o),
(423,312,c),
(154,312,l),
(188,414,o),
(253,465,o),
(328,465,cs)
);
}
);
width = 562;
}
);
note = eogonek;
unicode = 281;
},
{
glyphname = f;
lastChange = "2022-11-29 13:28:25 +0000";
layers = (
{
hints = (
{
horizontal = 1;
place = (-56, 21);
target = up;
type = BottomGhost;
},
{
horizontal = 1;
place = (394, 21);
place = (394, 21);
type = Stem;
},
{
horizontal = 1;
place = (613, 22);
place = (613, 22);
type = Stem;
},
{
place = (22, 53);
place = (22, 53);
type = Stem;
}
);
layerId = m01;
shapes = (
{
closed = 1;
nodes = (
(280,662,o),
(328,678,o),
(390,666,c),
(408,748,l),
(391,752,o),
(370,754,o),
(348,754,cs),
(248,754,o),
(183,706,o),
(156,624,cs),
(150,606,o),
(145,580,o),
(141,561,cs),
(134,527,l),
(77,527,l),
(60,450,l),
(117,450,l),
(22,0,l),
(131,0,l),
(226,450,l),
(335,450,l),
(352,527,l),
(243,527,l),
(251,567,ls),
(254,582,o),
(260,604,o),
(265,618,cs)
);
}
);
width = 312;
}
);
note = f;
unicode = 102;
},
{
glyphname = g;
kernLeft = c;
lastChange = "2022-11-29 13:28:25 +0000";
layers = (
{
hints = (
{
horizontal = 1;
place = (-269, 27);
place = (-269, 27);
type = Stem;
},
{
horizontal = 1;
place = (-65, 24);
place = (-65, 24);
type = Stem;
},
{
horizontal = 1;
place = (475, -20);
target = down;
type = TopGhost;
},
{
place = (-27, 60);
place = (-27, 60);
type = Stem;
},
{
place = (391, 54);
place = (391, 54);
type = Stem;
},
{
horizontal = 1;
place = (409, 24);
place = (409, 24);
type = Stem;
},
{
place = (-11, 52);
place = (-11, 52);
type = Stem;
}
);
layerId = m01;
shapes = (
{
closed = 1;
nodes = (
(614,531,l),
(504,531,l),
(488,459,l),
(465,512,l),
(442,533,o),
(390,545,o),
(346,545,cs),
(209,545,o),
(69,453,o),
(28,259,cs),
(-5,103,o),
(60,-9,o),
(213,-9,cs),
(267,-9,o),
(322,7,o),
(357,31,c),
(410,89,l),
(407,78,ls),
(403,59,o),
(399,40,o),
(393,17,cs),
(369,-78,o),
(303,-130,o),
(207,-130,cs),
(125,-130,o),
(84,-91,o),
(89,-34,cs),
(90,-25,l),
(-18,-25,l),
(-19,-35,ls),
(-32,-149,o),
(35,-213,o),
(188,-213,cs),
(348,-213,o),
(466,-132,o),
(506,29,cs),
(513,58,o),
(522,99,o),
(529,132,cs)
);
},
{
closed = 1;
nodes = (
(157,71,o),
(121,154,o),
(146,269,cs),
(174,401,o),
(254,465,o),
(341,465,cs),
(412,465,o),
(479,417,o),
(452,288,cs),
(447,265,ls),
(417,123,o),
(335,71,o),
(252,71,cs)
);
}
);
width = 629;
}
);
note = g;
unicode = 103;
},
{
glyphname = gbreve;
kernLeft = c;
lastChange = "2022-11-29 13:28:25 +0000";
layers = (
{
hints = (
{
horizontal = 1;
place = (-269, 27);
place = (-269, 27);
type = Stem;
},
{
horizontal = 1;
place = (-65, 24);
place = (-65, 24);
type = Stem;
},
{
horizontal = 1;
place = (409, 24);
place = (409, 24);
type = Stem;
},
{
horizontal = 1;
place = (511, 69);
place = (511, 69);
type = Stem;
},
{
place = (-27, 60);
place = (-27, 60);
type = Stem;
},
{
place = (144, 6);
place = (144, 6);
type = Stem;
},
{
place = (302, 6);
place = (302, 6);
type = Stem;
},
{
place = (391, 54);
place = (391, 54);
type = Stem;
},
{
horizontal = 1;
place = (511, 6);
place = (511, 6);
type = Stem;
},
{
horizontal = 1;
place = (475, -20);
target = down;
type = TopGhost;
},
{
place = (-11, 52);
place = (-11, 52);
type = Stem;
}
);
layerId = m01;
shapes = (
{
closed = 1;
nodes = (
(445,567,o),
(492,605,o),
(511,692,c),
(449,692,l),
(438,646,o),
(416,629,o),
(387,629,cs),
(358,629,o),
(344,646,o),
(353,692,c),
(291,692,l),
(272,605,o),
(302,567,o),
(374,567,cs)
);
},
{
closed = 1;
nodes = (
(614,531,l),
(504,531,l),
(488,459,l),
(465,512,l),
(442,533,o),
(390,545,o),
(346,545,cs),
(209,545,o),
(69,453,o),
(28,259,cs),
(-5,103,o),
(60,-9,o),
(213,-9,cs),
(267,-9,o),
(322,7,o),
(357,31,c),
(410,89,l),
(407,78,ls),
(403,59,o),
(399,40,o),
(393,17,cs),
(369,-78,o),
(303,-130,o),
(207,-130,cs),
(125,-130,o),
(84,-91,o),
(89,-34,cs),
(90,-25,l),
(-18,-25,l),
(-19,-35,ls),
(-32,-149,o),
(35,-213,o),
(188,-213,cs),
(348,-213,o),
(466,-132,o),
(506,29,cs),
(513,58,o),
(522,99,o),
(529,132,cs)
);
},
{
closed = 1;
nodes = (
(157,71,o),
(121,154,o),
(146,269,cs),
(174,401,o),
(254,465,o),
(341,465,cs),
(412,465,o),
(479,417,o),
(452,288,cs),
(447,265,ls),
(417,123,o),
(335,71,o),
(252,71,cs)
);
}
);
width = 629;
}
);
note = gbreve;
unicode = 287;
},
{
glyphname = gcommaaccent;
kernLeft = c;
lastChange = "2022-11-29 13:28:25 +0000";
layers = (
{
hints = (
{
horizontal = 1;
place = (-269, 27);
place = (-269, 27);
type = Stem;
},
{
horizontal = 1;
place = (-65, 24);
place = (-65, 24);
type = Stem;
},
{
horizontal = 1;
place = (409, 24);
place = (409, 24);
type = Stem;
},
{
horizontal = 1;
place = (522, 96);
place = (522, 96);
type = Stem;
},
{
place = (-27, 60);
place = (-27, 60);
type = Stem;
},
{
place = (391, 54);
place = (391, 54);
type = Stem;
},
{
horizontal = 1;
place = (475, -20);
target = down;
type = TopGhost;
},
{
place = (-11, 52);
place = (-11, 52);
type = Stem;
}
);
layerId = m01;
shapes = (
{
closed = 1;
nodes = (
(410,578,l),
(502,730,l),
(432,730,l),
(332,589,l),
(330,578,l)
);
},
{
closed = 1;
nodes = (
(614,531,l),
(504,531,l),
(488,459,l),
(465,512,l),
(442,533,o),
(390,545,o),
(346,545,cs),
(209,545,o),
(69,453,o),
(28,259,cs),
(-5,103,o),
(60,-9,o),
(213,-9,cs),
(267,-9,o),
(322,7,o),
(357,31,c),
(410,89,l),
(407,78,ls),
(403,59,o),
(399,40,o),
(393,17,cs),
(369,-78,o),
(303,-130,o),
(207,-130,cs),
(125,-130,o),
(84,-91,o),
(89,-34,cs),
(90,-25,l),
(-18,-25,l),
(-19,-35,ls),
(-32,-149,o),
(35,-213,o),
(188,-213,cs),
(348,-213,o),
(466,-132,o),
(506,29,cs),
(513,58,o),
(522,99,o),
(529,132,cs)
);
},
{
closed = 1;
nodes = (
(157,71,o),
(121,154,o),
(146,269,cs),
(174,401,o),
(254,465,o),
(341,465,cs),
(412,465,o),
(479,417,o),
(452,288,cs),
(447,265,ls),
(417,123,o),
(335,71,o),
(252,71,cs)
);
}
);
width = 629;
}
);
note = gcommaaccent;
unicode = 291;
},
{
glyphname = gdotaccent;
kernLeft = c;
lastChange = "2022-11-29 13:28:25 +0000";
layers = (
{
hints = (
{
horizontal = 1;
place = (-269, 27);
place = (-269, 27);
type = Stem;
},
{
horizontal = 1;
place = (-65, 24);
place = (-65, 24);
type = Stem;
},
{
horizontal = 1;
place = (409, 24);
place = (409, 24);
type = Stem;
},
{
horizontal = 1;
place = (533, 71);
place = (533, 71);
type = Stem;
},
{
place = (-27, 60);
place = (-27, 60);
type = Stem;
},
{
place = (190, 73);
place = (190, 73);
type = Stem;
},
{
place = (391, 54);
place = (391, 54);
type = Stem;
},
{
horizontal = 1;
place = (475, -20);
target = down;
type = TopGhost;
},
{
place = (-11, 52);
place = (-11, 52);
type = Stem;
}
);
layerId = m01;
shapes = (
{
closed = 1;
nodes = (
(416,589,o),
(450,616,o),
(457,653,cs),
(465,689,o),
(443,716,o),
(406,716,cs),
(369,716,o),
(336,689,o),
(328,653,cs),
(321,616,o),
(342,589,o),
(379,589,cs)
);
},
{
closed = 1;
nodes = (
(614,531,l),
(504,531,l),
(488,459,l),
(465,512,l),
(442,533,o),
(390,545,o),
(346,545,cs),
(209,545,o),
(69,453,o),
(28,259,cs),
(-5,103,o),
(60,-9,o),
(213,-9,cs),
(267,-9,o),
(322,7,o),
(357,31,c),
(410,89,l),
(407,78,ls),
(403,59,o),
(399,40,o),
(393,17,cs),
(369,-78,o),
(303,-130,o),
(207,-130,cs),
(125,-130,o),
(84,-91,o),
(89,-34,cs),
(90,-25,l),
(-18,-25,l),
(-19,-35,ls),
(-32,-149,o),
(35,-213,o),
(188,-213,cs),
(348,-213,o),
(466,-132,o),
(506,29,cs),
(513,58,o),
(522,99,o),
(529,132,cs)
);
},
{
closed = 1;
nodes = (
(157,71,o),
(121,154,o),
(146,269,cs),
(174,401,o),
(254,465,o),
(341,465,cs),
(412,465,o),
(479,417,o),
(452,288,cs),
(447,265,ls),
(417,123,o),
(335,71,o),
(252,71,cs)
);
}
);
width = 629;
}
);
note = gdotaccent;
unicode = 289;
},
{
glyphname = h;
kernLeft = b;
lastChange = "2022-11-29 13:28:25 +0000";
layers = (
{
hints = (
{
horizontal = 1;
place = (-56, 21);
target = up;
type = BottomGhost;
},
{
horizontal = 1;
place = (408, 25);
place = (408, 25);
type = Stem;
},
{
horizontal = 1;
place = (684, -20);
target = down;
type = TopGhost;
},
{
place = (13, 54);
place = (13, 54);
type = Stem;
},
{
place = (375, 54);
place = (375, 54);
type = Stem;
}
);
layerId = m01;
shapes = (
{
closed = 1;
nodes = (
(575,486,o),
(523,545,o),
(409,545,cs),
(356,545,o),
(315,536,o),
(266,504,c),
(217,443,l),
(280,740,l),
(170,740,l),
(13,0,l),
(123,0,l),
(173,238,ls),
(209,404,o),
(283,462,o),
(359,464,cs),
(435,465,o),
(457,422,o),
(450,362,cs),
(446,335,o),
(441,312,o),
(436,287,cs),
(375,0,l),
(485,0,l),
(548,299,ls),
(557,342,o),
(561,366,o),
(565,393,cs)
);
}
);
width = 606;
}
);
note = h;
unicode = 104;
},
{
glyphname = hbar;
lastChange = "2022-11-29 13:28:25 +0000";
layers = (
{
hints = (
{
horizontal = 1;
place = (-56, 21);
target = up;
type = BottomGhost;
},
{
horizontal = 1;
place = (408, 25);
place = (408, 25);
type = Stem;
},
{
horizontal = 1;
place = (534, 94);
place = (534, 94);
type = Stem;
},
{
place = (28, 54);
place = (28, 54);
type = Stem;
},
{
place = (390, 54);
place = (390, 54);
type = Stem;
},
{
horizontal = 1;
place = (534, 10);
place = (534, 10);
type = Stem;
}
);
layerId = m01;
shapes = (
{
closed = 1;
nodes = (
(590,486,o),
(538,545,o),
(424,545,cs),
(371,545,o),
(330,536,o),
(281,504,c),
(232,443,l),
(263,590,l),
(368,590,l),
(382,656,l),
(277,656,l),
(295,740,l),
(185,740,l),
(167,656,l),
(112,656,l),
(98,590,l),
(153,590,l),
(28,0,l),
(138,0,l),
(188,238,ls),
(224,404,o),
(298,462,o),
(374,464,cs),
(450,465,o),
(472,422,o),
(465,362,cs),
(461,335,o),
(456,312,o),
(451,287,cs),
(390,0,l),
(500,0,l),
(563,299,ls),
(572,342,o),
(576,366,o),
(580,393,cs)
);
}
);
width = 621;
}
);
note = hbar;
unicode = 295;
},
{
glyphname = i;
kernLeft = i;
lastChange = "2022-11-29 13:28:25 +0000";
layers = (
{
hints = (
{
horizontal = 1;
place = (-56, 21);
target = up;
type = BottomGhost;
},
{
horizontal = 1;
place = (475, -20);
target = down;
type = TopGhost;
},
{
horizontal = 1;
place = (533, 71);
place = (533, 71);
type = Stem;
},
{
place = (4, 73);
place = (4, 73);
type = Stem;
},
{
place = (13, 54);
place = (13, 54);
type = Stem;
}
);
layerId = m01;
shapes = (
{
closed = 1;
nodes = (
(123,0,l),
(236,531,l),
(126,531,l),
(13,0,l)
);
},
{
closed = 1;
nodes = (
(138,589,l),
(249,589,l),
(276,716,l),
(165,716,l)
);
}
);
width = 251;
}
);
note = i;
unicode = 105;
},
{
glyphname = dotlessi;
kernLeft = i;
lastChange = "2022-11-29 13:28:25 +0000";
layers = (
{
hints = (
{
horizontal = 1;
place = (-56, 21);
target = up;
type = BottomGhost;
},
{
horizontal = 1;
place = (475, -20);
target = down;
type = TopGhost;
},
{
place = (13, 54);
place = (13, 54);
type = Stem;
}
);
layerId = m01;
shapes = (
{
closed = 1;
nodes = (
(123,0,l),
(236,531,l),
(126,531,l),
(13,0,l)
);
}
);
width = 251;
}
);
note = dotlessi;
unicode = 305;
},
{
glyphname = iacute;
kernLeft = i;
lastChange = "2022-11-29 13:28:25 +0000";
layers = (
{
hints = (
{
horizontal = 1;
place = (-56, 21);
target = up;
type = BottomGhost;
},
{
horizontal = 1;
place = (475, -20);
target = down;
type = TopGhost;
},
{
horizontal = 1;
place = (522, 58);
place = (522, 58);
type = Stem;
},
{
place = (13, 54);
place = (13, 54);
type = Stem;
}
);
layerId = m01;
shapes = (
{
closed = 1;
nodes = (
(218,578,l),
(345,692,l),
(245,692,l),
(152,578,l)
);
},
{
closed = 1;
nodes = (
(123,0,l),
(236,531,l),
(126,531,l),
(13,0,l)
);
}
);
width = 251;
}
);
note = iacute;
unicode = 237;
},
{
glyphname = icircumflex;
kernLeft = i;
lastChange = "2022-11-29 13:28:25 +0000";
layers = (
{
hints = (
{
horizontal = 1;
place = (-56, 21);
target = up;
type = BottomGhost;
},
{
horizontal = 1;
place = (475, -20);
target = down;
type = TopGhost;
},
{
horizontal = 1;
place = (522, 58);
place = (522, 58);
type = Stem;
},
{
place = (13, 54);
place = (13, 54);
type = Stem;
},
{
horizontal = 1;
place = (587, -7);
place = (587, -7);
type = Stem;
}
);
layerId = m01;
shapes = (
{
closed = 1;
nodes = (
(158,578,l),
(204,643,l),
(224,578,l),
(298,578,l),
(256,692,l),
(175,692,l),
(85,578,l)
);
},
{
closed = 1;
nodes = (
(126,531,l),
(13,0,l),
(123,0,l),
(236,531,l)
);
}
);
width = 251;
}
);
note = icircumflex;
unicode = 238;
},
{
glyphname = idieresis;
kernLeft = i;
lastChange = "2022-11-29 13:28:25 +0000";
layers = (
{
hints = (
{
horizontal = 1;
place = (-56, 21);
target = up;
type = BottomGhost;
},
{
horizontal = 1;
place = (475, -20);
target = down;
type = TopGhost;
},
{
horizontal = 1;
place = (524, 49);
place = (524, 49);
type = Stem;
},
{
place = (-65, 51);
place = (-65, 51);
type = Stem;
},
{
place = (95, 50);
place = (95, 50);
type = Stem;
},
{
place = (13, 54);
place = (13, 54);
type = Stem;
}
);
layerId = m01;
shapes = (
{
closed = 1;
nodes = (
(123,0,l),
(236,531,l),
(126,531,l),
(13,0,l)
);
},
{
closed = 1;
nodes = (
(61,582,l),
(169,582,l),
(192,688,l),
(84,688,l)
);
},
{
closed = 1;
nodes = (
(216,582,l),
(324,582,l),
(347,688,l),
(239,688,l)
);
}
);
width = 251;
}
);
note = idieresis;
unicode = 239;
},
{
glyphname = igrave;
kernLeft = i;
lastChange = "2022-11-29 13:28:25 +0000";
layers = (
{
hints = (
{
horizontal = 1;
place = (-56, 21);
target = up;
type = BottomGhost;
},
{
horizontal = 1;
place = (475, -20);
target = down;
type = TopGhost;
},
{
horizontal = 1;
place = (522, 58);
place = (522, 58);
type = Stem;
},
{
place = (13, 54);
place = (13, 54);
type = Stem;
}
);
layerId = m01;
shapes = (
{
closed = 1;
nodes = (
(232,578,l),
(188,692,l),
(88,692,l),
(166,578,l)
);
},
{
closed = 1;
nodes = (
(123,0,l),
(236,531,l),
(126,531,l),
(13,0,l)
);
}
);
width = 251;
}
);
note = igrave;
unicode = 236;
},
{
glyphname = ij;
kernLeft = i;
lastChange = "2022-11-29 13:28:25 +0000";
layers = (
{
hints = (
{
horizontal = 1;
place = (-266, 29);
place = (-266, 29);
type = Stem;
},
{
horizontal = 1;
place = (-56, 21);
target = up;
type = BottomGhost;
},
{
horizontal = 1;
place = (475, -20);
target = down;
type = TopGhost;
},
{
horizontal = 1;
place = (533, 71);
place = (533, 71);
type = Stem;
},
{
place = (4, 73);
place = (4, 73);
type = Stem;
},
{
place = (250, 73);
place = (250, 73);
type = Stem;
},
{
place = (13, 54);
place = (13, 54);
type = Stem;
},
{
place = (260, 53);
place = (260, 53);
type = Stem;
}
);
layerId = m01;
shapes = (
{
closed = 1;
nodes = (
(123,0,l),
(236,531,l),
(126,531,l),
(13,0,l)
);
},
{
closed = 1;
nodes = (
(482,531,l),
(373,531,l),
(252,-34,ls),
(249,-49,o),
(246,-65,o),
(241,-79,cs),
(229,-115,o),
(202,-130,o),
(146,-125,c),
(128,-208,l),
(142,-210,o),
(156,-210,o),
(174,-210,cs),
(274,-210,o),
(324,-168,o),
(346,-95,cs),
(351,-77,o),
(358,-51,o),
(362,-31,cs)
);
},
{
closed = 1;
nodes = (
(138,589,l),
(249,589,l),
(276,716,l),
(165,716,l)
);
},
{
closed = 1;
nodes = (
(385,589,l),
(496,589,l),
(523,716,l),
(412,716,l)
);
}
);
width = 496;
}
);
note = ij;
unicode = 307;
},
{
glyphname = imacron;
kernLeft = i;
lastChange = "2022-11-29 13:28:25 +0000";
layers = (
{
hints = (
{
horizontal = 1;
place = (-56, 21);
target = up;
type = BottomGhost;
},
{
horizontal = 1;
place = (475, -20);
target = down;
type = TopGhost;
},
{
horizontal = 1;
place = (544, 7);
place = (544, 7);
type = Stem;
},
{
place = (13, 54);
place = (13, 54);
type = Stem;
}
);
layerId = m01;
shapes = (
{
closed = 1;
nodes = (
(323,600,l),
(337,663,l),
(81,663,l),
(67,600,l)
);
},
{
closed = 1;
nodes = (
(123,0,l),
(236,531,l),
(126,531,l),
(13,0,l)
);
}
);
width = 251;
}
);
note = imacron;
unicode = 299;
},
{
glyphname = iogonek;
kernLeft = i;
lastChange = "2022-11-29 13:28:25 +0000";
layers = (
{
hints = (
{
horizontal = 1;
place = (-279, 10);
place = (-279, 10);
type = Stem;
},
{
horizontal = 1;
place = (-56, 21);
target = up;
type = BottomGhost;
},
{
horizontal = 1;
place = (475, -20);
target = down;
type = TopGhost;
},
{
horizontal = 1;
place = (533, 71);
place = (533, 71);
type = Stem;
},
{
place = (4, 73);
place = (4, 73);
type = Stem;
},
{
place = (13, 54);
place = (13, 54);
type = Stem;
},
{
place = (-93, 46);
place = (-93, 46);
type = Stem;
}
);
layerId = m01;
shapes = (
{
closed = 1;
nodes = (
(126,531,l),
(15,10,l),
(-45,-13,o),
(-107,-66,o),
(-123,-138,cs),
(-136,-201,o),
(-101,-223,o),
(-43,-223,cs),
(-2,-223,o),
(35,-212,o),
(65,-192,c),
(77,-137,l),
(56,-151,o),
(37,-157,o),
(19,-157,cs),
(-8,-157,o),
(-22,-144,o),
(-14,-107,cs),
(-2,-50,o),
(45,-7,o),
(91,0,c),
(123,0,l),
(236,531,l)
);
},
{
closed = 1;
nodes = (
(138,589,l),
(249,589,l),
(276,716,l),
(165,716,l)
);
}
);
width = 251;
}
);
note = iogonek;
unicode = 303;
},
{
glyphname = j;
lastChange = "2022-11-29 13:28:25 +0000";
layers = (
{
hints = (
{
horizontal = 1;
place = (-266, 29);
place = (-266, 29);
type = Stem;
},
{
horizontal = 1;
place = (475, -20);
target = down;
type = TopGhost;
},
{
horizontal = 1;
place = (533, 71);
place = (533, 71);
type = Stem;
},
{
place = (-1, 73);
place = (-1, 73);
type = Stem;
},
{
place = (9, 53);
place = (9, 53);
type = Stem;
}
);
layerId = m01;
shapes = (
{
closed = 1;
nodes = (
(231,531,l),
(122,531,l),
(1,-34,ls),
(-2,-49,o),
(-5,-65,o),
(-10,-79,cs),
(-22,-115,o),
(-49,-130,o),
(-105,-125,c),
(-123,-208,l),
(-109,-210,o),
(-95,-210,o),
(-77,-210,cs),
(23,-210,o),
(73,-168,o),
(95,-95,cs),
(100,-77,o),
(107,-51,o),
(111,-31,cs)
);
},
{
closed = 1;
nodes = (
(133,591,l),
(244,591,l),
(271,718,l),
(160,718,l)
);
}
);
width = 245;
}
);
note = j;
unicode = 106;
},
{
glyphname = k;
kernLeft = b;
kernRight = k;
lastChange = "2022-11-29 13:28:25 +0000";
layers = (
{
hints = (
{
horizontal = 1;
place = (-56, 21);
target = up;
type = BottomGhost;
},
{
horizontal = 1;
place = (475, -20);
target = down;
type = TopGhost;
},
{
horizontal = 1;
place = (679, -20);
target = down;
type = TopGhost;
},
{
place = (13, 54);
place = (13, 54);
type = Stem;
}
);
layerId = m01;
shapes = (
{
closed = 1;
nodes = (
(216,218,l),
(350,0,l),
(493,0,l),
(308,282,l),
(603,531,l),
(468,531,l),
(181,275,l),
(279,735,l),
(169,735,l),
(13,0,l),
(123,0,l),
(158,166,l)
);
}
);
width = 550;
}
);
note = k;
unicode = 107;
},
{
glyphname = kcommaaccent;
kernLeft = b;
kernRight = k;
lastChange = "2022-11-29 13:28:25 +0000";
layers = (
{
hints = (
{
horizontal = 1;
place = (-256, 96);
place = (-256, 96);
type = Stem;
},
{
horizontal = 1;
place = (-56, 21);
target = up;
type = BottomGhost;
},
{
horizontal = 1;
place = (475, -20);
target = down;
type = TopGhost;
},
{
horizontal = 1;
place = (679, -20);
target = down;
type = TopGhost;
},
{
place = (13, 54);
place = (13, 54);
type = Stem;
}
);
layerId = m01;
shapes = (
{
closed = 1;
nodes = (
(493,0,l),
(308,282,l),
(603,531,l),
(468,531,l),
(181,275,l),
(279,735,l),
(169,735,l),
(13,0,l),
(123,0,l),
(158,166,l),
(216,218,l),
(350,0,l)
);
},
{
closed = 1;
nodes = (
(185,-48,l),
(93,-200,l),
(163,-200,l),
(264,-59,l),
(266,-48,l)
);
}
);
width = 550;
}
);
note = kcommaaccent;
unicode = 311;
},
{
glyphname = l;
kernRight = l;
lastChange = "2022-11-29 13:28:25 +0000";
layers = (
{
hints = (
{
horizontal = 1;
place = (-57, 21);
target = up;
type = BottomGhost;
},
{
horizontal = 1;
place = (679, -20);
target = down;
type = TopGhost;
},
{
place = (9, 54);
place = (9, 54);
type = Stem;
},
{
horizontal = 1;
place = (-62, 26);
place = (-62, 26);
type = Stem;
}
);
layerId = m01;
shapes = (
{
closed = 1;
nodes = (
(275,735,l),
(165,735,l),
(42,159,ls),
(36,127,o),
(31,103,o),
(27,83,cs),
(17,15,o),
(51,-6,o),
(109,-6,cs),
(134,-6,o),
(160,-4,o),
(182,-1,c),
(199,76,l),
(151,72,o),
(139,82,o),
(143,112,cs),
(146,128,o),
(149,144,o),
(153,162,cs)
);
}
);
width = 262;
}
);
note = l;
unicode = 108;
},
{
glyphname = lacute;
kernRight = l;
lastChange = "2022-11-29 13:28:25 +0000";
layers = (
{
hints = (
{
horizontal = 1;
place = (-57, 21);
target = up;
type = BottomGhost;
},
{
horizontal = 1;
place = (679, -20);
target = down;
type = TopGhost;
},
{
horizontal = 1;
place = (728, 58);
place = (728, 58);
type = Stem;
},
{
place = (9, 54);
place = (9, 54);
type = Stem;
},
{
horizontal = 1;
place = (-62, 26);
place = (-62, 26);
type = Stem;
}
);
layerId = m01;
shapes = (
{
closed = 1;
nodes = (
(255,784,l),
(383,898,l),
(283,898,l),
(189,784,l)
);
},
{
closed = 1;
nodes = (
(275,735,l),
(165,735,l),
(42,159,ls),
(36,127,o),
(31,103,o),
(27,83,cs),
(17,15,o),
(51,-6,o),
(109,-6,cs),
(134,-6,o),
(160,-4,o),
(182,-1,c),
(199,76,l),
(151,72,o),
(139,82,o),
(143,112,cs),
(146,128,o),
(149,144,o),
(153,162,cs)
);
}
);
width = 262;
}
);
note = lacute;
unicode = 314;
},
{
glyphname = lcaron;
kernRight = l;
lastChange = "2022-11-29 13:28:25 +0000";
layers = (
{
hints = (
{
horizontal = 1;
place = (-57, 21);
target = up;
type = BottomGhost;
},
{
horizontal = 1;
place = (679, -20);
target = down;
type = TopGhost;
},
{
place = (9, 54);
place = (9, 54);
type = Stem;
},
{
horizontal = 1;
place = (-62, 26);
place = (-62, 26);
type = Stem;
}
);
layerId = m01;
shapes = (
{
closed = 1;
nodes = (
(275,735,l),
(165,735,l),
(42,159,ls),
(36,127,o),
(31,103,o),
(27,83,cs),
(17,15,o),
(51,-6,o),
(109,-6,cs),
(134,-6,o),
(160,-4,o),
(182,-1,c),
(199,76,l),
(151,72,o),
(139,82,o),
(143,112,cs),
(146,128,o),
(149,144,o),
(153,162,cs)
);
}
);
width = 262;
}
);
note = lcaron;
unicode = 318;
},
{
glyphname = lcommaaccent;
kernRight = l;
lastChange = "2022-11-29 13:28:25 +0000";
layers = (
{
hints = (
{
horizontal = 1;
place = (-256, 96);
place = (-256, 96);
type = Stem;
},
{
horizontal = 1;
place = (-57, 21);
target = up;
type = BottomGhost;
},
{
horizontal = 1;
place = (679, -20);
target = down;
type = TopGhost;
},
{
place = (9, 54);
place = (9, 54);
type = Stem;
},
{
horizontal = 1;
place = (-62, 26);
place = (-62, 26);
type = Stem;
}
);
layerId = m01;
shapes = (
{
closed = 1;
nodes = (
(275,735,l),
(165,735,l),
(42,159,ls),
(36,127,o),
(31,103,o),
(27,83,cs),
(17,15,o),
(51,-6,o),
(109,-6,cs),
(134,-6,o),
(160,-4,o),
(182,-1,c),
(199,76,l),
(151,72,o),
(139,82,o),
(143,112,cs),
(146,128,o),
(149,144,o),
(153,162,cs)
);
},
{
closed = 1;
nodes = (
(111,-59,l),
(113,-48,l),
(32,-48,l),
(-60,-200,l),
(10,-200,l)
);
}
);
width = 262;
}
);
note = lcommaaccent;
unicode = 316;
},
{
glyphname = ldot;
kernRight = l;
lastChange = "2022-11-29 13:28:25 +0000";
layers = (
{
hints = (
{
horizontal = 1;
place = (-57, 21);
target = up;
type = BottomGhost;
},
{
horizontal = 1;
place = (281, 70);
place = (281, 70);
type = Stem;
},
{
horizontal = 1;
place = (679, -20);
target = down;
type = TopGhost;
},
{
place = (9, 54);
place = (9, 54);
type = Stem;
},
{
horizontal = 1;
place = (-62, 26);
place = (-62, 26);
type = Stem;
},
{
place = (185, 73);
place = (185, 73);
type = Stem;
}
);
layerId = m01;
shapes = (
{
closed = 1;
nodes = (
(275,735,l),
(165,735,l),
(42,159,ls),
(36,127,o),
(31,103,o),
(27,83,cs),
(17,15,o),
(51,-6,o),
(109,-6,cs),
(134,-6,o),
(160,-4,o),
(182,-1,c),
(199,76,l),
(151,72,o),
(139,82,o),
(143,112,cs),
(146,128,o),
(149,144,o),
(153,162,cs)
);
},
{
closed = 1;
nodes = (
(311,463,o),
(277,436,o),
(270,400,cs),
(262,364,o),
(284,337,o),
(321,337,cs),
(358,337,o),
(391,364,o),
(399,400,cs),
(406,436,o),
(385,463,o),
(348,463,cs)
);
}
);
width = 383;
}
);
note = ldot;
unicode = 320;
},
{
glyphname = lslash;
lastChange = "2022-11-29 13:28:25 +0000";
layers = (
{
hints = (
{
horizontal = 1;
place = (-62, 26);
place = (-62, 26);
type = Stem;
},
{
horizontal = 1;
place = (679, -20);
target = down;
type = TopGhost;
},
{
place = (35, 53);
place = (35, 53);
type = Stem;
}
);
layerId = m01;
shapes = (
{
closed = 1;
nodes = (
(171,128,o),
(174,144,o),
(178,162,cs),
(211,315,l),
(283,354,l),
(300,434,l),
(228,395,l),
(300,735,l),
(191,735,l),
(105,330,l),
(33,291,l),
(16,211,l),
(88,250,l),
(68,159,ls),
(62,127,o),
(57,103,o),
(53,83,cs),
(42,15,o),
(77,-6,o),
(135,-6,cs),
(160,-6,o),
(186,-4,o),
(208,-1,c),
(225,76,l),
(177,72,o),
(165,82,o),
(169,112,cs)
);
}
);
width = 297;
}
);
note = lslash;
unicode = 322;
},
{
glyphname = m;
kernLeft = m;
lastChange = "2022-11-29 13:28:25 +0000";
layers = (
{
hints = (
{
horizontal = 1;
place = (-56, 21);
target = up;
type = BottomGhost;
},
{
horizontal = 1;
place = (408, 25);
place = (408, 25);
type = Stem;
},
{
place = (13, 54);
place = (13, 54);
type = Stem;
},
{
place = (333, 53);
place = (333, 53);
type = Stem;
},
{
place = (652, 54);
place = (652, 54);
type = Stem;
},
{
horizontal = 1;
place = (408, 11);
place = (408, 11);
type = Stem;
}
);
layerId = m01;
shapes = (
{
closed = 1;
nodes = (
(848,488,o),
(805,545,o),
(707,545,cs),
(660,545,o),
(621,536,o),
(587,514,c),
(523,444,l),
(516,503,o),
(472,545,o),
(388,545,cs),
(340,545,o),
(301,536,o),
(268,514,c),
(219,452,l),
(236,531,l),
(126,531,l),
(13,0,l),
(123,0,l),
(179,267,ls),
(210,411,o),
(263,464,o),
(328,464,cs),
(385,464,o),
(413,434,o),
(409,377,cs),
(406,350,o),
(401,321,o),
(392,281,cs),
(333,0,l),
(442,0,l),
(498,267,ls),
(529,411,o),
(583,464,o),
(647,464,cs),
(704,464,o),
(733,434,o),
(728,377,cs),
(725,350,o),
(720,321,o),
(711,281,cs),
(652,0,l),
(762,0,l),
(830,321,ls),
(839,364,o),
(843,388,o),
(845,415,cs)
);
}
);
width = 883;
}
);
note = m;
unicode = 109;
},
{
glyphname = n;
kernLeft = m;
lastChange = "2022-11-29 13:28:25 +0000";
layers = (
{
hints = (
{
horizontal = 1;
place = (408, 25);
place = (408, 25);
type = Stem;
},
{
place = (13, 54);
place = (13, 54);
type = Stem;
},
{
place = (375, 54);
place = (375, 54);
type = Stem;
}
);
layerId = m01;
shapes = (
{
closed = 1;
nodes = (
(575,486,o),
(523,545,o),
(409,545,cs),
(356,545,o),
(315,536,o),
(266,504,c),
(217,443,l),
(236,531,l),
(126,531,l),
(13,0,l),
(123,0,l),
(173,238,ls),
(209,404,o),
(283,464,o),
(359,464,cs),
(434,464,o),
(457,422,o),
(450,362,cs),
(446,335,o),
(441,312,o),
(436,287,cs),
(375,0,l),
(485,0,l),
(548,299,ls),
(557,342,o),
(561,366,o),
(565,393,cs)
);
}
);
width = 606;
}
);
note = n;
unicode = 110;
},
{
glyphname = nacute;
kernLeft = m;
lastChange = "2022-11-29 13:28:25 +0000";
layers = (
{
hints = (
{
horizontal = 1;
place = (408, 25);
place = (408, 25);
type = Stem;
},
{
place = (13, 54);
place = (13, 54);
type = Stem;
},
{
place = (375, 54);
place = (375, 54);
type = Stem;
}
);
layerId = m01;
shapes = (
{
closed = 1;
nodes = (
(530,692,l),
(430,692,l),
(337,578,l),
(403,578,l)
);
},
{
closed = 1;
nodes = (
(575,486,o),
(523,545,o),
(409,545,cs),
(356,545,o),
(315,536,o),
(266,504,c),
(217,443,l),
(236,531,l),
(126,531,l),
(13,0,l),
(123,0,l),
(173,238,ls),
(209,404,o),
(283,464,o),
(359,464,cs),
(434,464,o),
(457,422,o),
(450,362,cs),
(446,335,o),
(441,312,o),
(436,287,cs),
(375,0,l),
(485,0,l),
(548,299,ls),
(557,342,o),
(561,366,o),
(565,393,cs)
);
}
);
width = 606;
}
);
note = nacute;
unicode = 324;
},
{
glyphname = ncaron;
kernLeft = m;
lastChange = "2022-11-29 13:28:25 +0000";
layers = (
{
hints = (
{
horizontal = 1;
place = (408, 25);
place = (408, 25);
type = Stem;
},
{
place = (13, 54);
place = (13, 54);
type = Stem;
},
{
place = (375, 54);
place = (375, 54);
type = Stem;
}
);
layerId = m01;
shapes = (
{
closed = 1;
nodes = (
(417,578,l),
(507,692,l),
(434,692,l),
(387,626,l),
(368,692,l),
(294,692,l),
(336,578,l)
);
},
{
closed = 1;
nodes = (
(575,486,o),
(523,545,o),
(409,545,cs),
(356,545,o),
(315,536,o),
(266,504,c),
(217,443,l),
(236,531,l),
(126,531,l),
(13,0,l),
(123,0,l),
(173,238,ls),
(209,404,o),
(283,464,o),
(359,464,cs),
(434,464,o),
(457,422,o),
(450,362,cs),
(446,335,o),
(441,312,o),
(436,287,cs),
(375,0,l),
(485,0,l),
(548,299,ls),
(557,342,o),
(561,366,o),
(565,393,cs)
);
}
);
width = 606;
}
);
note = ncaron;
unicode = 328;
},
{
glyphname = ncommaaccent;
kernLeft = m;
lastChange = "2022-11-29 13:28:25 +0000";
layers = (
{
hints = (
{
horizontal = 1;
place = (408, 25);
place = (408, 25);
type = Stem;
},
{
place = (13, 54);
place = (13, 54);
type = Stem;
},
{
place = (375, 54);
place = (375, 54);
type = Stem;
}
);
layerId = m01;
shapes = (
{
closed = 1;
nodes = (
(575,486,o),
(523,545,o),
(409,545,cs),
(356,545,o),
(315,536,o),
(266,504,c),
(217,443,l),
(236,531,l),
(126,531,l),
(13,0,l),
(123,0,l),
(173,238,ls),
(209,404,o),
(283,464,o),
(359,464,cs),
(434,464,o),
(457,422,o),
(450,362,cs),
(446,335,o),
(441,312,o),
(436,287,cs),
(375,0,l),
(485,0,l),
(548,299,ls),
(557,342,o),
(561,366,o),
(565,393,cs)
);
},
{
closed = 1;
nodes = (
(110,-200,l),
(180,-200,l),
(281,-59,l),
(283,-48,l),
(202,-48,l)
);
}
);
width = 606;
}
);
note = ncommaaccent;
unicode = 326;
},
{
glyphname = eng;
kernLeft = m;
lastChange = "2022-11-29 13:28:25 +0000";
layers = (
{
layerId = m01;
shapes = (
{
closed = 1;
nodes = (
(575,486,o),
(523,545,o),
(409,545,cs),
(356,545,o),
(315,536,o),
(266,504,c),
(217,443,l),
(236,531,l),
(126,531,l),
(13,0,l),
(123,0,l),
(173,238,ls),
(209,404,o),
(283,464,o),
(359,464,cs),
(434,464,o),
(457,422,o),
(450,362,cs),
(446,335,o),
(441,312,o),
(436,287,cs),
(365,-46,ls),
(363,-56,o),
(361,-66,o),
(358,-74,cs),
(345,-114,o),
(320,-125,o),
(269,-125,c),
(251,-210,l),
(374,-210,o),
(437,-183,o),
(465,-90,cs),
(469,-76,o),
(470,-67,o),
(474,-49,cs),
(548,299,ls),
(557,342,o),
(561,366,o),
(565,393,cs)
);
}
);
width = 606;
}
);
note = eng;
unicode = 331;
},
{
glyphname = ntilde;
kernLeft = m;
lastChange = "2022-11-29 13:28:25 +0000";
layers = (
{
hints = (
{
horizontal = 1;
place = (408, 25);
place = (408, 25);
type = Stem;
},
{
place = (13, 54);
place = (13, 54);
type = Stem;
},
{
place = (375, 54);
place = (375, 54);
type = Stem;
}
);
layerId = m01;
shapes = (
{
closed = 1;
nodes = (
(341,616,o),
(351,613,o),
(373,604,cs),
(401,594,o),
(416,590,o),
(437,590,cs),
(477,590,o),
(504,611,o),
(518,677,c),
(465,677,l),
(461,660,o),
(455,654,o),
(444,654,cs),
(436,654,o),
(424,657,o),
(402,666,cs),
(376,677,o),
(360,680,o),
(338,680,cs),
(299,680,o),
(273,659,o),
(259,594,c),
(311,594,l),
(314,610,o),
(322,616,o),
(332,616,cs)
);
},
{
closed = 1;
nodes = (
(575,486,o),
(523,545,o),
(409,545,cs),
(356,545,o),
(315,536,o),
(266,504,c),
(217,443,l),
(236,531,l),
(126,531,l),
(13,0,l),
(123,0,l),
(173,238,ls),
(209,404,o),
(283,464,o),
(359,464,cs),
(434,464,o),
(457,422,o),
(450,362,cs),
(446,335,o),
(441,312,o),
(436,287,cs),
(375,0,l),
(485,0,l),
(548,299,ls),
(557,342,o),
(561,366,o),
(565,393,cs)
);
}
);
width = 606;
}
);
note = ntilde;
unicode = 241;
},
{
glyphname = o;
kernLeft = c;
kernRight = b;
lastChange = "2022-11-29 13:28:25 +0000";
layers = (
{
hints = (
{
horizontal = 1;
place = (-70, 24);
place = (-70, 24);
type = Stem;
},
{
horizontal = 1;
place = (409, 24);
place = (409, 24);
type = Stem;
},
{
place = (-27, 60);
place = (-27, 60);
type = Stem;
},
{
place = (394, 61);
place = (394, 61);
type = Stem;
}
);
layerId = m01;
shapes = (
{
closed = 1;
nodes = (
(179,545,o),
(62,421,o),
(29,266,cs),
(-4,111,o),
(60,-14,o),
(239,-14,cs),
(417,-14,o),
(534,111,o),
(567,266,cs),
(600,421,o),
(536,545,o),
(358,545,cs)
);
},
{
closed = 1;
nodes = (
(159,66,o),
(120,146,o),
(145,266,cs),
(171,386,o),
(244,465,o),
(341,465,cs),
(437,465,o),
(476,386,o),
(450,266,cs),
(425,146,o),
(352,66,o),
(256,66,cs)
);
}
);
width = 595;
}
);
note = o;
unicode = 111;
},
{
glyphname = oacute;
kernLeft = c;
kernRight = b;
lastChange = "2022-11-29 13:28:25 +0000";
layers = (
{
hints = (
{
horizontal = 1;
place = (-70, 24);
place = (-70, 24);
type = Stem;
},
{
horizontal = 1;
place = (409, 24);
place = (409, 24);
type = Stem;
},
{
horizontal = 1;
place = (522, 58);
place = (522, 58);
type = Stem;
},
{
place = (-27, 60);
place = (-27, 60);
type = Stem;
},
{
place = (394, 61);
place = (394, 61);
type = Stem;
}
);
layerId = m01;
shapes = (
{
closed = 1;
nodes = (
(392,578,l),
(519,692,l),
(419,692,l),
(326,578,l)
);
},
{
closed = 1;
nodes = (
(179,545,o),
(62,421,o),
(29,266,cs),
(-4,111,o),
(60,-14,o),
(239,-14,cs),
(417,-14,o),
(534,111,o),
(567,266,cs),
(600,421,o),
(536,545,o),
(358,545,cs)
);
},
{
closed = 1;
nodes = (
(159,66,o),
(120,146,o),
(145,266,cs),
(171,386,o),
(244,465,o),
(341,465,cs),
(437,465,o),
(476,386,o),
(450,266,cs),
(425,146,o),
(352,66,o),
(256,66,cs)
);
}
);
width = 595;
}
);
note = oacute;
unicode = 243;
},
{
glyphname = ocircumflex;
kernLeft = c;
kernRight = b;
lastChange = "2022-11-29 13:28:25 +0000";
layers = (
{
hints = (
{
horizontal = 1;
place = (-70, 24);
place = (-70, 24);
type = Stem;
},
{
horizontal = 1;
place = (409, 24);
place = (409, 24);
type = Stem;
},
{
horizontal = 1;
place = (522, 58);
place = (522, 58);
type = Stem;
},
{
place = (-27, 60);
place = (-27, 60);
type = Stem;
},
{
place = (394, 61);
place = (394, 61);
type = Stem;
},
{
horizontal = 1;
place = (587, -7);
place = (587, -7);
type = Stem;
}
);
layerId = m01;
shapes = (
{
closed = 1;
nodes = (
(332,578,l),
(378,643,l),
(398,578,l),
(472,578,l),
(430,692,l),
(349,692,l),
(259,578,l)
);
},
{
closed = 1;
nodes = (
(179,545,o),
(62,421,o),
(29,266,cs),
(-4,111,o),
(60,-14,o),
(239,-14,cs),
(417,-14,o),
(534,111,o),
(567,266,cs),
(600,421,o),
(536,545,o),
(358,545,cs)
);
},
{
closed = 1;
nodes = (
(159,66,o),
(120,146,o),
(145,266,cs),
(171,386,o),
(244,465,o),
(341,465,cs),
(437,465,o),
(476,386,o),
(450,266,cs),
(425,146,o),
(352,66,o),
(256,66,cs)
);
}
);
width = 595;
}
);
note = ocircumflex;
unicode = 244;
},
{
glyphname = odieresis;
kernLeft = c;
kernRight = b;
lastChange = "2022-11-29 13:28:25 +0000";
layers = (
{
hints = (
{
horizontal = 1;
place = (-70, 24);
place = (-70, 24);
type = Stem;
},
{
horizontal = 1;
place = (409, 24);
place = (409, 24);
type = Stem;
},
{
horizontal = 1;
place = (524, 49);
place = (524, 49);
type = Stem;
},
{
place = (-27, 60);
place = (-27, 60);
type = Stem;
},
{
place = (109, 51);
place = (109, 51);
type = Stem;
},
{
place = (269, 50);
place = (269, 50);
type = Stem;
},
{
place = (394, 61);
place = (394, 61);
type = Stem;
}
);
layerId = m01;
shapes = (
{
closed = 1;
nodes = (
(179,545,o),
(62,421,o),
(29,266,cs),
(-4,111,o),
(60,-14,o),
(239,-14,cs),
(417,-14,o),
(534,111,o),
(567,266,cs),
(600,421,o),
(536,545,o),
(358,545,cs)
);
},
{
closed = 1;
nodes = (
(159,66,o),
(120,146,o),
(145,266,cs),
(171,386,o),
(244,465,o),
(341,465,cs),
(437,465,o),
(476,386,o),
(450,266,cs),
(425,146,o),
(352,66,o),
(256,66,cs)
);
},
{
closed = 1;
nodes = (
(234,582,l),
(342,582,l),
(365,688,l),
(257,688,l)
);
},
{
closed = 1;
nodes = (
(389,582,l),
(497,582,l),
(520,688,l),
(412,688,l)
);
}
);
width = 595;
}
);
note = odieresis;
unicode = 246;
},
{
glyphname = ograve;
kernLeft = c;
kernRight = b;
lastChange = "2022-11-29 13:28:25 +0000";
layers = (
{
hints = (
{
horizontal = 1;
place = (-70, 24);
place = (-70, 24);
type = Stem;
},
{
horizontal = 1;
place = (409, 24);
place = (409, 24);
type = Stem;
},
{
horizontal = 1;
place = (522, 58);
place = (522, 58);
type = Stem;
},
{
place = (-27, 60);
place = (-27, 60);
type = Stem;
},
{
place = (394, 61);
place = (394, 61);
type = Stem;
}
);
layerId = m01;
shapes = (
{
closed = 1;
nodes = (
(340,578,l),
(406,578,l),
(362,692,l),
(262,692,l)
);
},
{
closed = 1;
nodes = (
(179,545,o),
(62,421,o),
(29,266,cs),
(-4,111,o),
(60,-14,o),
(239,-14,cs),
(417,-14,o),
(534,111,o),
(567,266,cs),
(600,421,o),
(536,545,o),
(358,545,cs)
);
},
{
closed = 1;
nodes = (
(159,66,o),
(120,146,o),
(145,266,cs),
(171,386,o),
(244,465,o),
(341,465,cs),
(437,465,o),
(476,386,o),
(450,266,cs),
(425,146,o),
(352,66,o),
(256,66,cs)
);
}
);
width = 595;
}
);
note = ograve;
unicode = 242;
},
{
glyphname = ohungarumlaut;
kernLeft = c;
kernRight = b;
lastChange = "2022-11-29 13:28:25 +0000";
layers = (
{
hints = (
{
horizontal = 1;
place = (-70, 24);
place = (-70, 24);
type = Stem;
},
{
horizontal = 1;
place = (409, 24);
place = (409, 24);
type = Stem;
},
{
horizontal = 1;
place = (522, 58);
place = (522, 58);
type = Stem;
},
{
place = (-27, 60);
place = (-27, 60);
type = Stem;
},
{
place = (394, 61);
place = (394, 61);
type = Stem;
}
);
layerId = m01;
shapes = (
{
closed = 1;
nodes = (
(321,578,l),
(447,692,l),
(347,692,l),
(255,578,l)
);
},
{
closed = 1;
nodes = (
(394,578,l),
(460,578,l),
(586,692,l),
(486,692,l)
);
},
{
closed = 1;
nodes = (
(179,545,o),
(62,421,o),
(29,266,cs),
(-4,111,o),
(60,-14,o),
(239,-14,cs),
(417,-14,o),
(534,111,o),
(567,266,cs),
(600,421,o),
(536,545,o),
(358,545,cs)
);
},
{
closed = 1;
nodes = (
(159,66,o),
(120,146,o),
(145,266,cs),
(171,386,o),
(244,465,o),
(341,465,cs),
(437,465,o),
(476,386,o),
(450,266,cs),
(425,146,o),
(352,66,o),
(256,66,cs)
);
}
);
width = 595;
}
);
note = ohungarumlaut;
unicode = 337;
},
{
glyphname = omacron;
kernLeft = c;
kernRight = b;
lastChange = "2022-11-29 13:28:25 +0000";
layers = (
{
hints = (
{
horizontal = 1;
place = (-70, 24);
place = (-70, 24);
type = Stem;
},
{
horizontal = 1;
place = (409, 24);
place = (409, 24);
type = Stem;
},
{
horizontal = 1;
place = (544, 7);
place = (544, 7);
type = Stem;
},
{
place = (-27, 60);
place = (-27, 60);
type = Stem;
},
{
place = (115, 199);
place = (115, 199);
type = Stem;
},
{
place = (394, 61);
place = (394, 61);
type = Stem;
}
);
layerId = m01;
shapes = (
{
closed = 1;
nodes = (
(497,600,l),
(511,663,l),
(256,663,l),
(242,600,l)
);
},
{
closed = 1;
nodes = (
(179,545,o),
(62,421,o),
(29,266,cs),
(-4,111,o),
(60,-14,o),
(239,-14,cs),
(417,-14,o),
(534,111,o),
(567,266,cs),
(600,421,o),
(536,545,o),
(358,545,cs)
);
},
{
closed = 1;
nodes = (
(159,66,o),
(120,146,o),
(145,266,cs),
(171,386,o),
(244,465,o),
(341,465,cs),
(437,465,o),
(476,386,o),
(450,266,cs),
(425,146,o),
(352,66,o),
(256,66,cs)
);
}
);
width = 595;
}
);
note = omacron;
unicode = 333;
},
{
glyphname = oslash;
kernLeft = c;
kernRight = b;
lastChange = "2022-11-29 13:28:25 +0000";
layers = (
{
hints = (
{
horizontal = 1;
place = (-70, 24);
place = (-70, 24);
type = Stem;
},
{
horizontal = 1;
place = (409, 24);
place = (409, 24);
type = Stem;
},
{
place = (-20, 61);
place = (-20, 61);
type = Stem;
},
{
place = (402, 60);
place = (402, 60);
type = Stem;
}
);
layerId = m01;
shapes = (
{
closed = 1;
nodes = (
(651,505,l),
(613,553,l),
(531,485,l),
(496,523,o),
(441,545,o),
(365,545,cs),
(187,545,o),
(69,421,o),
(36,266,cs),
(22,199,o),
(26,137,o),
(49,88,c),
(-26,26,l),
(12,-22,l),
(86,39,l),
(122,6,o),
(175,-14,o),
(246,-14,cs),
(425,-14,o),
(541,111,o),
(574,266,cs),
(588,329,o),
(585,387,o),
(565,434,c)
);
},
{
closed = 1;
nodes = (
(179,386,o),
(252,465,o),
(348,465,cs),
(394,465,o),
(427,447,o),
(446,415,c),
(148,169,l),
(144,197,o),
(146,230,o),
(153,266,cs)
);
},
{
closed = 1;
nodes = (
(433,146,o),
(360,66,o),
(263,66,cs),
(221,66,o),
(189,81,o),
(170,108,c),
(464,352,l),
(467,326,o),
(465,298,o),
(458,266,cs)
);
}
);
width = 625;
}
);
note = oslash;
unicode = 248;
},
{
glyphname = otilde;
kernLeft = c;
kernRight = b;
lastChange = "2022-11-29 13:28:25 +0000";
layers = (
{
hints = (
{
horizontal = 1;
place = (-70, 24);
place = (-70, 24);
type = Stem;
},
{
horizontal = 1;
place = (409, 24);
place = (409, 24);
type = Stem;
},
{
horizontal = 1;
place = (538, 30);
place = (538, 30);
type = Stem;
},
{
place = (-27, 60);
place = (-27, 60);
type = Stem;
},
{
place = (122, -4);
place = (122, -4);
type = Stem;
},
{
place = (394, 61);
place = (394, 61);
type = Stem;
},
{
horizontal = 1;
place = (534, 31);
place = (534, 31);
type = Stem;
},
{
place = (310, -3);
place = (310, -3);
type = Stem;
}
);
layerId = m01;
shapes = (
{
closed = 1;
nodes = (
(330,616,o),
(340,613,o),
(362,604,cs),
(390,594,o),
(405,590,o),
(426,590,cs),
(466,590,o),
(493,611,o),
(507,677,c),
(454,677,l),
(450,660,o),
(444,654,o),
(433,654,cs),
(425,654,o),
(413,657,o),
(391,666,cs),
(365,677,o),
(349,680,o),
(327,680,cs),
(288,680,o),
(262,659,o),
(248,594,c),
(300,594,l),
(303,610,o),
(311,616,o),
(321,616,cs)
);
},
{
closed = 1;
nodes = (
(179,545,o),
(62,421,o),
(29,266,cs),
(-4,111,o),
(60,-14,o),
(239,-14,cs),
(417,-14,o),
(534,111,o),
(567,266,cs),
(600,421,o),
(536,545,o),
(358,545,cs)
);
},
{
closed = 1;
nodes = (
(159,66,o),
(120,146,o),
(145,266,cs),
(171,386,o),
(244,465,o),
(341,465,cs),
(437,465,o),
(476,386,o),
(450,266,cs),
(425,146,o),
(352,66,o),
(256,66,cs)
);
}
);
width = 595;
}
);
note = otilde;
unicode = 245;
},
{
glyphname = oe;
kernLeft = c;
kernRight = ae;
lastChange = "2022-11-29 13:28:25 +0000";
layers = (
{
hints = (
{
horizontal = 1;
place = (-70, 24);
place = (-70, 24);
type = Stem;
},
{
horizontal = 1;
place = (179, 21);
place = (179, 21);
type = Stem;
},
{
horizontal = 1;
place = (409, 24);
place = (409, 24);
type = Stem;
},
{
place = (-27, 60);
place = (-27, 60);
type = Stem;
},
{
place = (394, 61);
place = (394, 61);
type = Stem;
},
{
place = (779, 57);
place = (779, 57);
type = Stem;
}
);
layerId = m01;
shapes = (
{
closed = 1;
nodes = (
(983,429,o),
(924,545,o),
(773,545,cs),
(687,545,o),
(607,509,o),
(543,424,c),
(517,506,o),
(454,545,o),
(358,545,cs),
(179,545,o),
(62,421,o),
(29,266,cs),
(-4,111,o),
(60,-14,o),
(239,-14,cs),
(333,-14,o),
(411,23,o),
(471,103,c),
(497,19,o),
(561,-14,o),
(642,-14,cs),
(757,-14,o),
(869,46,o),
(920,172,c),
(808,172,l),
(783,105,o),
(726,66,o),
(661,66,cs),
(590,66,o),
(542,114,o),
(560,235,c),
(939,235,l),
(945,254,o),
(949,269,o),
(951,279,cs)
);
},
{
closed = 1;
nodes = (
(159,66,o),
(120,146,o),
(145,266,cs),
(171,386,o),
(244,465,o),
(341,465,cs),
(437,465,o),
(476,386,o),
(450,266,cs),
(425,146,o),
(352,66,o),
(256,66,cs)
);
},
{
closed = 1;
nodes = (
(577,312,l),
(610,413,o),
(674,465,o),
(750,465,cs),
(827,465,o),
(857,410,o),
(845,312,c)
);
}
);
width = 984;
}
);
note = oe;
unicode = 339;
},
{
glyphname = p;
kernLeft = m;
kernRight = b;
lastChange = "2022-11-29 13:28:25 +0000";
layers = (
{
hints = (
{
horizontal = 1;
place = (-70, 24);
place = (-70, 24);
type = Stem;
},
{
horizontal = 1;
place = (409, 24);
place = (409, 24);
type = Stem;
},
{
place = (13, 54);
place = (13, 54);
type = Stem;
},
{
place = (425, 60);
place = (425, 60);
type = Stem;
},
{
horizontal = 1;
place = (475, -20);
target = down;
type = TopGhost;
}
);
layerId = m01;
shapes = (
{
closed = 1;
nodes = (
(364,545,o),
(305,530,o),
(270,505,c),
(218,448,l),
(236,531,l),
(126,531,l),
(-29,-196,l),
(81,-196,l),
(138,72,l),
(162,19,l),
(184,-2,o),
(237,-14,o),
(281,-14,cs),
(418,-14,o),
(558,80,o),
(599,275,cs),
(632,430,o),
(570,545,o),
(418,545,cs)
);
},
{
closed = 1;
nodes = (
(215,66,o),
(147,114,o),
(175,244,cs),
(180,271,ls),
(210,413,o),
(293,465,o),
(375,465,cs),
(471,465,o),
(505,380,o),
(481,265,cs),
(453,133,o),
(373,66,o),
(285,66,cs)
);
}
);
width = 626;
}
);
note = p;
unicode = 112;
},
{
glyphname = thorn;
kernLeft = b;
kernRight = b;
lastChange = "2022-11-29 13:28:25 +0000";
layers = (
{
hints = (
{
horizontal = 1;
place = (-70, 24);
place = (-70, 24);
type = Stem;
},
{
horizontal = 1;
place = (409, 24);
place = (409, 24);
type = Stem;
},
{
horizontal = 1;
place = (679, -20);
target = down;
type = TopGhost;
},
{
place = (13, 54);
place = (13, 54);
type = Stem;
},
{
place = (425, 60);
place = (425, 60);
type = Stem;
}
);
layerId = m01;
shapes = (
{
closed = 1;
nodes = (
(364,545,o),
(305,530,o),
(270,505,c),
(218,448,l),
(279,735,l),
(169,735,l),
(-29,-196,l),
(81,-196,l),
(138,72,l),
(162,19,l),
(184,-2,o),
(237,-14,o),
(281,-14,cs),
(418,-14,o),
(558,80,o),
(599,275,cs),
(632,430,o),
(570,545,o),
(418,545,cs)
);
},
{
closed = 1;
nodes = (
(215,66,o),
(147,114,o),
(175,244,cs),
(180,271,ls),
(210,413,o),
(293,465,o),
(375,465,cs),
(471,465,o),
(505,380,o),
(481,265,cs),
(453,133,o),
(373,66,o),
(285,66,cs)
);
}
);
width = 626;
}
);
note = thorn;
unicode = 254;
},
{
glyphname = q;
kernLeft = c;
lastChange = "2022-11-29 13:28:25 +0000";
layers = (
{
hints = (
{
horizontal = 1;
place = (-70, 24);
place = (-70, 24);
type = Stem;
},
{
horizontal = 1;
place = (475, -20);
target = down;
type = TopGhost;
},
{
place = (-27, 60);
place = (-27, 60);
type = Stem;
},
{
place = (391, 54);
place = (391, 54);
type = Stem;
},
{
horizontal = 1;
place = (409, 24);
place = (409, 24);
type = Stem;
}
);
layerId = m01;
shapes = (
{
closed = 1;
nodes = (
(614,531,l),
(504,531,l),
(488,459,l),
(465,512,l),
(442,533,o),
(390,545,o),
(346,545,cs),
(209,545,o),
(69,451,o),
(27,257,cs),
(-6,101,o),
(57,-14,o),
(209,-14,cs),
(263,-14,o),
(321,2,o),
(356,26,c),
(409,84,l),
(349,-196,l),
(459,-196,l)
);
},
{
closed = 1;
nodes = (
(156,66,o),
(121,151,o),
(145,266,cs),
(173,398,o),
(254,465,o),
(341,465,cs),
(412,465,o),
(479,417,o),
(452,288,cs),
(446,260,ls),
(416,118,o),
(334,66,o),
(251,66,cs)
);
}
);
width = 629;
}
);
note = q;
unicode = 113;
},
{
glyphname = r;
kernLeft = m;
kernRight = r;
lastChange = "2022-11-29 13:28:25 +0000";
layers = (
{
hints = (
{
horizontal = 1;
place = (-56, 21);
target = up;
type = BottomGhost;
},
{
horizontal = 1;
place = (488, -20);
target = down;
type = TopGhost;
},
{
place = (13, 54);
place = (13, 54);
type = Stem;
},
{
horizontal = 1;
place = (475, -20);
target = down;
type = TopGhost;
},
{
horizontal = 1;
place = (482, -20);
target = down;
type = TopGhost;
}
);
layerId = m01;
shapes = (
{
closed = 1;
nodes = (
(338,544,o),
(305,533,o),
(277,514,c),
(216,441,l),
(236,531,l),
(126,531,l),
(13,0,l),
(123,0,l),
(181,276,ls),
(209,407,o),
(283,459,o),
(383,452,c),
(401,538,l),
(391,542,o),
(380,544,o),
(365,544,cs)
);
}
);
width = 353;
}
);
note = r;
unicode = 114;
},
{
glyphname = racute;
kernLeft = m;
kernRight = r;
lastChange = "2022-11-29 13:28:25 +0000";
layers = (
{
hints = (
{
horizontal = 1;
place = (-56, 21);
target = up;
type = BottomGhost;
},
{
horizontal = 1;
place = (488, -20);
target = down;
type = TopGhost;
},
{
horizontal = 1;
place = (522, 58);
place = (522, 58);
type = Stem;
},
{
place = (13, 54);
place = (13, 54);
type = Stem;
},
{
horizontal = 1;
place = (475, -20);
target = down;
type = TopGhost;
},
{
horizontal = 1;
place = (482, -20);
target = down;
type = TopGhost;
}
);
layerId = m01;
shapes = (
{
closed = 1;
nodes = (
(285,578,l),
(412,692,l),
(312,692,l),
(219,578,l)
);
},
{
closed = 1;
nodes = (
(338,544,o),
(305,533,o),
(277,514,c),
(216,441,l),
(236,531,l),
(126,531,l),
(13,0,l),
(123,0,l),
(181,276,ls),
(209,407,o),
(283,459,o),
(383,452,c),
(401,538,l),
(391,542,o),
(380,544,o),
(365,544,cs)
);
}
);
width = 353;
}
);
note = racute;
unicode = 341;
},
{
glyphname = rcaron;
kernLeft = m;
kernRight = r;
lastChange = "2022-11-29 13:28:25 +0000";
layers = (
{
hints = (
{
horizontal = 1;
place = (-56, 21);
target = up;
type = BottomGhost;
},
{
horizontal = 1;
place = (488, -20);
target = down;
type = TopGhost;
},
{
horizontal = 1;
place = (522, 58);
place = (522, 58);
type = Stem;
},
{
place = (13, 54);
place = (13, 54);
type = Stem;
},
{
horizontal = 1;
place = (475, -20);
target = down;
type = TopGhost;
},
{
horizontal = 1;
place = (482, -20);
target = down;
type = TopGhost;
}
);
layerId = m01;
shapes = (
{
closed = 1;
nodes = (
(218,578,l),
(299,578,l),
(389,692,l),
(316,692,l),
(269,626,l),
(250,692,l),
(176,692,l)
);
},
{
closed = 1;
nodes = (
(338,544,o),
(305,533,o),
(277,514,c),
(216,441,l),
(236,531,l),
(126,531,l),
(13,0,l),
(123,0,l),
(181,276,ls),
(209,407,o),
(283,459,o),
(383,452,c),
(401,538,l),
(391,542,o),
(380,544,o),
(365,544,cs)
);
}
);
width = 353;
}
);
note = rcaron;
unicode = 345;
},
{
glyphname = rcommaaccent;
kernLeft = m;
kernRight = r;
lastChange = "2022-11-29 13:28:25 +0000";
layers = (
{
hints = (
{
horizontal = 1;
place = (-256, 96);
place = (-256, 96);
type = Stem;
},
{
horizontal = 1;
place = (-56, 21);
target = up;
type = BottomGhost;
},
{
horizontal = 1;
place = (488, -20);
target = down;
type = TopGhost;
},
{
place = (13, 54);
place = (13, 54);
type = Stem;
},
{
horizontal = 1;
place = (475, -20);
target = down;
type = TopGhost;
},
{
horizontal = 1;
place = (482, -20);
target = down;
type = TopGhost;
}
);
layerId = m01;
shapes = (
{
closed = 1;
nodes = (
(338,544,o),
(305,533,o),
(277,514,c),
(216,441,l),
(236,531,l),
(126,531,l),
(13,0,l),
(123,0,l),
(181,276,ls),
(209,407,o),
(283,459,o),
(383,452,c),
(401,538,l),
(391,542,o),
(380,544,o),
(365,544,cs)
);
},
{
closed = 1;
nodes = (
(23,-48,l),
(-69,-200,l),
(1,-200,l),
(102,-59,l),
(104,-48,l)
);
}
);
width = 353;
}
);
note = rcommaaccent;
unicode = 343;
},
{
glyphname = s;
lastChange = "2022-11-29 13:28:25 +0000";
layers = (
{
hints = (
{
horizontal = 1;
place = (-70, 22);
place = (-70, 22);
type = Stem;
},
{
horizontal = 1;
place = (412, 21);
place = (412, 21);
type = Stem;
},
{
place = (-33, 55);
place = (-33, 55);
type = Stem;
},
{
place = (-12, 55);
place = (-12, 55);
type = Stem;
},
{
place = (274, 56);
place = (274, 56);
type = Stem;
},
{
place = (283, 55);
place = (283, 55);
type = Stem;
}
);
layerId = m01;
shapes = (
{
closed = 1;
nodes = (
(182,545,o),
(91,485,o),
(70,386,cs),
(50,293,o),
(113,252,o),
(205,227,cs),
(290,203,o),
(321,178,o),
(311,132,cs),
(301,86,o),
(255,64,o),
(204,64,cs),
(149,64,o),
(110,91,o),
(111,159,c),
(0,159,l),
(-10,39,o),
(66,-14,o),
(184,-14,cs),
(300,-14,o),
(402,37,o),
(423,140,cs),
(443,234,o),
(392,280,o),
(283,310,cs),
(208,331,o),
(173,351,o),
(183,399,cs),
(192,439,o),
(223,468,o),
(275,468,cs),
(329,468,o),
(355,435,o),
(354,379,c),
(466,379,l),
(475,476,o),
(422,545,o),
(300,545,cs)
);
}
);
width = 476;
}
);
note = s;
unicode = 115;
},
{
glyphname = sacute;
lastChange = "2022-11-29 13:28:25 +0000";
layers = (
{
hints = (
{
horizontal = 1;
place = (-70, 22);
place = (-70, 22);
type = Stem;
},
{
horizontal = 1;
place = (412, 21);
place = (412, 21);
type = Stem;
},
{
place = (-33, 55);
place = (-33, 55);
type = Stem;
},
{
place = (-12, 55);
place = (-12, 55);
type = Stem;
},
{
place = (274, 56);
place = (274, 56);
type = Stem;
},
{
place = (283, 55);
place = (283, 55);
type = Stem;
}
);
layerId = m01;
shapes = (
{
closed = 1;
nodes = (
(462,692,l),
(362,692,l),
(269,578,l),
(335,578,l)
);
},
{
closed = 1;
nodes = (
(182,545,o),
(91,485,o),
(70,386,cs),
(50,293,o),
(113,252,o),
(205,227,cs),
(290,203,o),
(321,178,o),
(311,132,cs),
(301,86,o),
(255,64,o),
(204,64,cs),
(149,64,o),
(110,91,o),
(111,159,c),
(0,159,l),
(-10,39,o),
(66,-14,o),
(184,-14,cs),
(300,-14,o),
(402,37,o),
(423,140,cs),
(443,234,o),
(392,280,o),
(283,310,cs),
(208,331,o),
(173,351,o),
(183,399,cs),
(192,439,o),
(223,468,o),
(275,468,cs),
(329,468,o),
(355,435,o),
(354,379,c),
(466,379,l),
(475,476,o),
(422,545,o),
(300,545,cs)
);
}
);
width = 476;
}
);
note = sacute;
unicode = 347;
},
{
glyphname = scaron;
lastChange = "2022-11-29 13:28:25 +0000";
layers = (
{
hints = (
{
horizontal = 1;
place = (-70, 22);
place = (-70, 22);
type = Stem;
},
{
horizontal = 1;
place = (412, 21);
place = (412, 21);
type = Stem;
},
{
place = (-33, 55);
place = (-33, 55);
type = Stem;
},
{
place = (-12, 55);
place = (-12, 55);
type = Stem;
},
{
place = (274, 56);
place = (274, 56);
type = Stem;
},
{
place = (283, 55);
place = (283, 55);
type = Stem;
}
);
layerId = m01;
shapes = (
{
closed = 1;
nodes = (
(349,578,l),
(439,692,l),
(366,692,l),
(319,626,l),
(300,692,l),
(226,692,l),
(268,578,l)
);
},
{
closed = 1;
nodes = (
(208,331,o),
(173,351,o),
(183,399,cs),
(192,439,o),
(223,468,o),
(275,468,cs),
(329,468,o),
(355,435,o),
(354,379,c),
(466,379,l),
(475,476,o),
(422,545,o),
(300,545,cs),
(182,545,o),
(91,485,o),
(70,386,cs),
(50,293,o),
(113,252,o),
(205,227,cs),
(290,203,o),
(321,178,o),
(311,132,cs),
(301,86,o),
(255,64,o),
(204,64,cs),
(149,64,o),
(110,91,o),
(111,159,c),
(0,159,l),
(-10,39,o),
(66,-14,o),
(184,-14,cs),
(300,-14,o),
(402,37,o),
(423,140,cs),
(443,234,o),
(392,280,o),
(283,310,cs)
);
}
);
width = 476;
}
);
note = scaron;
unicode = 353;
},
{
glyphname = scedilla;
lastChange = "2022-11-29 13:28:25 +0000";
layers = (
{
hints = (
{
horizontal = 1;
place = (-69, 21);
place = (-69, 21);
type = Stem;
},
{
horizontal = 1;
place = (412, 21);
place = (412, 21);
type = Stem;
},
{
place = (-33, 55);
place = (-33, 55);
type = Stem;
},
{
place = (-12, 55);
place = (-12, 55);
type = Stem;
},
{
place = (274, 56);
place = (274, 56);
type = Stem;
},
{
place = (283, 55);
place = (283, 55);
type = Stem;
}
);
layerId = m01;
shapes = (
{
closed = 1;
nodes = (
(443,234,o),
(392,280,o),
(283,310,cs),
(208,331,o),
(173,351,o),
(183,399,cs),
(192,439,o),
(223,468,o),
(275,468,cs),
(329,468,o),
(355,435,o),
(354,379,c),
(466,379,l),
(475,476,o),
(422,545,o),
(300,545,cs),
(182,545,o),
(91,485,o),
(70,386,cs),
(50,293,o),
(113,252,o),
(205,227,cs),
(290,203,o),
(321,178,o),
(311,132,cs),
(301,86,o),
(255,64,o),
(204,64,cs),
(149,64,o),
(110,91,o),
(111,159,c),
(0,159,l),
(-9,50,o),
(53,-4,o),
(153,-13,c),
(102,-81,l),
(174,-76,o),
(196,-91,o),
(190,-122,cs),
(185,-146,o),
(161,-161,o),
(119,-161,cs),
(100,-161,o),
(84,-159,o),
(68,-151,c),
(57,-202,l),
(70,-208,o),
(88,-210,o),
(107,-210,cs),
(185,-210,o),
(247,-181,o),
(260,-122,cs),
(270,-76,o),
(246,-48,o),
(193,-41,c),
(213,-13,l),
(317,-5,o),
(403,46,o),
(423,140,cs)
);
}
);
width = 476;
}
);
note = scedilla;
unicode = 351;
},
